<mxfile host="65bd71144e">
    <diagram id="nApY0GXeao1E4CzejnQw" name="Page-1">
        <mxGraphModel dx="746" dy="441" grid="1" gridSize="10" guides="1" tooltips="1" connect="1" arrows="1" fold="1" page="1" pageScale="1" pageWidth="850" pageHeight="1100" math="0" shadow="0">
            <root>
                <mxCell id="0"/>
                <mxCell id="1" parent="0"/>
                <mxCell id="2" value="&lt;span style=&quot;font-size: 36px;&quot;&gt;What is a finite state machine?&lt;/span&gt;" style="text;html=1;strokeColor=none;fillColor=none;align=center;verticalAlign=middle;whiteSpace=wrap;rounded=0;" parent="1" vertex="1">
                    <mxGeometry x="130" width="530" height="60" as="geometry"/>
                </mxCell>
                <mxCell id="3" value="" style="endArrow=none;html=1;fontSize=36;entryX=1;entryY=1;entryDx=0;entryDy=0;" parent="1" target="2" edge="1">
                    <mxGeometry width="50" height="50" relative="1" as="geometry">
                        <mxPoint x="70" y="60" as="sourcePoint"/>
                        <mxPoint x="380" y="150" as="targetPoint"/>
                    </mxGeometry>
                </mxCell>
                <mxCell id="4" value="&lt;font style=&quot;font-size: 18px;&quot;&gt;DEFINITION:&lt;/font&gt;" style="text;html=1;strokeColor=none;fillColor=none;align=center;verticalAlign=middle;whiteSpace=wrap;rounded=0;" parent="1" vertex="1">
                    <mxGeometry x="50" y="130" width="130" height="30" as="geometry"/>
                </mxCell>
                <UserObject label="https://developer.mozilla.org/en-US/docs/Glossary/State_machine" link="https://developer.mozilla.org/en-US/docs/Glossary/State_machine" id="5">
                    <mxCell style="text;whiteSpace=wrap;html=1;" parent="1" vertex="1">
                        <mxGeometry x="350" y="410" width="380" height="40" as="geometry"/>
                    </mxCell>
                </UserObject>
                <UserObject label="https://medium.com/well-red/state-machines-for-everyone-part-1-introduction-b7ac9aaf482e" link="https://medium.com/well-red/state-machines-for-everyone-part-1-introduction-b7ac9aaf482e" id="6">
                    <mxCell style="text;whiteSpace=wrap;html=1;" parent="1" vertex="1">
                        <mxGeometry x="350" y="430" width="500" height="40" as="geometry"/>
                    </mxCell>
                </UserObject>
                <mxCell id="7" value="EXAMPLE: Traffic lights" style="text;html=1;strokeColor=none;fillColor=none;align=center;verticalAlign=middle;whiteSpace=wrap;rounded=0;" parent="1" vertex="1">
                    <mxGeometry x="450" y="91" width="180" height="30" as="geometry"/>
                </mxCell>
                <mxCell id="8" value="" style="shape=image;verticalLabelPosition=bottom;labelBackgroundColor=default;verticalAlign=top;aspect=fixed;imageAspect=0;image=data:image/png,iVBORw0KGgoAAAANSUhEUgAAAf4AAAF4CAYAAAC1hpvgAAAgAElEQVR4Xux9B4CcVbX/2WnbN70npEKAQKihE6RJEwQFnth9lv/T99T3pCrFDooIPAUVUBEVLO/57IIoolQJEGpCCCEhIb1vL7O78//9zv3O7N3JJNme2ewd2MzuzFfud+6953f6KcrgJeEVKBAoECgQKBAoECgwJChQFIB/SMxzeMhAgUCBQIFAgUABpUAA/rAQAgUCBQIFAgUCBYYQBQLwD6HJDo8aKBAoECgQKBAoEIA/rIFAgUCBQIFAgUCBIUSBAPxDaLLDowYKBAoECgQKBAoE4A9rIFAgUCBQIFAgUGAIUSAA/xCa7PCogQKBAoECgQKBAgH4wxoIFAgUCBQIFAgUGEIUCMA/hCY7PGqgQKBAoECgQKBAAP6wBgIFAgUCBQIFAgWGEAUC8A+hyQ6PGigQKBAoECgQKBCAP6yBQIFAgUCBQIFAgSFEgQD8Q2iyw6MGCgQKBAoECgQKBOAPayBQIFAgUCBQIFBgCFEgAP8QmuzwqIECgQKBAoECgQIB+MMaCBQIFAgUCBQIFBhCFAjAP4QmOzxqoECgQKBAoECgQAD+sAYCBQIFAgUCBQIFhhAFAvAPockOjxooECgQKBAoECgQgD+sgUCBQIFAgUCBQIEhRIEA/ENossOjBgoECgQKBAoECgTgD2sgUCBQIFAgUCBQYAhRIAD/EJrs8KiBAoECgQKBAoECAfjDGggUCBQIFAgUCBQYQhQIwD+EJjs8aqBAoECgQKBAoEAA/rAGAgUCBQIFAgUCBYYQBQLwD6HJDo8aKBAoECgQKBAoEIA/rIFAgUCBQIFAgUCBIUSBAPxDaLLDowYKBAoECgQKBAoE4A9rIFAgUCBQIFAgUGAIUSAA/xCa7PCogQKBAoECgQKBAgH4wxoIFAgUCBQIFAgUGEIUCMA/hCY7PGqgQKBAoECgQKBAAP6wBgIFAgUCBQIFAgWGEAUC8A+hyQ6PGigQKBAoECgQKFBUU1OTCWQIFAgUCBQIFAgUCBQYGhTY6zX+TCYj/InFYrJ+/Xr52Mc+Jtu2bZPRo0fr35MnT5bvf//7UlFRIUVFRXocj+fv4RUo0CMKQJRux/KJ8R0XsN9j+Ix/x7yLcq3xlbveWlrSUiRYh1iPsSKcwevhd3u1trbq3/ZZuqVFtmJdx2NxGT1mtB7GY/iKx+P6bvvAf6b29na9Rltrm8QT7jh78bu2tjb9M5lM6jsUBWlubpbS0lLdM3ZdDFVa21qzx9k1WjAu3t/GYJ/zuhxfcXHxDvcMe7ATScIf/UgB4/WGE1zziURCvv71r8v//d//yahRo3TfrFu3Tm699VZ5y1veouuWxwxmnAjAH4C/H7fV0L004ZyiI9/b8Q9BX/+IvtBf8VkRgRfA3ppO4w8KnBA8eQ5BX+LS2t4qcRxHQCejaW1qkKJ4UooBvM0UDvBdBtdIJpISizvBgGDLlwoFGVwf3/GKFCTa2nB1XKctE8Pt2nAMrov/CMwE7iIMiqBchAGnUim9TlNTkzI6EzJ4/VQihfE7oYXjb25plpKSEknjOUyY4Dl88XocuwkR9jnvyc/0c1yK9+Qz8FnsGkN3BYUnHwgK2DrjO9co3ynkfu1rX5Nf//rXqiAa8N9yyy0B+AdiUvriHkHj7wsqhmt0iwLEVoI63wl8BEf+qPqP/6FYN+MDCgTFOCIBzG+PA6DxJfgOwBwgjPObAYTtYEbQLaSY4N8OUE034SLFAP8SacA14rhJMQCcIJzBTSk4uBfhHIIC705LlrRIogiAnkkA9EukrSgBoQPAHx1N8OY1CPx8EYTtZVYJA3EyR9Pg1VJBywYEDAI6v+Nn/DGNiJ/piCLLm31nfxvTtfv5lo1geevWygsHd5MCXdX4165dK//93/8dgL+b9N1jhwfg32OkH7o3NlM/QV5xEa4m/kKk5/8A1VaAfxuANoHPEviuPU4NH6AJkzthuq0oKS2QFDIEUdX9AazQ/osykBLaqIknpDGFIwGmJfiM0Mqj1LTA+/CuOJf3oPUgIU28qp6XyZRiXND4OS4APcfHl29i98HewNd3S5h2pCBt1gyOIXKR+Qx1Z+Dtm0ptn/rgH7T+obuF9sST25qmUHvjjTfKr371Kxk5cqQKrAT+b33rWwH498TE9OSeAfh7QrVwTu8oEGnfEaQS0mMA4wwAngq5A7wOoYDAmIbGTI0bRm4cSzM8oF4tBwBuWgciQCVMx3EdGAggGLjr8BxeGzCOv3ESlXzCOgGZP/QVRKb+TBGEC5gcMjD14xe1BuTT0v3n98E8F6xztft83+cKEblallkAfKuA3T9o/L1bieHsXVMgaPx76QoJwL+XTmwhP5Y5+Kl3E1tN+waSUzNPAYi9Q/RJLLVGQVgFBPoKFJezLwsR4AcO0zPw58MCACEhVdw5MM+uz/u1pBskGStWtwED+BhPSC2/iIOjbx3SiG9ezyWtr+nbdwxwMtD3zfq7A2xfCNiZVSFXmCjkqQ5j23sokE/jt+C+YOofZPMcgH+QTdjeMFyN1HdatmoU+K8NZnsCbfvGammpb1C/fawNQXhqJqeWjkC44lJJTBgN7R7HppKSaWyRltXrNFYgLgz+UylCgwXaGTDQAiAfN1mKqoZLes0akbp6+P7jztwO/z09/IgKlNT4cdJeXorbIEAPLgR+o8GDGWQGQGjYsGGDnkMfPQP3LBK/rKxMP6+trZVx48ZJfX29bNmyRcaMGaMR/RQWckF6Z0KAgXw+v34+rd7/zLcI5Lv+3rBkwjPseQoE4N/zc9BnIwjA32ekDBfqMgUs0M7F5hPYM9IoseYG2fLFW+T573xXxqcQyre9RpJtDIJDuluqTJJT95Fxn/mQlL377SIVldLw+Evy6PmXyMzmFmlv3SYtAP5EFDjYgMs2jhwrh93wFSl/37vln6efK6V/f0KKS0o1Cp/uAfr7R06YIMMuOF+GffqjEps0E/IAtHto/WkEBMYB3Js3bZLzzj1P1q5fKyNHjNRUJQN0CgBMt1u+fLn88Ic/lL/85S9y5513yuc+9zn56le/mo3Wt9gAnzz0kxoj5ed2TfPb8ztG8/tuBruOWR/4vQUR2nnB9N/lRRgO7CYFAvB3k2CFfHgA/kKenb10bBbcp5o1gJ3R80XNIg21UvOFr8nGm26V8aNHSuOUyVIHLX8YgD/98suShkZdX1oi427/hgz/0Iek8a9/l9Vvv0imNNZLet99pHbUcMkADBOwHDRBE9+UKJGDr7hCis87X15/y1tl9COPSnr8eEnNmomsgJjUvPGGNL25Gp5/BPdd8FaZ9u1bJDZmBuL7kEbHND9kD7CmxUc+8lEEL62RSZMmSXV1tYI/AZbpfLQCvPnmm/Ltb39bFi5cKP/7v/8r/+///T/5wAc+oPn8lofvgzRnNV9gnoG8gb7VBrBV4H+/O9dDEAD20r2zBx8rAP8eJH5f3zoAf19TNFxv9xTwNH6Lmi9Czn1djdR+/ouy6ubbZfb8EyXx9a9K87gxUgyTfvrlxbLl05dJ+/p10vb+D8s+37tZGh9/TNZf8i6Jb66WEd+7RUrPPEPaa2oB2IzYz0hTS7uUTd1X4iPGyGunniPJhx+Q5LvfJZO+cB2EjAZpQM7/pu/dLSU//rHUlIrMuOl6iX3sk1GqIYsDpWDWb9WIZSvK87vf/U6+973vyZQpUzSKmcDO3Hya+rdu3SorVqyQ/fffX839/JvWgOnTp+vfDz74oGzevFmOOeYYmTFjhtTV1cnDf3tY4wrmz5+v7gG/8NCLL74or732ml5/7ty5cuCBB6qbgamFa9etldWrV+u9qqqq5Je//KUcfPDB+pMrZOx+PsIRgQK7p0AA/t3TaNAcEYB/0EzVXjVQ5+V3kfyaHw8fPYG//qZvyIov3SgzTz5ZSu67T4qgoSM9X2JNzdJyybtl4x9/L/H3vU8m3HarND75uLx5yTulaFuDjPu/u6XqgotFtte7ogB0/MNfn4mz4mRCXj/9DCl67C/S/p6LZebdd0tbCywD5aist3ixbPjgv0rDwmdEzn67TPvdr7SID9MI07BEJIqTGoNgL5r0v/zlL8vMmTPlj3/8Y1ajJzhT07///vvlU5/6lFx11VVyH8b/mc98RkGd2vrTTz8tlZWVMmLECLnsssu00tmSJUu0+hkrZNJNsM8++yjQX3/99fKLX/wC8kmDnktwf+c73ynXXHONugUuv/xy/f59oAUrbPL373znO/IhWEIoPORaC/aqxRMeZo9QIAD/HiF7/9w0AH//0DVcddcU0Kh5HNIRQQ/gr4fG/5WvyMobvyWzjjxKSr74JZGRY1hqTxoXvSBv3vBlaVu7XkZ/4fMy5urPStND/5BlF54vI2rqpOKs40WmzQSgxxEYGJdGXLhh8gyZ9slPS9HwMln71jOl9W8PSt0lb5cDf/xTSaNQQCyWlHhznaz6t3+Tuvt+IUUnvlUO+PsDMPNr4p+mDLQhwC8DIYCaNsvw3nHHHfLNb35TAfrnP/95tnIZwfbSSy+V//mf/9H3K+Bi+MlPfiI33HCDDBs2TC0CPOepp55SIKe2P3v2bJk4caK89NJLagk455xz5KabbpLbb79d3/ndvHnzFMQfeeQR2bhxo1734x//uN7j0UcfVcGD7ghaCygMUDiwkqlhDQYK9CUFAvD3JTX38LUC8O/hCRiCt7fUPBfVTw87hQAEzdVXy7arr5b1t90pk4aPlDqWuAUEF0Plz6zfoBH7FeefLZU3f0Nk8j7S9PgL8uq5Z8us5hqpRgLAJtCS1fep8Ffjp2n/I+TMh/8uMrpCVr31JJGHH5G2D10g07//Y5TfRXQ/RIRYS4Os+vTHpeUHP5PY/DNkxgP3I/EfkQeaUtih6ZsWTa2awE9TPWuVU4PniwGDn/70p7WMKQGYGj218M9+9rMyAQGE9/70Xpk+Y7pceeWVQnfB1KlT5ac/+an2DaCWTmA/++yzNVbg4osvlueee07+9V//Vc/ni5/fddddatpn74ybb75ZfvOb30h5ebl8+MMfllNOOUWFEP7NV/DxD8GN1Q+PHPL4+4GohXDJAPyFMAtDbwyM5ydAO42fqXyAWWj826+7RtZ/67sybuw4qZ02Ubai/E6ytlmq1qyWckT5p6ABl//gDik6cLY0PfqErHjb22RcQ52UXH6lZI49XlrrqrVID1PyYmMmStW845H6VyIrzjpJiqAht37gnTLrB/fAnM8iQHQh1Ms6AHbzPfdJzZzj5OAFj8M9gGDDJDV+ZBYwlx8v+s2peX/3u99V4J82bVon4KdFwICfoG+meH5Gnz7PGzt2rNxzzz3ypS99SU477TQFcF7389d9Xn549w/lX/7lX+Qb3/iGnHHGGZoiSBcANXleu7GxUVauXKlm/t///vdaNY3CwPnnny+33XZbNlgwVPMbentpoJ44n8YfKvcNFPX7+D4B+PuYoOFyu6WA0/hZHIfaPkUAxvajel9tjTRc/yVZ8fVbZfoxR0vZd78lbez+1QwQ/tNDsv2LX5aarW9K8ee/hgC9KxHV/6CsveBCqYDZvOI390v528/w7u3K+bQ1IuUN/60463TJ/ONvIh94r0y/6w64BNISL62SohdfkM0f/ag0L3xRUudeJGN+/iMtGVyUdM2AKJgw7d9S96jxU9umxk/w9TV++vZ/+9vfqrZP4KdG/l//9V8acEeQpqmf9czp26ff/27EGhDIr732WvkxAgzf8Y53aPOTU089VQWC8YhvoCmfmQQUGigIENivhlXkBz/4gQogtAp8Be6RNJ8HQYKWRRA0/t0uw3BAFygQNP4uEGkwHhKAfzDO2uAes2r77PSl5XAVnlE1Fz73ulqpv/6LsvLrN8v0U06XUmj27VPGS1FLkxSt2S6vnnW+lLz2osQ+d7VM/sqXpeFvD8jScy+UEdCGx/zkXim/8FzY3GuhxqNWPzv9NKA2bwl+ryyFZeBMSTz4kMSRETDxzm8hyb9OMtvaZO0NyLe/63apTpbKgT+4U2LvOk8yCRTm0RJCTiDhy4Cf/neCM/3zZmrnHqIrgMF9/IyBfTTp09T/yU9+Uo4++mjV7unnp3bOwD22L7333nvVJG/AT1M/LQPnnnsuYg4Xqx//E5/4hN6f/v1ly5YJiwbNmTNH6wQwu+A973mPXP/V6yWJgkZWvGdXqX6De+WE0Q80BUJ3voGm+ADdLwD/ABE63CZLAafxu0o7rkgvg/ABsLV10nTDF2Xdjd+USaefLsU/+L40TZ4gyRak6K3eIi++7QKpemWRlF57lYz/0g3S+Kf7Zfk7LpZJyJcvOuowaZ0+UTJpVu9DvAC0/LrqtCTOOVcm/ucn5PXT5svYhx6VlonTJXnKSVrHv2nJcml//jmgep20vu1cmfbDO0RGDEcef0qLAGpDHx1skabzsa0ug/uo8TOqnzn7zOUn4JJB0qxP4Cdg84ffs5gPgZqWAmrwd915l3z9xq9nNX7uP2rwtB68DW4LBvVRaGBgIM+j/5/3+NGPfiQPPfSQmvb5O10CFCYuueQS+eIXvqjAryO1ngV+LeOw9gIFekiBrmr869atU0sWBVoLLrVze3jrPXoaXI9aX3SvfQXg32untiAfzIr1qgk9KwC4hnkxlNTd9oVr5Ilb/1v2m3+SzLgXQXiTJgL4G6Ro43b583kXSHLx8zL8Xy6Ww2/9NvL4n5Vn3vsBmdzWjOI+2xWjLbgvgYtvYinfi98jx/z8p7LwzNOkDBp/Kl4MM3o7YgfSMrwU1f9QoW/EScdr8Z7MrP0A4Aj6Q/BBTFv5okxw9GKKHQGYqXzUtgnKf/3rX2X4cAgKvC80fhbtYVQ/NXj+MBiPGj8j8wns1Pi/+pWvypdhraA5n24BFgD6KFwNBHP6+H/6059qfj4FBgb88br2c+SRR2rEP4UOuhVoHaBgcPt3bleLiUtEcC1/wytQoC8osDvgZ0ApjyHw33LLLQH4+4LoA3GNAPwDQeVwD58CLpiPPnS2wY3K8SPYTpBb37boZal/fYWUTthHkkfMltYyNM9hZD8sAlseWyDxbRsknYwjaO8wgHgJyvY+ISlq5yyxy2g9AKleH+De3oyfGdNwncOl4bEnJIF893gJwJzd+ChoAOHTwyskcdBsKSpDrX406uFPq7btQydAAChj/xngZyb/RYsWyauvvqp59dRuaFZn2Vxq/EzL43eHHHKIugJYvOeFF17QvP1jjz1WBQea8F955RXV/o8/HimIeD238DlZ+tpSBXSCO4GbwXxM13vmmWekpqZGBY0LL7pQSlFymFkQzz/3vCxdulT2228/vR/3cW5J37DqAgV6S4EA/L2lYIGeH4C/QCdmLx1W1syP59OwPm3SQw0b0Eo5gO/UWKG6Z2JN0gqQb0EhngSAvTjmOuxlWhq16E8sBhCnaR8CgKr7xHNYvFXfhRChAYQp/IV6/8jPi8z2yPvDtdTNkClBxD9M/tD+21C8H8l9ksC9W1gnH66AUhzj8vlVDthBkybYt0PAIOCqXz1StPVz/GQ/5+mR4ZAuAwoA/I4BfHxZvX3+zvN4rP+ZvxS0XDD+YyCfvayUr/0dNP69dPPsgccKwL8HiD4QtwzAPxBUDvfIghRBHj+shU9Nvp3ldQHEBDOa54tQZjfTjOx95tGnoEmzkR6AvwUAW0ywTzeiwQ4AP5nA8Ti3iXXzXTAfr5XGrwkCY2sLsBrfxSEJ8HiVA/APO/4RiPFZrD2Fpn/t0ozUvQy0/wQq9qUA9q1I52vDuSl264OwQY2f1gEDbxb0aWN/AYJ9BOoxdPnTz1vxOX4nwDMQLysERK19W9tQEIiVAVMYJQsEAfwNqA3wbU/SveALAHGMhedzLAk8vwkO1uBnMPtUww4pTAoE4C/Meen1qALw95qE4QLdoEBnjd9pwhqNDk2Xij5T77LpfgBfKsrtAGCgLMUEbd1LINfqeojAo6WgHW4DlyWAY6Gp0zzvLkKBgoCMvxmox5I81KgVr/GPWQkYnMdx8Jq0BOC6vE4MVgAF5Ujj95mgny9vAoGZ2nPb5Frwn94Vz2HH23Fmpuc1+fID9LLChtHJe/ePtd8D+HdjMYZDd0uBAPy7JdHgPCAA/+Cct8E8agvwc88Q9dFVwz+/ITBaQD0C7NTfToM7PyRY54+1jbA5W2uP57GQj7tFBN7RHTT2TQsHuZda6PmhVhNyvQP4t56uMgTdEXQNRGKLNwZfW9dbRcCc24pXQT66qX+OLyTYnOYKDj7z7crxg3lthLEXFgUC8BfWfPTZaALw9xkpw4W6QIFsVH8Epg76HbBGKA3zOLV5Vs1zGr8CvyrtkWYeRa7b2t3dbX2fdxY4eY3sHTtfwY+J9xmfHWXme5rhc4HYjs/NqdfPo3iBrmrluZYBu2auD7+r19sdncL3gQK5FAjAv5euiQD8e+nEFvBjdYC/g32nVrv8PubzZxv4dNbJsyC7MwDc2SMzAE9fHqJTiOjQ+KnlcyiRZq+RfG5oyvjgJuA1eN/c4ji5gXU2hq5o7T5g5wPv3VkGcu8VgvoKeNEP0qEF4B+kE7e7YQfg3x2FwveFQgFjQtazntX02PqW6W7snGcd9AwAWe/+iCOOkBNOOCFbVCTXN59rks8FU/O/t6ZbNZKeKXRszsPXv6Grn+Xxq1wR5c/7mrqKNp6LwD8mH/D7Qk0A8kJZeUN3HLsDfpaR5jGhgM8gWyMB+AfZhA2B4eYzrxuAEgytMhhr2LOV7YYNG1QTZ2tbNtLhMfzh96ym99XrvyqNDY1aLIfH8Z3fM2qeL8vFt78tL9+C8vg9v2Plvj/8/g9ywTsuUGbHfPxZs2bpePiy8+x3ns/Ie3sesw6YsOF/zt95vu1HG2Mw4w+BBV/AjxhK9hbw5PRmaAH4e0O9cO5AUsAHSoIn+9C///3vl/UozMNGOARhav8GrGyVy2Y4F1xwQadhWgqdb7bfHcA2NTdJcapY6+U/8MADmov/rne9S4YNG7ZTEuysU56fwmeCR+5FTEjorltjIOcj3Gvvp0DQ+PfSOQ7Av5dO7F74WMaECJwE7e3bt8sHP/hBWbhwoZbRpRCQ77VkyRKtm09rACvgsSY+rQEsj0tBYerUqfKOC94hd33/Lv37oosukqefflqr5o0YPkLb5B6NboG8/6pVq7SULvP02U2Pufo///nP9fP3vve9Wr3vwQcf1Hr77Mb35JNPyh//+EepQwdBWgxYmY/19qnR01JAgGeZXz4Dq/XRdMqmPhyjb+XwfzfXQXenOAgR3aVYON6nANcd1ystUzfeeKOWoQ5teQfpGgnAP0gnbggOO1fjJ/ATbFkGl+1vKQRQy6dQYJH39MHzMwoFTzzxhJa4JVATjNnOlmD77W99W+vkH3TwQXoeW+4+99xzaqYnEDMa/5Zbb5EzzzxT/vznP8tHPvIRpf7f//53mTRpkn5O4eLkk09WAKcQ8MYbb8jLL7+sNfU5Tl6LLXMJ+BznZz/72WxnPjbbqaioyLoECNA8j24KP3gw+PyH4KLfw4/cVY1/7dq12nI6NOnZwxPW1dsH4O8qpcJxe5oCucBPrf3CCy9U7Z2md4K4BeMR7KmZ/OlPf1JwZlAewZ+++hNPPFFWrFihdfXf/e53y3XXXYfGgLVy4TsvlIaGBtXmP/zhDytIs9seQZy19Qn6rJ9/xRVX6P3YQW/ChAnanIfX47UnT54sc+fOVeGA11izZo0KBmzZS0sAtXu6JswCwXMJ6N/61re0nj81qTvvvFMtCY8//rhUVlZ2FDnKKd7T3fkIGn93KRaO353Gb8F9AfgLbK3sLFDKhpkL/GRQ9J1yQsmgyMhMI7F0Jt8fmpvHHLSSAlsAe9Fw8gE//ew0z1v9ezuG4M21yAh8miMpBNxzzz1y/fXX69qur6/XtX333XfLmDFjFLRpuqcPn9r2Jz7xCaUcz7/hhhv0+/vvvz/7Pa0KFAp4LvfM888/r3EG3/ve91R7pzWA4M+OfBQspk+frub+b37zm+pGoIXiqHlHyfve/z6ZMmWKnks3AAUMdjzjeDm+8vJyHYdfF8Dq+Xdlr/l71SwhuSmJe9ESCY/SjxTIZ+oPwN+PBO+rS+cLYMoFfrYIJfCToXUF+PtqbOE6gQK7o0A+U//73vc+BV22v6W5noCvDXBYlx95+ARca4hjZnaa4ml+pxDArAADUmrm/O72226Xt5z8Fh0Ou+sRpLds2SI//OEPVWDgvWi2//Wvf61CBFvjLliwQP36FBiYVsgAwKuuukqtDWyzS9C3gj8UVM466ywVEnhtChTW9pfHT5s2Td733vfJOW87Rz+3aH8WNdKaAlEjnwD8u1sx4fu+pEAA/r6kZj9fyw8Eyi0q4mv9/G7jxo3aG5xMjloHzTcMfKJWRM0jX8Ww3OF3hRn18yOHy++lFMgX1W/BfdTK6e/P97I9QBD/93//dzXhU7hlxD/9kib8UgigWf/WW2+Vs88+Wy/12GOPyX/+538q2N57772yadMmvQaFid/+9rcyduxYec973qMCAn3yFAq4B2gNoKZPbZ7jslQ/Zh7wGow9OO6442Tr1q0aH/CXv/xFTfsUtim8MBCR158xfYYKEqlidB/yNP/dZSHk7m3/3LBH99IN0s+PFYC/nwncl5f38zAtIpO+Sfo3WfSEDIaBR2RMjDJmAJRpGfSZEvDZN9wiqek7pf+RxVEYtcwiJn5zkcBU+nL2wrV8CuTT+Om3p3me74yWb2luQUc+1tnHD7RjrnFq0IwDoD+dwE6/PNcxBdtrrrlGP+f3l1xyiax8Y6WcceYZcvXVV6uA8J3vfEeDARmRT/8+Tfg8h9/98pe/VI2fvnya7wn8//Ef/6H74cUXX9Qx0XR/2WWXyVvf+la9B4MKCfT8jmO54fob5JRTT9GAP2r7zAJg4B9rE9x8881y1plnSXNLs1oYehrNbzQMPv6wn3pDgQD8vaHeAJ/rMwsykJLiEi9E4W4AACAASURBVA0w+sxnPiMjRozoVDSEflICPZkcmReZG98ZoMQXhQS+eE0WS6G2xLQjMhQea4FVA/yI4XZDhAL5fPxMvaPZnoIrzemuHD7a8uJvas8MmKOf/tprr5Uf/ehH6jcnoNJsz2A7AjMD7eiLZ9oeXytXrpQDDjhAQZ1FeiggEJiZMkgTPsGdQEwQp0uMpn6m/tFsz+8oOHNP0Pf/hz/8Qd0NBH5e6+GHH1Z3AS0J1OJPP+10tR7w3gw6pEDO61K4ptWAQgqf2ywGwT8/RBZ7AT5mAP4CnJSdDckHfvYL1zroYEo06VPjYAESRjL7gXvW59sqoBHwjbFSg6K2T8ZIbYhmyUQ8oeVMd1awZBCRKwy1gClg68ssVAR8BuRxPVJgVZM4hFfzhdOkTnM+1zqBm99TUP3617+uGvrll1+uZvfTTjtNP6Pf3aoBEpi5PxhVf8wxx2jqH0GeGj8BnmNgxgBN/bw2ffwG/JZRQDM+3Qb04VN4oEDNOgKXXnqp3pMvxglwHy1fvlwFFQrj+++/v3zuc5+TU045Rdpa0VoYlou+sKQFjb+AF/cgGFoA/kEwSTZEY5Y2aXyndk7NhSZFmusJ/H4v8dxIffOB0hVAIYDBSnfccYfWQM8F+75gUIOIvGGoA0gBP0PFyuEyHsUE1Nyh8HMKAnxRy+YaZ8Q9P+MeoNXKAuUoAL/97W9XjfvOO+6U4084Xk3yPJ55/Vz3vD9BnZYFnkeLAK9DgKdQwWMpgLChDwVsfkcBgfch8NNKQOGBP35lPn7P+BoeS+DndRgDYO41e64A3AO42MKtdqBAAP5BtChy/YK+uZS+SZofaea0aOhcQcFSgHgeGSaZ1KGHHqpmfmOqPtgH4B9Ei2OIDtX2hL9W0y1I53vnOxT4s8F91kYQdMpX5pfkyw2y88Har83vk9qu5afo5U6FNQXi5zbOrgb0DdFpDY/dzxQIwN/PBO7Ly/vBfcao+E7TPc2WjEKm1k9t3meEnVwEAH0KAAR6miRZbIRmSJ7D6/jMqS/HHq4VKOBTIFfj72mwm2/RsmvSL0+3wKJFi+THP/6xBgpadL1vDcsH9rl7JVf41SqCbA2M+ANrvpP7XFZpkPcyC4YJ3b5FI4B/2BN7igIB+PcU5XtwX59Z+sBvjIbBSExFotZPc6VF/vvnkSnShElzJLX9W265pVMXtKDx92BiwikDSoHcfWA3t4BUauEM0KNL4KCDDlJzvMUS2LG+qd23Guzs2p0eMAo6zBUcfCDf2XWCiX9Al0q42U4oEIB/kC8NTqD56xnZzEIjjB62aGTfBGk+UL4z95mVx1iPmUKCRfJbYGAI7hvkC2MIDj/XiuALBGbJymdp6IlLK1dY8K+fe68hOBXhkQucAgH4C3yCdmYezWdeJICzIAnzjhmhbJHRNslkcAxKYgDT7Nmz5a677sr2Q/c1oaCVDKJFEYa6AwVsvZsFwMz7XQHkLmn80R1z98muzg17KizUQqJAAP5Cmo1ujsXv9kUfJlOMmJbEgiU099MSQE3eXmb6Z+rUl7/8ZTn1lFOlJe3SpvzI5MCkujkR4fCCoEAu8PqBdF0B/YJ4iDCIQIEBoEAA/gEgcn/dwhidVdszXz9znRnhz1K9FnXsgz5zi9k1jDnSsXisUxUxCz4KgUf9NWvhuoECgQKBAnuWAgH49yz9e3V3P8qfE8kfavh/efAvculll6qv3zQdi/RnCt/tt9+utcUtOjlXGwoaf6+mJZwcKBAoEChQ0BQIwF/Q07PrwfmmTQ02QrQxK/oRuD/8kQ/LSy++pL5+Cgj07bN6GcueMrfZ8vZ90LffA/AP4kURhh4oECgQKLAbCgTgH6Al0p2goa4OKV9KEk371PqZ189GI6xfzvx8fvb666/Ld7/7Xc1xZtS/n2fMe9oYewr8+Z6xp9fqKg3CcYOXAkNhvXRl34c9MnjXcF+MvCtrpC/uk3sNwwqWuGYPDFavpJLIypQs6nbyyScrTvgZX/0xjnzX7Ms9UQQCs37XHn/1l//cfzyWI2WE/0svvaTNTEzbZ94+iWr9xH1i9Bb4/Wv5hVX6chL3+OSFAfSaArrOXAeeHarl2Xcsk7s3vPic+iyW++9VELTn8xl/T1IL9wY6DfVn8DFBe7Bw3fQjXJnGT1C/8cYbtbkVgZ8vA/63nPQWaW3rXNitr8c0EOt9jwL/DpsbDMAmuLeL3pikLRZG6tO0/9BDD8mVV16pvn62BmVHstNPP10Lm7BjmL1yQbq34/GtB/7v/SXw9MV4wzUGngK5riq/qt3Aj6b/79iJuXtMPQjG/U/7Qr2DAWknHhwJi/0Jirmmfmr8I0eOVGGDHVxZ0ZU1XqjxW2+L/hpPPmGiL/dEvwL/rsyWPvjRvMKfbHc9qgK9fOXem9p8uhWmfETtf+LfP6Fmf5bltbx9mvj9rn29NTXZ+X49c8si8NMJgxWglxM9yE/P3eAqsOJ/2xN8PHaH9AXZwfzIvtVCGS1L/cbQEjvhWmIbI90ZQ+1L5jeY6bi3jT1XCfRTqdnXQecd/1HbZkdH8uu+bOFs9yeos0Pr1772NW05TY2ftV/efPNNrehKJZHHEE8ML2wu/FTynswPx8BnsrLXfurt7jLLursv+hX482m2fDjffN4TAvX2nJdfelk+9rGPyT0/vkf23Xff3l6u2+dTwKFsYxkI3Z20bt8wnFBQFMhlcqZpWLvdghrsAA3G+IKv7Vkt/75k8AP0OOE2PaBArrJF/mjatcVe9eCyPTrl29/+tvzkJz/RbpJ8saX0PffcoyXdB+ple8EaY+Xuh95Yi/sV+HMZnD2ASTL8m3529g5n5by+fOUuItPoKakxev83v/mNtim1lr28tzGYXFOT/d1dQtt5vB8XMOujH3bYYTJ92nRJppyGY1Ijx+Xfty9pEa5VeBTwLUL83ZpB8Xe6oJ566ik1L3Kv9FaTKLSnN82Ga7+8olzmHjxX+wfQFWfKggVZtWfaXexD9ApCcqHNZt+Mx+fXJgibZZRp12xPzZ4rK1euVA2cr77eF1xbuibRt+Xxxx/XWLCqqirFi02bNsm5556rsWFsW01Tv1/9si94t9GA95szZ45ihe0JPq/fNI5/98Za3C/Anwu6/JsEJbH44gR+//vfl5/+9Kf6YJxABt4p8bxmH71ZUrljMCKpiQjm/qJYUbZ2v89UjPHkErY3Y7F702QbT8R1wbz3ve9VqwPLBPPF52eVwe4KF70ZVzh3z1DA5tgXhMnQfvazn2mGCRmLbXIrQGXrcbDH9/mmftNgjMGfeuqp8qlPfUrraVAQ0u6BdAF4nr/cToJ7ZgbDXfuaArYnuO65L4gLbJrGqqs0u1PjJn7Y92oBiIL9+srPrmMALphgWllZqdhkmFBbU5u11Oa9Z09ib7m2LbgV7ywex78TSbj3MB5apK+55hp1SzMGjYpqKpnS/cG9ZGPtrkDc58CfC7hGNE4UJ4/RkvSVMGhi4sSJ+k4Cc4NTuu+z4D5OIv1CUcAQmUu2NS/dqPQv4n4koDETX+Pvjn9lZ5vA1+qUyUPgYJDha6+9phaO6upqufzyy+XSSy/VioK7kmC7O7F9vTHD9XpOgXyCsAE5LUFsDEXmxuNYVnrSpEm6yU3at0qTPR9BYZ7J/UZw53NzP6xevVqjpy+++GK59tpr1QqQbkHqFJig3yDLmF1hPlUYVVcp4O8L07bN8vXrX/9aU6+p6TMQm7VXhg8f7gCPvnAqbxF/7zXwR+DL6xInqJzV1tZmffm2V0tLSl0MSiSI+paorj5z7nE+3hGPCPrkCcQJgjwVAuLmcccfJ9dde52cdtppWRzzn7+7brE+B34DejNRcsOSmGwJSg136dKlWjCHjI0MjQ9HQM5dBD0lpJ2Xy2x94LdACd4/tx4/z/cB2K7TXcLadczFYNekGcd+mEnAIEP6jRhkeMQRR+zQKrW3dAjnFwYFfEuOgVhNTY28853vlL/+9a9y1FFHaSBRPBbXAKbGxkbdF6Zx2FP0msntYXL4JlHT4LhHKOSQJ5DhsqEWGfytt9wql7z7Eqf5Q9uzfRu6ZO7hSezD2/vKEeeXZny2UqdFmOZuWkS5D8graRW1/bC7YLeeDNHGwmtbTReuS1uz9q7X7ivLdE6aIi0OBH/DzYqKCh0LlUXWnLnttts0Jd0PRO/Jvuhz4DficOCMxkwVpxT0yeD4OvLII5Wp8cc2sOXP8+++NHXn07TM1G8mRwPkTpOaZ9X0RLrMZ/3gpc3yQNM+f8joOK5f/OIXMm/ePF3gFA78e/bk/j1Z/OGcvqdAPtDnHJ944om6Ny644ALdD2RuPNZcYv6GNq2j70c3sFf095lpeSYk853gTx8rmdzLL78sP7vvZ3LRxRdltS8TfAa7ADSwVC/Mu/lYwRHy7/e///2aP89COeSB5vbifPvF1XLXUW+eMB+fNmwya/DOeHlv7pvvXOPzvJ8ppqQDrR0sLf/YY4/JN77xDbnssst0T/DFMZolpKv7ot+An4PmYOinYQoEzdoENXbBs173vt/dLAT9BfztLNurRUNgoIlMRLnRwn15710tCLsPJ45jobvjiSeeUBMvtb9hVcOybojeWBz6elGG6/WMAj6DI8Bzzs877zx55JFH5Ny3nSvVNdVZCd53O/WHVtOzJ+i7s3wNz9feTLAxtwYZ3YoVK2Tx4sXy5JNPaqCTmnjB5PYWIajvqDp4rpQLoL6Jn25PRtMz1oOCMUGfipEBvq+R8/f+5NfZe1nRoMi8v9t70o1Ma4D5+30ffhemybeI2eGmEFP7p+uDgb/MOGCcWK57uCCAn4P40Ic+pKUPzz77bFm3bl22Ja6vzZjGr7n8kW++CzRyDAA/7UpoVN6Lsp3bIsKT9jFGRdPPT/8Jw0Hoo4mkS5+xmulGCU/hgAvLHwTPs++6OLjdSYm2ePnO6FEWF/rgBz+oMRB+7IFJu8HE2UXCF9hhtpktUp0+fUrsjBKmlk9B2JfYDdyM4dm8784qlX3saK2agOvWbfStBhLRO6li8E4rZmTjjcDB7HTdD7o/3c7LZcRdYTp2ju11f7/7PIHPzCwYMjmW2GbmT19qeQW2RIbkcEyrpRv2wQcflPPPP19OOOEEFYIpIPu9U8zV6vPC7mJFJ3bOpWwf6H7xvtX+Lsgmgdm9Yw+5zaL3jPJMCPC6T/IE9fEzbhPDop6WpjFhl+90eVFJpNmf8TAUipllwBf5R3fwoV80fhvsc889J4cffrhKcBwYmRwnOV9kbi4gd2UnOEbEdB8GejAwEGkeZFSCYKAMCFEUJ/TjI4J+O+uEuEmLNH79FpYAMrZ2RnMiorJdz8fnbZhgRnR6FgIT3rLCnAWFdGWweY7xNUEucv79j3/8Q5kc/f6caH/xK7uNBJce3jKcNoAU8AU/25RM0aPli8FKU6ZM0RgXh6ed61vkunm6NfdRQKsypXYUG8FPRoOSEtIW7YsiBEdlgd+EWguI1Whh7hO8Y1+167HYZ9grCdbbwXcZfIdv3HUjv2R3y27lCjL+M5vFkBofI7sZA/ORj3wkxMAM4Prtj1v5e8KsO7R8Mmp9+fLlmtFBkzZf+XL3e8X/uMdUqQNiRJp5G35pw1omUMdoUVLAtpA77gEXTGi8X+trEfDx0wpAaWPxqTZE4WNf8FrED7s+r6XCAve3+7Xbr3z0YiA4LcPU+NlV1nDCcLcrN+lX4Gd0LoPXKMXR5G+BEj6T8yW5rkxqJ1OIauWO0OBKAO9mx4MyAH5JClrz4HemfbThB9WfwLhU+48ANMEJ0z/xLc7nRFIAINgnMZFxThU/UyNA1taTNeW4U50loCtjtwnxNTj7nZuA2Q00azIe4o477tAFZwzQzxn1GWRXJjkcM/AUyLX2cJ4p/DJd77/+67/kzDPPFAb3+RK9v7bN9cX3rkjzne4XWab4Wby9BcIt854h1MawJzL4gQAQqe343Gk26eYW1XL48oVzbB9pT6CqJY6LY8EXpykQw4qmTI6CsdsD0RZUBqq/74bkO9svPg249mnepGZD3sF32w/d2W8DP/vhjjujgPE7gj3nkoLd7373O7nooou0HC5ftIDlzq+dZ/si103bJYor8BMq4BNXZU+kuahN0lAM29pbAd4IRIdgDNUUe4K4gdRv7hsVgCNLMZc7+XIce4bAj61Uki6S4taMpONRVlokXBDtqWxmLQNdGmTng3KFY8aHsQZMXW2dYuqf//xnmTVrVqe0vq7cpt+AnwOcOnWqmumYokSfjZnyOLBcM02PNf5IBKMG4rgOBABSuj2OCOmUmvqhsOB341FqH9DJUJd/JAhQIEhj8llCFA4HKcKiVPM/TShkcu5wPddJhe4DXsd5Hbv28oUe/3cubJaKpDuEphwWjGCQkx8PwTsEhtc1OhfCUT4Yc96aW5pl/onzVaOhRYfv1uUr14zdE41frxG5qfiua5Zrup0uNPwBTgdRAOlKSdwXDA4CgFPWsdYjAbhDiIUgTLGamg3em2E1UNCFFByHFqR8MONSVLkncgvt9AX9jckz2PG5hc/J7//wezn66KN1HH7Z6764V7jGwFDA9gTxwcrjXv25q+W222/TgD769XNL4fp40V2lp+P46PmUZzvrL/l8C9dwPAnhGrnx+DSFPZIAiFP7p1VMz1erF3aJavgOY3AIBIY2acHeKoZ1uBjncS9QUMZuUhM/9x9kARUwDGe6S+Wsq8GGH1kGiRUPPPBANsqfOGGZL125R58Dv0nkf/vb31RzZRS/X4TEwMsWQOeJJFEjs4gp2AQ7T4XwGaTyqqj8LSUylsKlaTyBH05CfX0dgLNZWpEi1NzQpEhNBpim/ybSStQcQ+kOP2XlpVJcXiYlqCYWR+5wG7ISWiCZ8hxl0LwC6kQ7m0Hk23Emhshn2lE7YFcA7QOC/7tmHOBnwYIFWjmK6SzZCmY6ZkeU7i7+riyEcEzfUsDWKd/J5LgumatOv/UhhxySrQFu8S08Lje11NZG1tpjvkiaE7kWVXo106RbFy6exV2rFQDp/JRxFyQFIZaLt7auRhrqUIykrlFdXa041tXQcAItFBhdz8kk1iP2QRJMpnxYpZQi4j4NwbilEUI8zovh2ryfc7W5c/rjRUsYtcLrrrtOvvCFL6gwnOsC64/7hmv2PQVsTZuZn5orY102bd4kM2fOVCtYvgDOfHih6zXCC/6iOOG4vK5kdVXpr+TRWN80UNGCRUgGcidLoa6XlWD9Q7BtQPpsbb3EttVLiuub0BL9qGgcWbXS2ELNKVgMqoqloqpCykvKJFlUIu0tGY1LaIMg4GrtUxzueLmtm+1LGSmO3DS26/LT2leQfZ5CSxjdwkyRv+mmm7IFv7qqGPY58FvFMQaofe5zn5PTTj1Ntldv79S/2Pfxd5LI1HfYoU1nSaHYanDrfjcXgeY7siIeVPoEJDcystrqrbIGhUBq62ulnb2T6xucmRIXTJBZEegjMwynp4V50/iumdp7KRgkGF0lwL9y2AgZC39KcYpd+zLS0NgAxueyFdQqgNm04EEKGurPMT9pzvvOtpA/sZSAmctN9wjpx0A/89/4EdA9qSnQ91s4XHFXFPAZnOXkLlu2TObOnat1LLh2TEg2y49dzyxjPvATYJWVmC1dET8rgnbaH1xH3IelAPviYjKlVmmorZENm9dLY1OzNGJfpOvqpRyaSgn3RHRjFWzJ7GDap/mzBapLM79LxmFyd8A/YvgIGTV6jKTAMBvR9KqhFWZZ6EpJ7Il+qaQGOpHJsWHKe97zHrn77rsV+P1SpmElDh4KmHBrOMHMDbqCWaSH1mHLetHlvYt4JmfccuvfCQAu7sQ+iAy6+qdZjvg7eXcC162MJaSpdrus2rhONkIxjGE/VDY0yyQcMw3fJeEWo/JXhLoahuANiLna3NYsGyASrMPHrWWlMqy0DOtzmJSNnyip4VVS39Qgbc1pYA1KwwNnGDemLjSVjCNBXa0O7rK7hv3ocTz3tPEKCsNLliyR/fffX371q1+ptr9Hg/usqcIVV1yhFcnOO/c8leYseM2WaCemBsI4Ka9D43dMLSILfIrUyG1WMzTng5Y0V7oiIC1qNnoTwSHbN22RFH4fBoAejhMqQd0qmDbLYcoxLZ8Eb4s0IxUoUogJwLXqMLGNuFZ9ul22gM3WY/IzqbiMGjtZxkyfIomyYgAxLAfMPsA1ctNMLOp/d9OZT+PnsxEI2BSC0f2kH6uXMSCSZh1d4JEwEYB/cDC6XPP9o48+Km9729s0gInz6mv7vjCrAiWZhjffZsangStmewPuLLdPXICrVv4io8MP91tLulnWv7lGNqOzWDsq4A2DgFuF70bh2CrU1ygrScG15YoEZaCpmLmfQrS5CmjSbGxLY2+0yjacu50wXwIhACmnI/eZKBWjhkkDvqd9k8Gy6hulduRULfd/pJW5cBhjdR2C/M5m065j2g0zg+69914VhgPwD449kDtKXyDm+id4HXzwwer6ojWMwa5+TIvtId/KGXm03HKlAMA30/i51qLIPeeOctYvauFJBpZjX6xesVza0SNmBCy607GWDsM4poO3D0dg16hkGXADli3sF55uVlgFXPDnNPZaI66/GQ6wje1N8vq2JnkGxy1KlUpLeZWMOnAGLAFVUoW9qQXqWpvVcqD4FgF4R7rf7jV+n34+7Zjuyo6BxIY//vGPmhVmcURdWRl9rvGbGe6qq66SW2+9Vc466yw1ceYWGNjRdOMm0bED+mDsNzU6KvEsjYKmmgS0kOIYtBJoMiuXvSE1GzZiusDUoL6MYMEDHF0Ks3wxOSXejSH6745lOp+M+kMxD8UI2igqLpOaItRFhsNmW30NJhmSHo4onYh4BcQtVELCa2MsAJkl5jMFX2k7qw9GQl0+s9TOJsPX+CkFG/CTfldffbU0wgRVAiuEtWvN1Qa7MsnhmIGngA/65q55+OGHtTEUNRz6Ms1PnWvOy6fxK+OhL1299BGzo0OREcp4S7cC/CEEpyCoNtVsl01vrpJ1K1dJOY6dCA1mZEkxhGC4s8DQStjWNAM3VtYo6ujjQzKZHu+jL8rc+GmKl0h1rFSqYTXYlmkQttXKwNw55cB9UWBkJAZVLE0QjMl343Q74CIcL7UxGsQcw+6anmOaId+p3dAKRpMw+3tYX4uBn9Vwx95SwPaFWbteeeUVtYIx+4vR6tY0zeehujYjIditU6cyE+y51rjOyHsTbfTS01qFQG58keF7URIm/TKp27pZMus3SNMbK2QKrnFkWUoOrxwmsxEIPhZur8qWBs3+wjZy61Qf1K1V/qv+et0G/Ium4YzU47falMiG4ZNlUWuxLNi6Vl4uapH1wJDh02fImEnjpa2kQmpb4EagC0DDxZkJg72qe1ed/112kfm0455YtQr7G3Fg9PUT+E156Moc9Tnw+xr/zTffrMDPoj0WxGTazI5mCWodDI4A6CNoIhFpBq1Mp9A0JNCIgRcw65fAzJhuqpE3li6WmlVrZRLAfhLmYgSmhcFH9Pvr9FA7iqjgJrLzywkTJmxE1hicQ0GgBS6BOO5Hk00zrr8ZvoIlCHDaiO9HTJkhU/aZJnEAcgNiCMowpRwvI59Vc2K0M3UwcGQ/gj+f6SoX+CnJESBYzIIavwlSjF/Qco7hNWgoYHNPgY7rnz45aq3z589XrdUAPrcIhz2gr/G3Me2UgXuq3YOBqEHMubkaG2H6Lhuhbqh1a5bL1hVLpQK1vqdCAJ6ANVMMC5ZaqXi8M8hH+6KjVoWtLF8PN8HYvtOgJZxJUykZbQ1SYt4AA1zShB4Dk8fLtKn7wBJQJWmYTJOJlNtHsAZobAH9reDQMZhOOQ76QHf1smcnbVjNjzEvzIS47777gsY/aHZA/oFaQRoqg6zOSNBnLNiwYbAeQePPtXbxKp3xghZfxmXRhM5sLMaaJKDoQQFD1kkzAlqLihrhok3A0lshS9asks2vLpbT4Qo+D8e/Ba6sKuBKHH75GBS4ONYjOHUkVjsFU3eGBcp6KJFrr3J7Aj/YhxkojMsRUP5XKIq/aaqVNbCqTZl1gAyfNVXW11bjflASGWaDTIIiWARieAYGDWpQoOfK3lkMl58BRisY6/hTADDgLwhT/5VXXik7A35/OXQ8pElx/BZ+9ChQQ02byWIAbAtS7uJShQfevHKFbFz2moxqbJap0GRGxuDHB3MlYemvtMnJMtCdbJROoB+dR3ZE2G6mMIZfGBdARtuECWsqKZLaeKksRZemaoxjzIwZMn7CPpDmELENTYcWiAyEFvMJ2bPtKvVkZxo/gZ/BTBSkXGBhh2QYgvsGB+ezzWwmOGqtNPX7wM9j8gG/P8cqQEbtaZmeyiwTFWwVTAGM8ONv3gJ/5ZJXJYH4llmJUpmQLIIGBBM8tPs4A0MjIdfXt32w57rn32RitgdUtog+J8W5JSmAR045bDYwyJKY1MIi90Zdk6zFF2OnTpKJ+84UxtLGwYxT2J/pNqZnuf2tpn+9cdeEWNKHwE83STD1D451vzuBzoCcwL9o0SI18xP4ae00S9iuNX4LlQe/zWZcwafeXiLNTYxNScu4sRXSir2w7MWXZXL1NrkY8VrzYMqfWtcgoyEcUBB2a9Bfh8zespz9aI8RD7hmI4l4V/YqHlJTlJJqBMJuLo3LIzV18kfEl60bP0pGHXwQ9iOuxWZtdOOpCcxp/E7G2P1+8E39BHwCPwWA+++/X4WmggN+luv1Nf78C8MVDVHYVR8hOY0L4muCdlTBB4O28OaSxdLw+nKZCogfh++G0a8JCY9mSwYq0RyTC/y72y52vItKdn8hll9P6zDvIPqZjBGSXTuCpl5pbpTXIS0OGzdJps85VJqYB5qBmVMZpLuSH7jozEe2gjomOR/wMyNiB43fM3Xt7nnC94VBgexGJfgihoQa/znnnKPA76e3GvDryovwUZ8gmnONb+Hv1ESwR9C4FFHGNNenz+FUAAAAIABJREFU1Vf/xtLXZfMba2D5SsiMJAKOEMwXS8O8yPxkLDUGtvoMi/cxoLfPDcx9jd9FDHS2ivFv7gNuVd0bOKGMjAxuhnV4fwaRzRkwuun7HSDlxSPwnChQhM66zACwKyldbC/sJOnf1/hpzmSNcloPg4+/MNZ2b0Zhwq4BP8sxG/CzSZOPFQaI/prx9wmhmuZ9XY1Iqo8hLqsUAmn1mpVSt+wVOT5RJu8EEB+wdb2UwGJbDPBljRZXpcVX/ZyY6xQsJ/p2+OI774Nc65hvBaA4wf1RgnHUVpbK0xAA7thcLc8A6KfNmS2lCI5txaZsY4B4ZFHg/vY1fpeFsGNtmJ0B/+DR+KMH86McOQf68HxXEYtBRND0EYFcAaAtgsb/0gsvyIhtNXJ4shwaPsIsoF0Tos1o2BH+11V9wk1oFvidQqKVyaz8L9dIa7Q+TCNyCktStsJ3+kJ7szRUDZf9586RCkhhrLteAp+S+mSjlCfGA+hE5jHV7w74zXXiH9ebTRfOHTgK+BuVTM4HfjP1czR5Tf3q03fCo3MZseIYATsjTQD8Ili5ilGYZ81SxLes3SyHoMDNWLrKEKxH1sPjNJiV50R1drykUzVm2ssEAb777i/T/k0ooDUNLk1hYixLAqHWiVYtowCgvBQ3bIW14dG2JlkDK8NRh8+TyrFjZDv2MINwydCzOdq613ZdNlj3ZqTxB+AfuHXb33faGfCzHC2VRK6VHTR+39UZMWwX94JqkgDZ9iYUA0qVSGmqSBY9/4yM3rRZPoYA1GOxASobUDEWQdtUDAkWFFYpAMRYxTKCf7cSDfj5l9s0WUNVtF18kLffNT4MP352DG/FPVKH4LuNI4bJb7dXy08gFI+cPVOmz5op6+ubpBkCAN1e1orYrLo7C94edMC/O41faaoSDivruYpJKm7BR5NmAN+27bJo4bMyM5OSgxCdX9Vco6QmizPTjK+x9Erjj3KkrUgPZRAL/uMwqT1BgVFmh+Uk1UjpWILAkI2IhD74qKMR31Ssec4lmHDnyyRjdxUDXblg5ZAdTNeT7Cy4z9f4A/D3Nxvqv+t3F/hzNX6tF06tQDNaXJ0KLvqSimJpa9kurz7zgqSq6+WIkgSC9uC/B/BTSGXBEMa50G/J2JNsMGDEoHL1HPvbsb6OlwkBtrf4zrVPhtaiErIrZsVypW7PkWEmpBZWiBXYNStgFTvgiMOkZPRYzc9mBLLu7UjAdozOj7HpqP9vowjA33/rc09dubsafxYfuFZ07Zh12D0BoBMfxmUE1t3rC56UfbZslksnjJTZCEKtrKlXDZ97guuUC46/J7GPnKXArUDHkX3gj6r84ea+5m+c2xeQLTDcVYGNAsV1NzBmrRQ4gayY0cPkb+k2uXPbFmmfPV1Gz5wFgRhVNaO0Xg30dSk7KkAzbc0pijtihVV5NVN/wWr8ucDvxTEoofTxVONnvD7BEeZ0MLI4JL+G9gZ54cl/yiQg8LxEpQxLN0CrQQRmlsDmczTDjYt8tmIixsw6yLfjcs9KWm5JadCI+TJ1WeAiGsDBBYNZptaj2QAUCpIpacKcvdCAaE5YKOYeOU/KoPk3oASqU/AR8hc9MAM6GLzoTEnuFTT+Hedjb/mku8CvaT9kUvTdUzOh0qH+wMj4yCA95swXpWXBwmdkPDID5lWi3gT8lm1YsIyBoTBMJqhsB8yD+TDQs7MA6zMsH+gNgH0ffy7w2x7iMeqV0/tQc2J0tSuMTfOlVjZDWdHXi1plOcY89ZC5Mm7SRNTXQCZDCkKLFt2CQEL5XlN1dz7jAfj3lt3Q8Ry70vgpIHYy9Udqt/LlyNmuPFQVxEipKi6VUsS5LHviUZm9eYvcMG68TKrZLKVIQUWAvUqWmmlCEMefLM1OkNaMAAfPhkKRqT+Pxq/MurNgnKv98xDuGQoi7dyzsCgwmJUZBq1M6ysrl9+jKNYNdH1PnyrjZs2WJmTZOAM3XHcUoLEZWGeGe8os4rlYMWiB3xgcgVRNJPhAg/IYGQ/hjRmUpTDfoNqIPPbPR2UymNqhiFBOZlCxC4nFJlkpj3Pz4YSHPHuE35mvskOb6XykAT/ZmIvm7MgK8CU8u0/WukDgpxKG9yZUc3oFTG4NhJU5Rx0lsbIqaYKJk8Wh1GsEt0DHXO4oxXHoQePfu5hcT4Ffy34S/AnzcBFQK8g0YlcQMCFcLn9+oaTA4A6B77sKqUIJaBIUQrm+DKwta45rVUtUe9q17RlfKPZ3hK/15+6xiP9FE2XCtvNHurhoZx5FdQCkMiVkKaSEJQhoOmze4VKM1Cbul3ZoZqwWmGCaHyuqRZHN+YJWA/DvXXtC108U0Jrr46epfwfg59qPztH0fMUMrDe4epP8gtawcsRcPfWsHLtlq3x61EjZH/EtpTCll7CnhFeR0vh2JEt0Qo0OU38Hppimn9X4o41jnmp/n+gYuQf1AZlxQFevG6sTUVASHv/WlxbLiygOd/WmrdI0dV+ZPnOObGreiqJxiBFTNx1qa8CNTCHA6Yd7rcbPjl/WLQm1kwGULWAEJaDiigXPymiUUZyBgLoypEiQuZGySfpGVKchUR2DNKXByOQLBOaDMSHAmXiylM1KeQb89O/4oR/uWh0eUo7DSYtRFDT+RmaI1KC2wOtgaBtRxvHg445HMaAmlP1FWgkCrpAE5Uz/LKGaZzID8O+dDM6v0LcrH78zebltrq0+FLmxDqEBpFFohNHAY4YNl4ULF0rR+o1yUtVoSTVUSwxrrJUpQhGKm3DZKYwmklhNGCCDikqOO0blsUB//9iM+McY8zRBW/dUtNm0oY9tKzJp3KgOjG4JBJM3wKgPP/4ogH+l1IPBxeASi8GqF6OVjym8ZI8a1OuECD+oi1H9wce/9+yPbgF/xKnpBmY9CK2Xj/WRRMI9O6hWVVXK0oULZNTGzXIjUkoPQtpcBphR1pbUlDlExOygHGYBXde9rXi3yn2wNyE6S3nuTw9YsvuCax2fZ4XuaB9rFgzvEX2vgjz+qS9Nye8qq+SWjVul/JDjpHhClTQC/NGfFQdD4YVL267WuXCR2xuDVuMnhZzPBeY+FZOcP4XafiMYQXF5sSx74UUpfXO9nBSvhCTUiHK6iGWmexDn8hwHw+rdyTIvA/+Iz3Uyb9okue989tUB6k4zcj4kB88G965Sn5vzjk+pqbCyma2FNLSzWpicXkIwSdG40TL5kP21g1MCnDlG+xIflUw3AP/ew8V28STd1fidtsBlQiCkMAxQpIoMwTeJymKrUfJ389LX5LSqcVIJ5taOIjptAE3W1lfcp4YRMScf+NWU7q1TrlcF/ujHB3H+bjEBtq5d+Su3zjsDv9sv2oo00vYd84v2DYUWWilQKOXx5lrZWpqUY+cdjVRZlEttgvUOFTV10LyuV/HPT20KGv/et1W6Bfzk9VG+PjXpNNZJGusnAetqJUqp127fLOmnnpCvTB4thyAjYBjWFcu2x9PQmjXKxXVsNQYexY97/LyzpbiDz3cIAR67dgI2rmfpfbplc/5W0z0/x7EK/CYYR8cxPiYzZqz8BNk3XwJWzEIqY6IMTjmYBOK6DxgTRne/CSVuDQz64D7HnJxfkJNE7YbEakbkZSkkuA0oRVj90iI5BE7A0bB+0EfJF03qVpTHvPiRcV4JncvAbBJ9jX9XwJ819UfmGQ/iO2n8ltdpUp6blYj5QmLbhnE/Dp/OhENnyMjJU6SlDhHYqGqmTFEXRceEBh//3sfY7Im6A/zZFB4VS6ndON85M0KqEJ28YcMGWfrsAjkG1fPGgZO1ppuEhZwJsWbmt/Vuoqj7O4qdN+FABc8O0OcxHSFOHUzQ45VZwTZ3f1lUPoFf4T7L4OiPxT1YWAUSfhuK+dTDvL+wvlrKUMxkCvL8q9EgKIXP3UncF07LJ838PuwB+Pe+/dEt4I8wmwuKAnEL4r9aUSQnCSZcAUvSq0/+Qz6Jmvofgr+4pKYJ8S8RMGuEK380IiWrnekSzQFqn8K+xu8LAZ0hOALiCHOU9/sHRMK3CuN2jD1HhBUMcFk/cpzcWLNV/gCwnzX/NFTfbEap4EYtLexbvuz3QQf8rNxnKRruuZku55iWagw03+A3agDtaHCwGMF8B6Ei3lR+zuhkEJUmElPtc836PnF9htVJeotON2boT4kf3OfOz9X4OzqXecPQ2XdBTnwIlxlKpt2MAb9alpCX8OWcIw5GXXGUU2Qfcx5IxT+7UMiNO/I1g49/72Jy2Y2ak8d/4oknZiv38Ymz6Xz0eUMVpzBMbaUFVi4GB1VCaFzwz8dlMgTIQ6H9tCONj5ak4ig2xnhJx9r2GZOJmW4NO43cBcDaefli63ym5dfG8D+3vZYNGIwYqgY24frUWtow/jY8VypTLFtR7OcxVDSbdcRcKUOKUxrWjCLmBEaCcFeAn5X7WAMhX63+UNhqcOyfXOC3Aj708e+Yx09fOVZojIXRgBJQrNIwDY9EQ5zXH3lUjqyukatGjpGZG1dr0LVb1b4WnwflI36dj1r5gL/PqBoph074gNULqPdG2XC5pn6brNx3roxC74uGZnQHhCBjPCFf9ddBa+p39bsdaNJfk8akMvqyKlUhS5GilF6/Vo6Gv3w4/IKsmKdaCSOcOaH4QyMys0ysA8JzNRcDfhdpGWnkuijym/pZztQxQxeQ0aHxq9fVdCdn2qQJiiaZSNLj+BigyPuwo1m6PCmP1SNic9pE2W//2QJhLurk58qVmqmIVzaTTgD+PttiBXGh7mj8GhwX1X2IM/gJT1CPXP1SRAJXL3tTal5ZKnOR1VLWuh3VJC39yO2JjtgUn+G56BeXVOQ4HdcaQdkVC+ucSucTzJQXc9d33i0d+y2fxp9bgIiR/lzvLE/agMDXRa2NUl9VLrOPPAK+fiZTQ7uJbKPW6dKZO6O9GPL4C2It9+Uguqvxu3WItUvwh6CYipWg8dtqEVTlu3n4RDkY+fEVEAYJ/Np+1+WXOP5N3LfBG+AbeOR5KC7FbP3/TgJEzyhgwnEELFkLQBEsd63o9FeExj6/hHv489s2yrRj5ksajbOKUKeDr9yeHYNe41edA6abTDvaFrQXI/cdEcCAyyaY/5Y9+aQciQI941HmMwGnh+YlR4CvCnME+jYN2UhNb17MfOlA3L3891yzjQkInQM9fOB3lolOk5j3uu4IHS8kmQ2VxfIISpnORi5zacVw+HBczXZezC3IoPH3bDsNjrN2p/HbU+hxutOdCb5IG1Pgb5SIbmmok1eefVGORNTrVLbKRXVI6sgUfhkDzMM6CocYFNsKd6u+I/a+A7RNc+9Y+53NkrZncveKT3nbD7mWtew+capNlFXDBR+XNGpzPIn8/uH7TpJxM2ZLLdJgLX2L7g40D8FxNIt1Bn7W6mflvlyN33eVBY1/8OwLK2PNkr2HHHKIzJs3b6clexkU3WG2R6MpgMIrTz0ul6Ar2ycTFTJqW72WrmbsFxxLUdi2JrZ2MO18TD8PuXyNvy+oaXvDrpXFMg6N1jDsibUTRsuXV6+VJ8aMl8lHzZPmuhon+NJy5gW8Djrg37ZtW7Ytr2NyTgyLo8RiUR3KLJa1S6pSZDG0/eGoOX4oG+QgWtmFDrmXT0ALNjIvjh3lwoQiC0H0e0fs/u6n0TcTddx5x/OMsfkCpCvygyZB+i+YMTSZmqq4PFuPyn6jRsu+hx4u9ej5THcGO5cxXUu1MRUCHGsOGv/u52gwHZHdqPBFxmHBsqh+dudj5b7s2s66e9zKIvBTS08WZxDQ95pUv7FW5pegQAmqk9XT6olFrUpLJDxaQ6sOm5StzI79kMsDc4F/V3Td1V7w9xuP8yugZ10A/BxDorBSgTz+lxDLswLprweCDvUtoA2CYq1nOYG/XRtzReJKpPEb8P/sZz/Tnu1m6veBP7SrHhy7I1fjZ3e+XODX9eoColTz0wBVmE2TsApvW7NBKl95Qa6dWCWHbK2HZRjCJXq1ZCPuee7OSOEz734ily8Id8IftbRFY+M48NPEKH7kfD8BgfhTNQ0y4ojDUZ4epa6jJl5+w6JBB/y5Pn5lFgC+BFIu0tuhBVfBp1FUJ68+huClkmEyHEV6ihC8xCphPhjzPGMmBvLZcqHeJPI7aylqBUl2x7yMMXZ3LXSeZGdD4r+lYHCs2LQF6tijDe0yZ/5J0Gwg4UUVmZyp34KZ3DINwN9d6hf28d3S+GnqjzT/BPOA+Xe8WZ5/6DGZi2j4WWyIU8tGVS7exdY9mZ3Gv+heobhgO6TDnO9TyQdjd87OmeSuvsu9pllPO+7ujjAGbAIB3RI1ZUXyJPbEuDn7y5h9pkodml4l4Nc07SazC+APGn9hr/mujC4X+PNp/NZwRhtRcT+gPHsKVtRWuIxefPEl+XjdNvlkSVKKaxrRejpKA+V625WJyh/cTgChLzT+fBYw2wuaSYM/tP0G9x+a+jTBur0GMS/fRGerp5HmN+7QQ6SRzXzID6I6/r41a9D4+HOB3/zj9PvFEKVUOrJMXn7haSl7c60cVsw6/E0QCly1Md+Xb/Pm6zOdjZo7CgpdZV5dWbA7O6bDXOqiAvh3ipGZAHmmLv0TecsZdPGbNmdfnVCNIWAgV+QWUBNnAP7eTEFBntst4FcmgFWANZNC4A83+rota2Tbi6/ICSgLXYEmUGkEvpIxseCVBtxRIVLzpgG/Aa2pNTu6qHymtDvg7ypRcxmdf11zxRH46ZKgAbapuEiWIth1A7qxHXjEEdKMQl1sYmSm/nZtU0p3IF0frjtfMPV3dTYK/7hdAb8F9ylQRihOJakNruEy+L+3oYZFzXMvyW0oA33ilg26PjrCQz1tOtd821WBoA/Ilxf4PSDSlEAN8uagGPzaJttQ++Xhygq5cfMmGXb8cZJA170mtChWa5jRIrIMDl7gd7OqtcfZt5te8efgwzussUGmUStmf2Q1d3ZoDDuz0JgphcSxAD7f7z8Q821rzB8v65nTYsH8haX47c2yEpk5D138KOlBGEhpW0iEoTDliSb/APx9sOUK6xLdAv5I41dBF66BivIKee7pR2UczH+HtiPbJYOSn66tvZaNVo1ffeJ0Lzmo5T6ywFUH+Tu6OHOZUndcYd2lbsTf9DSzBOg6x8+a4oQ8hQ/3O/wIGYHCRM1IY2IQINO2Mgjg2pmpP2j83Z2Fwjt+V8BvlfuslbmWq4Yw3A4+mULRp43PvSBHY09cniyR6dUbdjDpZ3FiIBh/N0mbxSpsDM18oYAL5ZdDbQLurYJl73LUIlh7+OEybtw4qatHNxgokBrhj+enwGC1/f22vAVbq38HU38UxAM9WJLlKdm+aqNseukFOQ65jcPb27S0ofkxTbuPXCLKznLNiT79czX8/tb47frmeqBWQ+bGDmYuQjQum9Ge9BlUZpp84AEyfPoUqW9skXIGcJEJgmsH4O/mDhokh3cX+Hm8Q2swA2j4zyPQ9XDoyTNR4a411iwtUVYTfeUO7F3uidP4na2pc4Bqh8ZvQnEuP+yL/ZFrRbDpMeDPtdrx782pUvkLwH7sfvvJfrP2xZ6oi+qqIzxLNX0yxqDxD5Kl3q1hdlfj1y2BPREH2K998E/ymYphchHcxGUNmzpZhXVH0GimANmtIfXpwXn3g/ehhvJqBVcHEu0I9GoEuLdAOfwGsPGuRLEcecyx0tJCFNGtna1xka3ch3o3Bd+kZ0cfv+5oTYsrHlYqK2C6ia9aLUcVx6UUwT6shmfR+x1Gyw7tZVfAb8frYnE023mgRx9Mtz8W/u60fJfSR+DnJLcgDeuldI2kJ4yV/Y6YJ9W1DSjo40y1GqgYTP19MBOFd4nuAj+fgGa8EjTeWfHqq9K0bLkcDRNgZRNM/Ejts8JRnU39rgB1LvCbxu8Lpvn2Qn/uEd8SFvEv3Y/cIzWw9D3WlpZG1Fafi4CmNqTuZmDypKBMLS+Y+gtvPffViLoD/DyWUf2pZLHUQWHKPPEPua1smBwMt1eyFQ3bcvh7wWr8GGg2foAI4Qm37GvBku/oNCT/O3yEXLNxm8w69lgNAI8xtidqhsW+FoOqZO8OPn4LZILUk8CDLXl6oUxC3fF9MclswoP936lsqE2mb8rn736gEo8xU3t/g72/Acx8Y+OhJsZxWOYBj61E/vIr6bQsGzlc9jvsSATxoSeBFqSA1KcRq048DcF9fcVaCuM63QF+N2K6vxDEhDz3Z554SmZt3SqzYRLPQAWO0/3FMldYKknuDyxylrBWATlCWH/d216xz3amAA3EXjEBwMCf+yONfb8e++JJMPMZ84+V4aVlKN7FYhcI/9POa8Ycg4+/MFZz342iK8CfreMATbgVwvAIlH1e+voSmfPGavlhSbmUoeKd79u30bm4kG4E+fXdY3XvSljjVo3DuejQxAc48OSYSXLtts2SmnOIZIYPg1sMPWrUzw9XB2ihXTABkJUVg1Hjj4KYYmjd2YQ85eX/XCAHodbiROa5UzJiuhIZWgSixjj47v84VrmjVm8mxv7UZmyWfbOOz0T9e7OwxFo8zDPoMDj9EOT0Q2JtUoeGe8aQzte9PTNYju4O8GvULm2UeLVjLyyGMMyGI9NSsBihUllS85Th68TC0qh+7BFXJtSlhPqlqw1gba/wMHNF+bTj5/25R/IJFdn9C65dX1oiD6POxeijj5RxwyqlDa2sM2xJyuDGENw3WJZ5t8fZFeDXlU0FkcCPVL0RVVWyeAFqOVQ3yI1sw4vOp75Qa0qgrfU9aerPS5BOGr/beOaWMxcfY19eHT9Zvrpti7w+eqKMnnugNDTWSCta+Srwo3x3DAJDG5SDQenj18lh9DI2/oZNm2TNswvlJNTyrky3aKtF9dFEoOiDuzENv2mIz7h8AcHO78/gpV2teBurRVzXIXDjYbRWnXDwQTIGk9uEdEVXsY8le91RQePvNg8p6BO6A/wK+AD2OMx6zUjvWbrwOTkKnR0nYm00I4evWNveodAVAJOgr1q+Lnjfx9/h1vIFZK6yqGJ5J6A3K9lA7xGOjcFaRYhivr+6VqoOPVQmjx2BAD8AP3Z+IgJ+MoEQ1V/QS7xHg+sO8NP1Rb44GsD/4t//Lh+BYPhprOIKNLfxBdvsQCJA6HJaX4+eoJcnRRKLVRUk3jFol6rgpgmT5abtW+SBTEJmn3mGbIf2nwHwUxuOQ+pXUz+Bf7Bq/BlMaKq0VNZs3CTVC5+VkxHpXoKAJj8QyKLzDdxton3tpZA0flsOZlY1QYTPUY/uS481oATrvvvKFAQztSBVI6YR/S5SMwB/LzdTAZ7eXeBPwx3EaP5NmzYi7uU5CMNxGdbsykIhrh/sjkF+jkm4wk987xzH76+9XI3f8RsrRO2EhP7U+PNNie0JfteGroOPIdU1PX2GHLj/LKmtr9NCq8l4KrsnAvAX4MLu5ZC6CvzKEyEMtsJ2PxLW4Q1PPytXjBktZ6xZLVXof2FryXdjZdfzznxbvRx7n5yeNYW50dpzMN67btQo+R/UtbgJn04//QxJI9Mtoz0KwAe0zTA6Dg5WjV8fFJOZQJGbN9askeSil2U+KhhZjWID9ty5U00h+jFNemfMZU/4+3PHklXK8EVjaVyeROW11MxZ6E62v7QS+DGZzFk26TRo/H2yrQrmIt0Bfh5L4B8GzWbVylWy6ZXFciqifMtR1AO5L4jtp7GvTQN+VFiklqBPunPg120WgXtHVL/V8HfugT0F/LxvCs2HnkCa4sax4+Www+dKDbQ4thhmii+1GxcAFXz8BbOg+2ggXQF+8/G3QdtntZsUaj00v/CCXAngPxG9XKpatcsJdoQrWsUGvPYqaG3f35Tq8nbdaVmxktksTahV8BCEnash/I4/9TREibfgEFjCGAymXTniKGLUJlWDUuOPoi+K4kkEbCyTcStWyvGQ/lvQtMDA3YA7m/sYAT7pls9f6a9JXmNPm/ptfo3xNgD4FzSiPOmsWTJ5PwJ/vaYvUcqj5s9XAP4+4iwFcpnuAD+HbMC/8vXlsm3pq3I6CveUNzQivCeJ/7iSAPxAfF3fkZpgBXyscFSuxm/7p8PU31njNwvbrgTpviYnh87ArPJkhfyzvVmWInPh2OOPkhrU8Cfws9x1bCfAH0r29vVsDPz1ugr8tn8SiI1qXrdWkouXyGfRx/7oDetR0Io1+dnBEv1eEOyWjGr0q++cQvFg0PijSERd6ozZwSZkdP9CAMN/QPgdPv8tkkChqwyE4yJo/UAPjfBvh7V8UPr4nZ5CSScpS8Dgxq5ejT7jeCik9zj25hiDtQPNBXU/J3lXGstAazO5W8hMOHxvQEvSZ2C2bUeJ0ukHHISy08zRdAWFg8Y/8MxnIO7YI+BHyc6Vy16XbcuWyhmoWFcGy1Az9H0a+dh1jCV71UQfafw03ZvBMGtB9B7OPuswsZsDzYmmA71HfFN/AvnKC6EEvAaX33HHz5PaJgA/RpXC52y44mv8jz32WN4mPf48hiY9A7Gqe3+PrgC/3YVu0DiAv+nN1VKKFNdrAPxHbFovZQh0415IRzEvLGplr4IGfbftok2sJq1srILiItb9Emj770fWS9mJxyOSn+WKWQ6O3TXZ1Af7F26OisGZxx89OB7k1VeXykj4bI5K4AHZaMEDfus65kdsmkXAGIgfB9D7Jdm3V7D5JbzXQ+N/thm/TZoiMw6cK80I7pMMYhogwdkraPx9S/89fbWeAP/wqmGyfOlSqYEl7Mzyckmieldr1HiXm197jkVaDfeH+uwjk3gu8OdXejoD/0DTqFMKLix+CzHo5RXlcvxx85Cn3ajPVwzgz03nM+C/9957tcGRNekZ6PGH+/WeAl0Bfh7D6n00gcdRsa95zVophvvrurEA/g0bpBTBrgR9BrsyM5oprvqKBOPej7Ifr5AL/MxggQkPsgx2ekxeQ/3+96YQ/H7CcVIG5TiDGhd8MSBWC9lD46+oHIzpfE60AfAl5TVIcSPXrZJL4ZJTAAAgAElEQVQjkb/LB1LTI/7RyGWP9r7mYho/v94V8A+0NpO7VHyNvxbd1Z5DKdbMhCkyc85caUKnKVo4dHFH3toA/P242fbApXsE/ND431i2TGrQle90aPwpaPwG/PTua1U7/DClj6mvXDuuAU5HlT7/UXfU+G1XZPnkDkVQ+pNUvsZfBHPmQvg4l5eXyfEnHI0WvXhWbOgUNJ6iHFN/0Pj7c1YG9tpdBX7tR4+hJQD8TYgFK168WK4dP17mrd8E4EfLdqwVYgWrvBIv+FI3WCGb+W2QarZzGr9VbnVNumKyGLFvH4A0U3bCsVICjMzgWflg7cBIVXwHr6nfWvPG5bWly2TU6pVyFCoztUELVsYQMTbThY1ZGMuyTl/RoQPKuLqzRXzgrymOyfMISIlNni4zYOpvaGnAZFJ+C6b+7tB0MB3bXeBvQVDPcNStX7n0NWj8AH74vkuaOkz9gH3XjwIbgT5+VyzK+t3nB/4d6VU4Gn8MLaoX4GFWEPiRy9+A/d8GZpgFfi+dL2j8g2nl73qsXQF+u0ICLmAD/vSiRfIV1LA/ZsMmKUFrZ62Maj59DyQKHfc7TP1OUrGmPUzrS+OBnkH63icR8zZs/nGoTshgXCiMrOFBewD2BwsaVQ1GjV9j+xiTCYn/jRVvSOnrS+X4VIm0oTYx549BDirFRbOfC/z5fJmFuC12MPUjqr94xr6yD6L665vrVDLVYE01bWBCWagCHcv+9re/yeWXXy7XXnutBnwlUeHMQKQQnzOMKT8Fugv8nGsG7WxY8aZseXWRnFKMqH7EgjSqAdBV91Lgj7CbNS+4blwp364Cf2eNf6DnzheGE9DsHwdDWz9ylBx28AFgeq1apcz9x7zFjqj+APwDPVP9d7+uAH+2Mx+AjsF9SGiXpoUL5apRI+TkrTVSrDFSTkkkaOhbJAREBtT+e4CeXjkCBId/3Mf4V5P4qfyz5XBGmpHC+zAsw1clUzLulPkSb6KVzzXg0i5dtHIMXo2fT40kJTRdWL12rTQvelFOQoOeOFR5pi3oBOI51Rri5rXTXHYyF+b5vqfz0tfn2ThpoWipKpbHa5qlcuZ+MnHWftLQzDx+MuzI0IMHDcDf1zOwZ6/XHeDnsZz/SrTjrNmwRVY+/6ychI5dVfgMDiE8CNeJ6/9gsiKBXz+LHnOwCMTm508mSuUfaMHdOH2azJi6D3MW0LTKgT7DGQPw79n121937wrw8950g3JPMN1tBH4a/vmk/FtVmZxZXQ+BGBo/j8lZ+7oHCl3lp5avYO/Ay9VyAUYQ24eXyW/qW+RaLP59zjxZYnUQhmHeY/0uVYRZwGewAr+WYtQCPmWyafNW2fDMU3JyaYWUwNQZo9+bEk6Emjv6KPMLA/21SHt6XV844YTVVBTLX+qbZSLM/OMmT5N6mDXjmFCWYXXrNGj8PaV1oZ7XHeDnM3BDFzOCua5Blj+3UI6Fb28Y+jowbSkK62HjPg0C4nuxxsE4H39uOl/B0iTLqJGDnSiXx1vrJXbgfjJl/AQIOGRy0PAI++q8DRp/oc5jb8bVVeDXKnUAfq7vCRCIX4Ml9N/gMv0gNkASvNQ1tLVXpDkXsvS7g8avbN9ptmrmF6lFI7fbUc3yB3jqmaeeLkX1cO8VIeQV1jDtYYHjBznwt0sCxQpqUaBkxeOPy1HllTKmCSV70w3avYtSkEYwR7TxF1ohz60/TpNIWat/FRjaI3je2YceIeUlw6UBkxmHgJMCs1cvLTh50Ph7w04K79zuAL/VJedTxBDV/uqzT8sB1dtkCjV8lupk6h1jX6K9QX6RhNpA7bgD+Hdsy1toVDFtHzHLUhMrkyfbt8v4eYfLSDQkaYbQT1N/op252dwS7NLnCvgEU3+hzWTPx9MV4LfUTNtDwwH8rzzyqFzQWC3XoYtdHNZTrBS1DcFWhnegRT7zcM+H2fdnesBvwIZmlPqia5vA//qUSXLV5u2ydMIoGTP7EIk10srXgr3fku3PkQ/4hyEbiGXwaSXpyguuQdOtu3L47o8xn/SVV14pN998s+be7tiW10k49FW2Qnpb8fwLMgHNeua0J6W0jb4b58v0a/Lzzgb4hZzCZxTyfZlxmGwXI/dyxZhRsv/hRyIdCeEaCMmm35bNV5jgQK4egH/362swHdEd4M+uG6yH0orh8sozC2TExvUypwQacFO0mrDwGcnPyH66woojncftE6fzuzhoT40oMIJFyo1k4qWyLlEiC1trZP8TT5BiNCZqxh5phcsvgTrlaNMTTP0FNnd9NZyuAL9/rxiEwZJkQlatWCEHINvlu6UJqainBhyH+OiC34gWZjovdB+/Yl+0TfnG7ATuizTenxo5Vq7asl2SRx4m8RGjpKiRexpR/Sjg44p25TH1//kBqULFz4IHfg1uoMkSoJ9C4NryV5dIKwo0nAJzf2ljnfoxYeF0qRkR4OcD/kIRAHwLhA/4HB+tFmlIqM82NkvLPpPlgMPmybbtNRKjWQNR/TRphgI+fcVSCus63QF+F8wEgRd7ohhR7uvB5GqQ6npoqchwJIA4Lz80/sjHT2ERRa51hzgt2gd+g9fCooftYb43Ib7nVQxz87BymQUm144GXaxiSVN/HAyd0cum9QWNv/DmsTcj6grwZ4sxcYXTCoSfatStb0Mhp7sqy2VaC9xiTa0AfqdAaQHfQtf4IyzTTHaTz7mvab7nXkYw733JMrm+eqtMO/0taF0NkMAzFmlwH56PrXzx++DV+JmvyGIEYHKlJSWyacNqWf7iIjm3coSUVW9XS0AbaxhHq8s8Ofa3VfQrtBgOXwAwkyZl0c2lKRTvScu4OfvL6CkzpRn5ykVxSqx4Ag3RJufurPFfEaL6e8NbCuLc7gI/BWKm7STRqTLdWC8vPvGUHJpokxks3IXvzHVk64yVu/mfC+5zYG91/PY0AXL3bscInRBTjajlfwLsK1HCetJ+2BMoVMRiVgxcJlfUUsQwW+aa+u+77z5pamrKW8AnVO7b07Petft3FfhtzSiHhCUohYJWy373e7kUBZ/OQ0bYiG3VUuLyXCIe6n4t2OC+XFM/NX1CAATddli52kvK5QutDfK/o0bKAfMOk+r6Ggg2GgevFfvo48+w0A/8/WzmtWrlm1IOWvz5/j/L8Krhha/x2yyRybFOfQLVF159coEcUN8EnyY2Pc3flISy7KxjQZlQx8VQKAKez+RM1zKBrhXMaxmktOUwVe1/7LGoRa5GTDXfuB4N0G4i8O9k6r8ipPN1jY0U7lFZ4Ed6TjwZl3/84x9yzjnnyAknnKDV5+y1Q6omFnd5WbEsePQRmVjdKMdEAX20HlGrUf6hGr8r/mQFfFzbEts5hUEX2xscje1XYvs65Ck/DmY+5+h5UpRIQAloRVc+J8roU5AP5AH+ULmvMOa1N6PoKvDrvqDPmiHtWA9lsAhvePlFOXDzermirEr23bwNwIio/2htFQwg7Iw4kaZPINfH4r6mTNOakkbsh9fK43I1OvNtPna+VA4rkSLEu7FcbyaTwnHAjQj4WwH8lT7wP/BnNPcaDD5+BXeKZjTpt2PQZYhiflaSb26ETzOFoiUI8vNA3xqM+Bo1mYexuK6FM/Rmqe76XNPE1F8Tjdsa8LTCd7mAjRYmj5dZBx0idXg2TnoMwO+EBBReJfCTFl4ef9D4+2++BurK3df4GcBXJC3pZgS0Fcvadaul8aXX5HhshiTdfNHAczV+t44KV+P3Iw40YJfuPTRZWTJyhMyFmb+hFgG9EIw1eBEqkAE/07iCxj9Qq3Xg7tNV4LcRKZ/H8k6lylD7vEY2P/6oXI96J6fW1UkctS+48tXtGy20gtX4I2xQqwQL1UbjjbXFZF1JqfyuokRu3VotY046Fdk9OLi5Fq49ujEgGENhtMpdbdg7FQh29DX+wQH8Jv1HG5uOyyLk8y567Ek5DM1sJjTC3AmHH2uRW5AfJ9d6kTPit1A0/lyNRseLSdUYBTxXDUwzT8NUu9/xx0kJJpe2jDSCmBLsscxjNU4bK4CBjh7wX3lZ0PgHjhX1z52ywI/MjTi0WdP458+frxq/FSlhUI7/exySYRy9K5ozaVn8yBOyP7jeTKj4pQx+Y65vNNzsHjCG1z+P0aOrmquLe9hiXeixaIJ2X19VIi8gF3vkgbNkxITJ+kCZKMhVhRuYNem0YAlT2jnp438cmT8MFA7d+Xo0HQV1UneA34E6Yl+wJuLFZZJpaZUVzz4jH2/cLh+FUlUMX38CCfDW10WrWhbU03qDMYk90vz1GwyWLVzegHn/8zWtshS9CCbMmS1NLXB9RX79doA/MYX+fa3UCXApR5zD4AN+TA59eBqyoP3Fi2DmE1m88FkZXVsjR6B8bwJ5mgb8ZCL6o+d1gH4hBffZ9GoaIkGczKwiJq8gIrtxzBjZ58CDUYXPmXxZw4A2WxUarHoDzwsaf6Fu2R6Na3cafz7g540SrHPBtqOo2b16+XJpQu3+00ZUSGxbnY6jQ+MnM3BNemJRTEyhxL2YFcyEE7YZoXOjFRU6F8Pa9QbSE4496QSUroYwA8adQiATy1fHLPKXNNCH7Qz8uT5+300SfPw9WqYDflJ3gJ9mIFqHWeWuGe+lZRXStHaNDH9+oVw5epgcBvdwOayovKa6wQrYx5+t2BftYe6NNKx59WhD/VTVSPnk1loZe+jRUjEsKWm4vhgHR/N+m1azY2E7F8MzeDV+TmY0QyxHSOBPQctpQxnGFx55TI6HmXN0M3x+BMgIG/3VScbnl/M1f7rvChio1exr/Cac0JyZRDnS9SUJeQTFWA6FObN02EhpxgJNpZh3GsUvgA4xuDoyTHHAQ6SDxj9Q0zYg9+muxm/pOHFovxkEvjazih00/+cffVTmwR++Txr+TPzwxTXv9gCBnypEhytgQB4uuomnxGTHlWsFU2sdRgsnl7SUFMujTfUy6uBpMhYNV9qQs882vG3oQKZCvfIFNiMJwD+Q8ziQ9+oO8DuNn2sB4I990Y49MaK0RJYip/9C2MovhyBQunkthOUITakcDuTDdOdepunrpmHgars0wqS/umqs3LRlizw9ebJMPgyur+3VcAdzDxAZub/59LQgu7+Z+cOgvsGr8TNNgQ+FiEY8FYI3krICwRuZVW/KEWUlUtzYlO07ns984/s8jRnyvT8EgFwGZ/Ptf67BiPTVwx/TBvPkgrpaKZo5Rfbbdz+pb2BFQs43Qd75Ls0nZWGoQePvzi4q/GO7D/xOa4lraY2MtGBfxCEEr1nxurQseVWOqqiS0oZ6pIA6RsACUO7lBOn+WPc9obKNSseI6GsWJmllcZ6SKnmpvUk2lhbJYWhAUlPD6pUowqKdOQn1EfBHeyRo/D2hfuGf0x3g19VNTR7afgzCL1d+EeqiNG9B8ypUfP3K/2fvOwDkuqqzz+60ne2rXfVuSbZkNavYkixLsg0uuFEDJrSEhACpf8KPTXMCKaTAbwKEAElIQgBjE8DGGDewZKvLkmxLlmT1smqrlbaX2Z2d2f2/79x7Z96OdrWz2i7PyOst8+bNm3fvOd8532nFZXJ9a5MUogy8U7WXBQdXOjeYxkBXWJEo4bPg34p9H4VX70OS4vcxnvobkXq5dvUt0gwFEINxz3JW9fBBc7eju4/iJMLGIxz48QE0oQ0WHD9UHENosGwdmErkb4nIbsTzFmOlprCFJ5x+Ni1xHr4melhw925xj8HX7zvfu5BdbaDUhY74QrI3HpUz+DwzkbUcCuUZxcbV113MmJU9k+Om8BTbUyaG9GSy+vt9HQf7hL0Ffu2lhX3hI7WJHJAo5nL7sjGoBxm/eza/KMUNdbIY9L9Ph1mBFqdHwOxgAqYL/A/yh7yUx+8qDpQByy6QkxgusBktehetXCLB3DyU5XEKgfHutT6BJXya8syMfjudIEP1D/KKDvzb9Qb4TXsL4/H7WNLGEJBOpyuT/RvWyfKGWnmgdIzMqoTXT2zwxPjVfrbhYe2NP/AfzRjfSXvcvKPz9O1zFNUILqYVVQpnwkXyQNVpqZo1V4rHj9XkcO1YaQLBBuiV6jdh8QTVPzKz+m2M33r8zGpnC88YaM0CNLupPnJUWuH5L8gJIGsTyRugNrio3oXjbWEgwCURuecGKu7vVXBezyp1jXmV9UhCeQ7JGTOWLJax46ZIQ329+MFFkdrxMcxhr1sVtscI8AJ/Jqt/EKR0gN+it8BPDdFO8NPcl3bkiqBgr8Un+aDCa5uqZd/2jfJWZL8XwTCIw5BUyLSuRNLwdbtrgD+cPb2TP2/CoZMJkrT6LzsMmQjJ5sgFyZ46QWbOuVYaUbfvg0GjUs3Ww/QDPMBP5M94/IOzhoP9Lr0BfspEltLihill97oA9CgRMg95Ia9v2yB/DPr/95EI62+KJJL8LGoqCA8W6Lv7mMAKDzjwOlRWsN1ZocD+tGdRmfBdVCZsDhfIjBW3SEVzHZL4TCzfC/rZqPvTXDhMsXPJfbkFuSOwjp+WC8GelgxclSx+sI4AvH8qPSwobs6RXa9Kx/kLMj9UIOHWCMwCxADxnJlBbuh8WkfarNGEyNH+NtnhrD8zO5OKzCYZ2uvg4rAkwyUdBgN5Uo/N+GpzvWTNvEquWjAf8ZpmMBpYMDIbHMjj6UjmvH9H9Xfy+DMNfAZbH/X7+/UW+Lk/3ExqM6USCW9RZvG2oZtfjlQc3S+RIydkAUC0GJm9bIDFyndmjbh/2tNfP4l31/b7R0uc0CTxsZcAOQjzMyurY7gIHbgTz4N3XyobIqelOi8k89GXvwMCw3htXI1hGsL4FDbvJ1szFcl8ZDz+gVu1oT1zb4DfEKMmNIohFro1aPCyKiYPne5qqi5II7DiofHj5La6ZimC7lW9jM3IrYT+V+YxiB6/XireUjvy4QtYbpw9slgUGOz7poJC+VEkKt+GwTJlwVJQ/qXS1AEmj9Sdjenzsxtm3MqylQ1N7sNsm/IT5VrW9+yzz46UOn6vx2/iGJrlb2lwJjUEEfd4deMmGY06zQUA1EArvGataDTgb7ozW+C1KB/EHwaiq5/LUOZ37SmABXEjUdvosOBvMcQpY+Fi2YWNdz7HJwtXrZamFlQmQAOStmSSVgcWLNmYBM2L6NVoNqo5SQwxH6X6X1grn85Q/UOrnfrh3XsN/ARtlQMTw1cY5Q8wCGIwHvMxmezYkSNSe+yUrEK8Pw8JsD7EA2EyKxVq9qmBYFMzMvDg73wTbSlqNay2qWZlC8E7u0iO4xoPB9tkNkA/DKMlCywe6fw2lLvSkzPmPj87Md9ys/RwrD7wlvNlsvr7YWMO8Sl6B/zWjKVR7JqfAf0ZB+dcmNKiIjl55JDEDh2Rh4tK5YbGWh1lTeAn8AaGAPgpdgr0arwyZ8diBMCrFX9rzvPLS/58+QcM45Frp0vpxOkSa8aRLNlTo9fIP9ky5f/oHNN2QU0fn+eg7kKECLzAX1g0Enr1k7LB56QFlJBz8B8a11O6D8CfHULNZovs3LZJJiM7aDbozkCMjX1IdxglpzfWMIWqNPzW47cGnm5vLy1/ufvdqz4V6LmhzDppHT6vpTkcll24vnP4DHOWXieBgmJpqmuUApQmdmhSiqnbZ4OSZAzHWLKayEHjgTH+YgD/urWSofovd7WGz+t6C/yJ/ZrYcMm21UxuomGcBcHfv3uX5GGQxwp/rhRC+SEbwNb2Uz2YiLmRkIGPa3rYTCOTKpemBj8YzJKDQP/9qN2fs3SJ+JDRz6QdE7fEFTKTEVn9ep3KAhL4IUDq9ZicZlPOh/G9to4/A/zDZ39f7pWkA/xmT3Beg9nF3E8+ndaI7YHkT4J+Djx+OkvBXCSFv7ZbZpw8Iw+MKpWlTc0Y8Y6xdnwlQZckEiWDmGrsiIF9WKA30mgf+KUJzmFdvl92okPfF880i2/2TIxpnyE1F9CalwmurNfHBdJo4WemLGiJKj4E6X5+EAI/S30LkBR4ovzEyPX4EyvgAjF6pxi/zJYAPnQUmfHH9rwuuRhyM9tfILmYY5+djWx/u5AJ5aYUUJLqd+vb0zp7DYPu/CNjfXnCC3gjhFvQJzqoRGsN4q672pulIhiQedcvkSx0H2xBkmIYMdoQPlcMnk0b20/qeexi8neb3a+1qngTti11Hv//zXj8Ayucg3D23gK/TtdTjz8Jp+o5MKMZG7AV9H4HkvvaWQf/+quSf65GlmLYTRHAlGySkRzngyd/czLQlRGcuv+98pJ6vPvdKydONlin7+qo+c4x9Ks4AgP+OEB/7Ny5UlZaJhHMH/Ajy58MBo0YAjvlwZknBvjtr2rUE/jbOzXwyQD/IGzcAX6LSwF/veZDsdLD8kcWqV37Xrc/Cfyq+7mPfG1SAp175pX9MrGiQj5ZNlaWIBG2DOXhhBXvPlZDwAPG3icdppiEwl7cBHu8Vz5cLN/s7Q7BnC1pLgnLOmDFP1Y2SMe4iTIdDFgNrpOT9/wEd4hwjDNs6AFbYcpGtZtL6tOQOA1ihPgKSPWXG6r/mWefkRHh8bvGJVZTdXJLyOhQ+jUuAoXHBI7GpgbZjZa+o9HoYxHKN0KttdICQ4CHYniZjS1evFZehdfdMvZkGBj1mXwwZqPxIyxSMCtP/MEC2dJ6QSowiGf6dQsRtzQjJBmH8qGEicl7XMg4LTpL3ijgq2dmPBoqOG1SQeAvhcf/67XyqQcfkIceekgt2wBanHoblfRiS2YOHcI7cLkNfJxC07imUW/4Ip3ll2Y29NC8mGYpx2Cr/At1srKwBLR/FHFPJMzZCL95nTE2vWdJ3c9d7f/uAN97K1ONgCwkWDEcoTFNJOi+0dwqhxDeGj/vGhlVNkayGJZAMh9DAJQJGjjq0UPB67Aqa/RkMQ+GEk2FrtY2gT+c8fiHcB/391v3BPzUdw4j3HcnSzQI2O8iKRvQr5AFH2QiJwtZ8vsPSc4ZeP4Imd6M0tc85AKw+60TBK/H35UhrPKRJjOQkAH7g5O1ZKMedN/EG7cCzNqg13+FXLWHMXsjhGFtkydcgxLvFiTz4QuJCPycPlL5AHbn8av9T4iwZX20YpQtY69+Uv0W+H/17K+kqHik9Oqn5eXROiaWSfofCUvg74O8e/him89wMKzdzLZv3iIFTbWyGPX+IVg97cxsxnf29Xc33QwsSf7uPJLuNm+qx9PdcVb1JtRqHFZpFUqtdkcbpTWYJ4tXrJJGXHscYB9iOVI7Ip3altcAezsnj7mojXo75jcH/PR02gn86F++9jcA/ozH39/6ZtDP11uPv/s9yjwY7A/YjgROWvwsgM0HwO7fuUviFedlHgzL8Zoc6NgpN6Y3aVenGgCpRoB7/1SHpysHyPs3npdymg0jvR5G7+5IROpxbbOXLJDcvEJpa4TyhfHbiuuPgNkPQW4DkPE2yAlbsRrgN3k/2sNAlR2fuxj4My17B30b9/sbXgr4G9l/H0akhkBpFFqkJtjz744lZUmfevPYLvFguzTB6M1BDsDY4gI5vO+ARA6flE9imt9H4CCWIoTKvBPOT9GdZgXBppCYz+fxEt3f03EKE6+1TILDNF4X928TcKJi7Bj5UXWtPBGNyqjZc6Rs0jRpaKSR3IZIF00DlrUjfT07D0ZxFPgHRpsVb8Y1NMDPEDgVAP7gqH4H/E8/+/QI9Pi924o3Cx+XKQ0BTX801AdXOACl0g7FVr53HxTdaRkPD3sCRvr66hsll1P+cDiVj66hzfJXJ4kKya5rJyrGrr95l4RPZSOj9hWWF2LWNH10RiNbkXRYg51xAT+fxtFNHKE4Z572G+BRLNtjjoLmOYMWMKBPZYbNDBcm2zZhMNdis1XtTtOsfgK/JvdlPP5+1ziDfML+8PiVyqQSpIfM+B42uibAoSc0x/fy+dNHj0ktkpumYgdOQiJsAdgjX5wKBcrFs7/dPre5sKr/uP+9zBh/1oxk/av5ySkgZ1LzrMzcN89i36NfRS0o/CoI3jGMnO6AtzV78VzsdbQeRevtXM4Vx5u1QW+1QPsS+PkZ2NpahTXh8RP8metjPH71BTIe/yDv2oF/u55i/F6GM9XjTwC/skYGFONsgw6evEPnX8AgLghLbfk5JPydkDsbm+RtJUVyDfZUXlWNMsTOADZ73BiaGmbyyENXxu7Fd8YFgN0ZjU7n2KBYMCgXigpkB7oM/qD8tOwNhaUUoF8ycaI0gqXLhrzo3J3sNi3x7sAvrT5M5GNZYof5HJqt40J/KmhGUmkEkep3MX5S/UVIcnSdP9NZQchZgk9M5/gej3HU9IMPPigPP/ywDtaora1N0NWqfC6RYWGaLhgLhw+rE3RJmATnQ0zzXNV5Ob5njxRhLvcsZDpPRBvcXBxeV8+moLDsGIPndwv8zKp0C5m6oE75uVgQkytMhTStKypdUEiw2kJ0ueCRnwDV+iq8+ibE86+aO0eKJ01E2CGCVqqsRNDpyWqGYjsqpakfh1S+grye0v7P3EqX1c/3YaaqxviR3PfgAw9mqP4ed9vwPiAB/L0Yy5tKaepMehUJowiMtjMKhmU93FB54Vw5e6ZCKk+dlABkY7Y/T8Zi+4ZANLbDmNTwGV7jcmC8QG9A3ZihSYB3JrIp00saB0mZZN5KFvpsNCOh9QKAfA8krxL795qrr5bpU6ZIVOlYlq8yVdm1HjVK13ldJnbpzHKTGsgaZx/YC6/CZ1b/xo0bVZdkxvIO7z2fztWlQ/U7St/F+hULvFBFnWqB30vNxzV5VKQwv0AimPtyGB0vp9dUy3vhJN6HEMIYGAftSPyj96xDoLDDVSXjSxPqkxju/O3knu304ZiwbYZg0xAGAoCFw24O5EoUGfYns2Pyn80ReQSMQ2DyJJkzZRoofLSshjySuaBQaVobwCkbMqKGvTLBtEDIZphqN7LC/LkDMkaWmE8z5ycfLXu9yX3FRcUjGPgt6Gv2ol0BfjN18kY9teHmhEHnZCF+c3L/Pqk5cVoK8PdxwNwJOLAQbpwEzuQAACAASURBVARhm4to4Jev0tunqs0oniT8ew0Bl5XMxOIOJFVk0STDorTCoqwAlXQOCqwSry+ePFmmXj3LlCvRy+fit6LPAKw47SmdsCl1u5rtQYNCgb/zdbhubXyyU8vejMefjg4Z1sf05PG7i/fmb7ifOw+ccXCpms7sLw96x6EI/FBsLVBq58+Xy7mDR6QMm3lK2AcGAJ3/MO2yA5P9SI8aNsoCOL4bUHdS4fYu/2JKilz1DH+mAU2PibRkC+LuZ+CZHENb7QoclFNWIvPmo5oFypXXwQmDiYfLlrKXrbpVZZqVCjp2zL6TMWpU2VvnwHj8SeBPTe7zboDMkJ5hLQ6Ji0vH43cHp3r8npPYaq5klzs+5wwG6lKOes4DA1t94oxUHzggV+P3u0eF5IagT6ZVt0gRKOIYeOIYQdXKE7vEsjrMGMGmONzCsZEI1eNMPTfOnOlBEZcWvL4GtflHgU3PVVfJC5FmOQUDdsqixVJQWAzAR/WNNUocic8WxGxO5OAiwWAQ+MkMk94HGCnw0yK2Rgk9+3x07uuU1X8lePxOTyhsOgVBXcEkOXzFcKNzGLCJtUocPZrPHDsm9ReaZAw8jvHwzgvgeYfpOaiiYRMRJNnBOzKAbD0nLKPrCaBLizclFRnDi2L4OY4b3gRqnsMRK+HVVAD8i0pLZeI1s8SPWmTS8vEIEu+guEjVMBM1SvC2acmqXNUwIHfgTA310/QaDLFkrFinsDLAPzIUV7pX2V/A77GHrSIyRqTzn108nCFAwVjrFvT9rjp+VOpP1koB2uJi8K2U5hagCgWVMmz6wzbY+M54ovHp3cMAv+sCwCQjNuGJsZU+hMWHNKl2jBO70BaRKiQYnYNMRHODcvX8a2V02QQkF8ZQzdKinoeJ0yaNDH0HS9939vidv2Vl0wJ/xuNPd5eNvON6ivHTeOyJtk7KhOWsVCCYFwBPHvuvDViQB2M4B2GoNgB1pC0qNeVHpe30aZmExNN7AP7zwoVSjATUYlDDuQjLZiOROoSEu7xoMoyVlAzuX+ADDIkWhLDi6M4aA840wUhowN8rIScv1ZyX9ZCVU8CHIJjgyTNmah+BhoZGtG1HNQ4TuC1rQSxTNs/qf+OLGoe3g8BvTQ9lvvGflvPa116RwJ+6jelxJKl60oe8Q/QSUAIBxRTUsUxxaQatc+FcpVyobZBITb2gO76UIAu6DPX/ZVBShe2IndjseII2lzaIrxC+IqDwmxh/xCapgoFwAd5RPd5YY5IF+VI2YZyMHT9e8pCo1IIEjSgT+JC+HISZ6GODHsbycS0tzDjFa7LZmYxOi9Kzpqt6glBlyED9qAzwjzyV1bsr7i/gT31Xnpdgb3ph0BMgWiKOTkMTSaU5mAoZhGKrr6+VqopKqce4z8Zz56HcREahG2CxP0cKAcqlMJzDUDQ+xODZSc95+T6ci8ZvBHLTiO+12LPN2OMXoMSqsO8DhUWIo+bIxEljJa8kF6QYDAA0H2/Hc5pfoy1WLSnhmIlub50zOywLkZLUxc+aofp7t++G+9GX4/Ff6jN5nSdXMWVYJJOdRWcuG85iCZyzWHODnK84J9WVtRJECHoS9vV1oMlnIxl1KrzyKS3NMgH4EORkTBgRccoFTqWt1YEhjZC3CuR5Hc7JlyM4/yGUH+6AsVsF7Aghia94bIkUlo1GvgGBGu+t8wVI7dO5ZA8aA/Y0gjVDQIE/6fmb1rzMWeObMhRsG715KhneFMBv1ILJaiaYqg9vGE8T69QkQGPp5RfmSROsq8a6emlG3+am2mqpqzyPWD+6nuEozf6n1WZZEzpIfpyP8Rn2TuaZQiG/+ItKJFRSKuHCsBSXFIPCN5OUeIDjDUL4NQjQ5wLFoIHZjISLzOQrxXa+kdJCHC5hlKBaqfbzJH7KePzDXU9d9vUNFPAbiXBUuYsLGnpc9x6UmW4/lM/5kQAYj7ZKfVW1RJAIG0NJUW3lBelAXgqN4xzKgAJ1MkSFSeDIDkBbVDyn2foQlPziYglBQeaPGoNEolFguALoKwDGDclImn9jhNPsbw1nefZ7ou1oqhWQlAhzk6ksDV2b8fgve9sN+xem4/F7w1/pfCAv+Ds+VSuplD42MfMYOqnmBMISRuioLUrGFhP+GqolCtloOVshQVDxo3F0IV6SA+D340tLBxWDsaeRqxPBydFvTyrw1YivoonjJQAmGCU2EizMhzzgvcAuhOgUgmlgqJiNtfUMrAFnYI3GrQqomTbIDq78VdtXW4/fUN1JIXrTefyO0XR+gSY98OYw9mHpDx1dCOqSXZxymemP2EmQdDxudBusuFYovlYseisWug3xxxgX0zZIyMKxuSj7YCtRZRDwRY+nAzMCWGrEWvwYOgjGMW2PCN4OZUoLjh4/aRxeRxssNMb7TVyS9CYtEpO0ZDYh4zXGS3PxVbeZM1R/OmI9Mo8ZaOB3HH3cVoq4PJJslrpykA/jgth9PrBiOdjfbWwZTaqS2c84pg3JR1HE6COk57HPTTIrPQ74JaEAmIMw6NIQZApfnAoITyfaEsOxMAhQVRDVbps4lh4Vk6TIHtBj0Xc1BoAqMNJhrjOPid05E+GihVWlmAH+kbnh07zqgQB+NRutE6V+F/Ym2VcCv0/LXNkYB984I7oVFTHo9ucHM+ZHuKoFPTD4fCs8/SbkarVG26QFQ6Q4D4C4YqK2WZILGcpFo6AwurQGgQX5qCzzgUVmc7Y2GgXAGVZtBRm7Z9MtYIPfAr8y1XRSWcKqzmAymc8AvycHTEfV0wjwfKY3m8evSsRmQCYT/gzAmugOLSkeZR7en6mUtPZTMZk3srPHkYy3mNcx+YIuB9da24gYtsV4UgkP3nQdYwanMgBWt+m1YcE4VCERM7XPqQlgf854/GlqhyvgsMECfvWUCZYmGGiyYSkhmlVv3Abub42C4ld6MioP1EPmWc1RMTQpKwVpONhsZ41D4lw0JnAOTRAEBUBlZWL2/Gdi+fqubD8GoHeev76h8/hT5K+rJc4A/xWw8Xv4CAMF/AkMUEfL7k3rOGuSuOVcjY5GLj5lQg1NePdovGYAOBl3tyF148/ZYK2Zhsm5KizXpqyAOSDI697n6/mzOUY77av8kLM3mKXGdcL2dd5/Z+DX3vyW6k8YM2824Hcev942e8NUlSmdqJCuqstLpCc2gF25TjSQxmqModBVW0hnDJCKUeXINYPpmM3JgZwoyCl71iBQ74h4r548F9tYh4lrUbA3m5ALqZmaluz3XmMmue/KVHYDCfzeO6YZv1Q6bBylhqul2hX43ZH2B6X0zcNLpyrV7yhIfdZqzORGTRjAiSmTegyZLGPwmoepEzCvT1jFSS8/4/FfmZu9F59qoIHf7m5j5bq93mk7pzBOitNGKpwM8De2UFdWGT8TD7KtweyOS8UR5smYeL3x6imPdDtV6xMD+C54jsyDI73M+2U8/m63jy6V/Z/51rmMI2kAXHwK50W4Z7zxQy6e84o6Z10S9EFj0mHRDYRFBG0Tp6LjQrIrn4YaDPAr2OsvdKNoXpqdZuoxcR6cg418TG/y5CND9fdCY4ywQwcS+J1BrEoI/1g+pwpHvXVj2LrEIWOIdv/wMmHOCHWv98qMM4rdeRNsggI/tSOPNsBvUpcs6a9yYY0Ak/3qDr7oojIe/wjb5JdxuQMN/A4rDEPsdHPyxy6xwnr1qsN5qMoS2YCumWLXNjjVeDbOIk5G45thBiYYuutQ0TClg8pAkDHT0HVn4GdWgG1cnQxfvBk9fr1vVGTWgDM6JNV7TrHiPBvyUokiqWyA99hkXXCyVaT+zXpWnVOYPMDvlJzuIKP/3PCVjMd/GZpihL5kIIHfe0v0fVxc3MNoDfRt072c8PitgnUEXCeP3yg8YwlruYsVjIuvMAP8A71qQ3/+gQb+vn5CbymhFw9c+V3nWQEXv5u3nwQr/o2RnvT4HfBrFCyR1Z+M8WdnYvx9XcLOr3ceS3dndc97PSBj9TlvymZjssGIejFWiXndL4PyHivFAL8NL1301hmPv3/XeDidbTCBP7Wv+aWM3f65R3aPK4jbJBxv5O3inZ428Hvzcfg5Mg18+mfFhstZhjPwp2JEkhFO3r1umwp5bnCiSY8CvzF0UyNfCvzKH6dQ/Yn8tWQ4zoXi+BZvinK+/tisl1KCzrrzWnFe4Dev5ZjIJPWjiVQ2Sz+J6M7jZxvVFODnnzIx/v5YyhF1jgTw97Flb08fOtVLZpLqQAF/MhTA3BVm6zPnhVS/C6ImXP7kZSe5V2itS1P93mEs6iilAH+mZW9Pu2H4Pz+cgd8Bq3cKYGpS+KWec3ffAT/qBi4CfjbGMj04LPCzmY/mBTCXgOHg5HwMJ8fe0AL/lpeb0rIX5bY9NT3y7oxh16t/sLet1+Pu/r1daYXmNxnPJeHCu5+9cdQuqMxu2M2Mxz/YKz5479eTx+8USndeRbrg7QX+nlity/n0qeGwZE6Ly1LyeP9dJfR53zSN5L5Uw5se/6ZNm7RXf2rL3q5Dc8mkrsv5vJnXDOwdGO7Anx4mpHePUkO7asx68l7dWWx6uEkS7+bhZFs9/ny07D1xQr8/++yzI39IT3q3c7CPSlmMBLVPBeOSmByyd6F0LqGHMsA/2Gs5eO+XAH544Cwrfemll+Tuu++W1atXa43wpYC/N1fpBf7eWP3pvod3j5JN8A5O0XMw7OW0GZJehY1LvADvtZPTeFOv8eI8fgf8mbG8adzAYX7IcAf+/rx9yRqa5FkvgoOu4CXlIrx5A5TBggJM5/MAf2FhYcbj783CpWfdpXr8fAeXmeyA35upnPH4e7MGV+qxbyqPX+uOmffCeL+tW3ZNezIe/5W6xS/rcw134O8JE7yVLz3dgPQ9/m7TwBJvkfH4e7rbg/K818Pnz91nKl/qcjIe/6As1pC8yVB4/OmGB3pzQ7x7tKuwhCll9dD+po71ktn76b5/qsefofrTvXPD97jhDvzD9c559UnG4x/yVbo8wHeXnQH+IV/AAbuANw/we25h38ThorXIAP+Abc8hO3EG+C/v1meA//LuWz+/KlXDXZ7GywB/Py/LMDrdmwf4vR6/XYCMxz+MduLwupQM8F/eemSAv4f7dnkQnDxpX1/fm2XNAH9v7tbIOvbNA/wDty4Zj3/g7u1QnXm4AX9f9H1fXtvb+58B/pQ7dlFc09OP/FKtfDufxnUe6yodwxw50PHTGKZDlZSUyNq1a+WBBx6Qhx56CFOf2iSACVAD8d693XiZ43t3B4YK+L1X6W020rurT5EOnR5m5lyknjO1zrkv75P62gzw9+fdHB7nGkrg7ypxL9l5wrWGpbJXjZ8qBKaCxT3YntdijTfrfqDucgb4PXe2uwxMMzgn/ZQ713BBK5O6qKUcKOWW8fgHSkyG/rxDBfypdfBJPXV59e0O7FOBP50OZn1dhQzw9/UODr/XDzbwe3XsRQBt9b2TjARmdDVJUru1Eh8strgmbp7+/nwvPgYCL96UwK+Uig0ldvJoPJ64W1Qeq5VF2gvZNt2x08cMNeOW2TZTtCN3XTc+N1+sK++jvxc0A/zDTzH11xUNFfCrr2L3uw4KQQ8BN7jHawQ4JZWqrFKnjjlF1pPHb2TUTCAz6tEa3n2I92eAv7924/A5z0ADfypWeB1AL3Oa0L2KCebLjKlWATLOvefFib4bnKjHQ9htL2EGdGaEB4KhfVMBv3riVnEk4imeBfGSMcFgEKMU46DHYwB+A98+tNqNY5Y4F9GN2nWKTtdX++6bZvocj2gG8Zn+yqkg33UpU1c1/ulHfjLAP3wUUn9fSUJQY2jgg3nfroHPqlWremzg0xN16JST7mEqLDtFTJUq9rt7vd/PdtPZGjLS/cvW0yoPSc/EGQcG4DFjHNfLsBOP4Ws5q9w9fD6//sjXUNYSD1bvWbhXs1o9KWt8e26sM97T5R4ywN/fu3Loz3cp4G9oaNDQpnv01tFKGp9mPyb2oZUT5wl6DWPKA/9BUnSKKkeyGqzoZL7qqN0YRvXGYm2SEwgKwMWMwO5igp9et5dNML8a2XEfrpcG8ZsK+BP3iDfMKhM3415pF505DqDGAnB+Mu+uYje+B7GBaAwE/IEEiFOhRaPomsZ/WLAAnifIo/s+PCO/tEaj0toWlWi8LeE1GeXppifZZeuE7V7zI12VZj5ZBviHXhEN1BUMmscPQM/OTk6Q1L7eZncl4vI6LM/u8ZycHChXf8I44JHc91SAfI0fckBDxQE/X9nS0gLjIaqvaYPi47GhUCgxCliNZlVq9PidguP7q6QZtdsVfdrDzc8A/0DtzqE7bzoef186UCY8fu463XrGiVNjV+fh0teDzNjR7tyffshDTiCkep4YkcAdL/1LvCGDRtsA/1ohBy1trTq+lxSADzKowO72uZU5Y6R7AF8P6v39fxMCP7wYLJIZcw9lQgvL3mzVNgB/rilUHxQagB6WGI2BhoYaaag7L+cv1EskQq+r3Xoz3AhmV/BcXAV6NkV5WVJQVCKFxSUSyikwC4mn4zh5HF6QsgJkCOzDLIRZ1IQd0EvllgH+3gvASHnFQAN/wrvhDYE2UuJRR37Bf6F8oIOeD/vRH8iG8cthIXFpaq6S02dPQibQepcypeOt8QwUYVxZMaMslWXD6ykC6AYqpaWlMrpssuQE82EEtEpLa4tkIYTgQmn6Gu3ax7NxaiX/A2uASSTqRekUP8Oo9UbnZYB/pOz29K9zoIFfe6hi/7fTWdP9babbGy+f7Jhfcn0B8eM5evotLRGprauV+rpqaWhswd6mMwlZogy5zari5INzqI6+jCoqkCLgRPGoMuBKEM4kmAA4nu1kj/meHLxjJ/NlEbOUuTYWQAeeU2O4EwXQs1S8qYCfC5MN5dGu7T95U425pJ4FFxeehx8rEQ5jRdA2tOpCsxw/ekLqmqrgzWdLTrhdcguiUjoGCqxIJOTPxmSjsKFocK5Ye1Rqa2JSXytSfcEnba0BbIQOiTTFZEzZeJk4aaqUlBZoGKC1FUwALbyOmF6GHwvOzUBayCxKV+17Ly0QGeBPX2GMtCN7ovo7G5BG8N1r0qP6jTuiccZQHB5Ii7S3gemCx57jz4Fi80kQ+7O+LiavvbYbLNYFKZ2QL+HCDrlqRkxWLmyXOTPHyqSpYySY0ybBUEx8wXZpiGRLeXlEDh+slGOHY7J9a0BaIz6pqmyWxpqATJ85TyZMLpLcfJ9UN7RJY7RFQpC/LB+9KFxRLIzvMAqyYRyoVcyfTStfN5UsaT73LB+ZIT0jbef3vKZuCuPevXtl4cKFcv3112tFU1+pfpUIGLG0YFUuAODZ2JRRhLp8WUHgRIHE2zqktbFZzp89K6fOHMO+7cD+RUgLez+/uE3Kxgp64QtwIicZZsbebWqOSH19hzTUZsv5cz7Bthc4/XirsEyaME0mTSmVbL9hturqmiQnlKsMggAvuP/bOccCxjexROIh/B1hMwqEZgz0/HhTAb9+WGMnKejrCFDcPMFsQ19WANOJQlBsZ6Wisk7OnCmHpxOX0tG5MnNmvowbXyT5hQDmYDVe12QoHI1tOuoH40v1vEEsRi5iPPnSFs2WSHOHnDpRi/NF5WxFBEosRyZNmi4Txo2BMZEnTQ1N0oZQQD52R5ulhZIePxUcd19nCy7xfMr6ZoC/5w0/Uo9ICGo/jOVN7B8bm29nDBLGqzrmkAn4GxIBHZ+XUyQlmNiVFa+XE0dPyYH9h2Xa1Gy5bskUuekWv9x53xyZNBkhMGnCba3Gi+uwV1vxM7SYNOMriq88SFgxvhdCJZVB3kbDExJ54bldsu75etmxp1a2bG6UstISmX31TCkqHS31LTGE2lrhEcG30nmjZNPixk633L+yCHz0wuvPePwjdfd3f92X8vjr6+s1xu9G3140ECpVf5rtZPV6knlVA0BZKDqIcXXSENWVyvPVcmDfEYm21gPggzJpXJ5MnlYAljcH4A9c8Ddh79dAhSPUS/vB+OqWBmM4jcZArnTEc4A7bVJXG5EK4MTp041SU9UupaNGASsmyCjIRHvcB5mAPCmpbNgFCKbBnw5cDIA/CRUZjz+5tJZH5C0jhWkyKdtw01Db7guD2m+X4+Un5MSpE1IAOvLaORNl4hQCP5Yt3iLNEXjo1GnSihsMg4GjwC2dyU1BGlN1FNaC+G02kEgYscsQ4qBk91uaQ1J+PFsOvVEp1VUhmTBhvEyZPFFy84qkHtrQz4xp3RdYTLU0rfWWoHFccmLXgpAB/itPsblPNBAevzMAjEFMKtO8WzTajn2bC2+/Tc6dOie79+2XZdd3yEc/tlpWr2mVGVfn4KjjkItWGAh1EgoCqMF2BXwhKKgI3SSlMXk+Rjj17FBOvuywtESRMBvPktJcUGYwjhtas+X5p/LlF49XyJM/x2jQgkkyZ/ZUCYRKcG4IXCCC84D2FMRM4e2bRFvQm0w8ZOJUL5Y8A/y9uFkj5NCBSO5z6lZvgTOOoY/92G/U5+fOnZbDx8/A86+Wa2YVybRZfpk0kTH5bOBEBJ47vjqYw2LGrzG/kEyuF/jjEI4YGGYyBoicwaNHWDkI5zMvBAOgTY4fC0rFyQ45fKBacgtHy+xZE6WosBjyg9e0I0wAAOoA8MfpvBpvFmJHUEr1+rt2E69wj5/UoIkJGkvLePwE2Cio9iCSMPJyA6Aij8v+wwD8vBa5cc14mTyJQN2CBWyBEmyA1QY6nveU/1O7yoQJTKqRBgqUmnezxbUECR6UH8Adh4emlQAwLYKBPLxfvtI6R49WybadVJwhmX3NZJk6eToMA9BIrYbe0biQUZmJ60+MJ1cr72JXJwP8I0RbXcZl9hvwq0iY/WN2Lh42q55Jd2EYqcX5BVJ9vkJ27dkrs66OyIOfWyw331wgZaN58GlpbTkDmWjWsFg2FA0ZSBPPp3yY7HzVRTg5DVmjQM03mATSHuPrIBdt+M2fh5yBa+ERFcvu3SLf+PoO+cljzVKSVyY33XgDDIMaqY/CKA4UQo5cbJNGN+hXfA4F/jQzmjPAfxkbb5i/JB3g7ynU5T6iyzExe9cwue2oNuHfC/JgpNY3yaGD+6SyqlKuX14gs2YXSHEJHMO2OsTyI6q76QCycMWBfiKNq5M14STEygyxWsWG+xvMFgyFAPJfQlmlUlPplx07yuXI0TaEmEfJ/AWLJDenRKqrq5BQHhVfAKZ1OwxuhsAuWquuqsSsONrPd0WN5VUbp1MNsAF9/t2PlWHGfgAJGR3wTva8vhfUYr0sui4oc+aOxg1vQCZ+kxoGXDQmb2gmBalGnobsO5UnzqVlGjaxgol9TLPoQPyGlJCJR/IvfA1fiLVtj+H9cTpQBeFcn7TEx8rrbzTKKzvr4V3ly4qlCwH+QYnBqsvJpX3IeeRcPGdc0J4wnpljFLz4nwH+Ya6l+nB5/Qb8Cr5m//iYaMqfFfjh0aBiJRfhwu1bt8BIjcif/p+Z8sk/mQdG6oBEYyeRrQ/vHs9nQzOpUgSVr2yX1TgXEYzWEzHGhfnwWSofTOTTdGgVpmiM5yqANzUGMjJRtqwrkk//+Vo5cqRRZi+YLUWjJ0ltI2SWrhPL/hKZg+a8Kh0qJ90FwZLKLhPj78MmHIYv7Svwmx1j/m/q6CEXmuyNstUoq7GQfFdcCDa4XN44sE9mTAvJytUTJZRbD6ewBns3apP8XBmsrdlXGE9s+8Sd88qCQ2oyWSoXVObZqHKxLAPIaMga8miCZVJV0yEbtp+SkyfisnrlKikqKJb6xgsIDzP+D/YMMsmkWm025wkNu6RxY9S4/LHk9ysG+DvfbOPxG8i3iwvOnQl5DY3Vsuu1nTJpbEBWrimT3CJmY1aDLmFpHhSMn/FJY7npTePPpC9NWCXxnIV2HRtOQ0H3DH9RRYREQjL2TBzESWgoMKOfmdFUvy143pc3WprqA7J5Q41UnYnJwjmLEO8cj6SoGiR3WMMC12S8G9A8fHtDAnRaYF5QBviHoWbqp0vqL+DneSyJlEiOo8IIwCIlcK7fsEOWL8uTb/7LDJk/PyRNTXvw9xoYAlCL8O4RaoSM8Fh68zYBz8qJyog1ip1BQJvXeOVWC5pkff1dL0UpAcoJFC0uDHlTyC2Yht+vlr/7u4Pyxb8+KHPnzpPJM6ciHyYiQcqQWt54b1XWlnmzrN5Fxofn/mc8/n7ajMPoNH0Fft2HHgOVe5VfzKpnqaoAfXfueENaYhVy06p8mTunUJPtmprrlKL3IbyuedjI6lLDU7P3NaBvLGzXxce+R+r+dGLBlyKfNeHU8e/tCIllwSjwwfnMzglKezAkr22Py8tbq2XqhBly9cyZ0gZnkqFn438a49fYDeYCzO9GXr2PK5Lq18/trCZ8cD8ANA7LjFR9TiAsJ48flSMnDsnSpWGZNwfJS74WZDE3KLAzUE/Kxhe06G5XxrTtteS7NQT0KXo+VEKq6SyzoNYClaB1zbUW2tCrrNskZcl1ieOX5miH5IbDkhcukU0bquX1nW2yEIpuyrTpUl0TUTo0kEMLjefke8AggQKm8nV/cmuaAf5hpJH6+VL6C/ipIwjYfigUP9LyYlBsYSStnq84B/Zrt/zuRyfK175+HSj4QxJpPQXAb8W2RioRPW0ato5tsljuVAy/awKUB+O7vAVWrPQ5Z0CTticjp/XLrHjhecahMmChPPmriHz4d16U4uLpcvWsuSoD8XiDZlfHEEaDRKlcGaWnV9Htnc8Afz9vymFwur4Av0KEOlE2QRugnY2sfDadys8tVOZ327btUlDSJLfdXoq/RVCh1aw5XAFiBb90wxvj1ew+gr6zfu0Noj1A1a1OYRLcPTBlDkwRHjqNtCEUv/AcCsRQ+jcJ8f9WefE3lZIXHC9LlixH3D8C+YmqscIKMx/LbenA8rMpJJmqsyvb47cUfzbuWjtdcI2Vo6EIGoaQHjn0xmHES47LvfeNkcmTUUPcghRjJEkQXe2zdQAAIABJREFU1mOeG2RcEuuVuE5mtrOSM+K4b5RNsGmfptzCZEerglQvn95+UkK8bGQ7DmKSBrOoqfSKCsfIwb1Z8syvziFpZLrMmrlAKs82SLiAlQI0JpHcBCooywfwJwvAbUamwe0vt4HxPTOkZxhopX68hP4A/sTlcG+ikiXe3C5l48Jy/MweOXb0pPzlF66VP/uLcQBUBNuzLmjzHRMMoOKw8tAFrrrt7cl4sfCb8GeSGtChvQN+YyMnQlfqJCFDmYZAUxt6YeTMl1f3j5Z33/e8NDeMl6XLFqNMqxYhM9MfjQlNBH59XQb4+3HHjYxT9QX4ufO0pwu+O51OyGBIKY5Kq3UvbpTpM3LkrXcHEeaqhbzEJaDxXxJOhsXlg/suwQxzD3oB3NoAepwXB5xE8LWmOlXB3dTnO4FQ0TOhZbwva/ZjqCoIg9pvbSqS554+Ky1N+XLjiqUSQeZ5BCWCAbAUWUw0oOOp8sCeAyZM7a1uuKI8fkNjGvB1MX7eUMmKollIjhw/WC5H4enfe98EmTgxKk2g+/2w8HShcPMd8Hu3vDslO/Nxsdm2N+Gp8GVkAtj0h3yPBX6lXQzy43JMMxN3Hj2303T0VNqhvADm3EwtwHMm/1We9clzT9XJzKumy5RJs0AroW6UOQmkWH1INsk2tf9mQ5heZnraDPCPDG11GVfZV+D3di8jQ0UFU4jeFOcvHJF9R07Iv37varn/3SXwGo5jI6FvBWqI+Z4mcdVuNm5pz/5NbOOLPo8KnY2aauZLUhtqU5KkgawKyoqEntoqQv4xxsZZyPovCV0rew4Vy/vfs1Ei9ZNk0cLZuO5GsHL5hthjZrPKoInRpiped3mpHv+Pf/xjNOOKaNdAr/youoSi7UvHt8tY4sxLLuMO9AX4DW6bEKx64gx5BXKBAy2yfv1auXpugaxakyvVdZVqHDD/hQ6XkQEAv+5V/A8Y0gn4vZ/DgjqT7bVpnHXUHL7r9uV7WyHQdDAbJuD3pGyY8DH3OhtqZWeVwFIYJS+9cBq9Y3yycsVqhOXaYBjgWsAksyjXGCTJeP4V6PEnfAa1wvgB/fzAuAmtrJEvCqIRzxHUIR+Xt799IrKTa9FEpEny8mDZsWuCtffca73r5hRupxtoFZUBXJNprF4+F9X+TGpeFZGLuSQv0QP8+urEMTQQYNChnDBXzpSH5dfPVsmCa+bL6DGTpLGZddEsOsSiM/bPjmrcjk4Z6160lFXG478MFTK8X9In4LdBKjWMqWggG7lBv8SaL8j2V1+VryGe/+GPlEpz+y4UzbGjJJNKLSKrYuLPNnborMwUfDV3z+vqeA70An8XHr/7kyo/z4MMFz35RiT/FQfmyZ59ZfKue34jgawpMvfaxVJV32yanEDoOhiKsIFMJ49eg8Loaijv3FzZtGmTvO1tb5NHHnlE2wd3BfzpZoIP711z5V9dX4BfAZRJ2eyvj73BzpT039at3yRTZwTk9reNgt5F2V4LylsR7ud+0jxvBVOH2Gbb9crj9+psD/DznCDiEjlcXsjQd1dMMeV7ILBhpLA3Rqk889QpVMoUyw1Lb0CeGprC6UUyY8Yl+iWrzrwY4WZkFKCHzIkTKKVFz45nn30W3TULe2X0Qj9YzdJP+83Nj3/wwQfl4YcfVmGtra1NzJQ3qiZZf+zi+vy70iq8QwDJ6poK2bd/r9xyyySZPh2FSI1nBXrPeuE0ELjgphVj9w9XXGe8iqQPQ+AnAJsEC/dQq00X1Xg3eupUTcTz2E3AQzSmQ08HMaS8/CI5eSQgLzxbi7KmZbg+xD7ZMcoP1axtGk2EgaWDidNmgL+fdt7wO01fgN9tEDdAh5m8ISSvbly3XT7/xVKU65Uhnn8ISaeswTehSyo318k6yT92vi9defxmL9qk1E6A73ap83W6uMf2hAktgmZYbKKlGdZtucjPWYCE3LDcdP3zMnvmNUj4mylnq85LXkEujkMSlJM1fgj+54zwhIwZ4N+4caPqkh/96Ec64MgB//Bb9cwV9XQHegX8ihUezW3VMr3xGHRrOCcgO17ZKXnFHXL73cWQidOkAQgh5gEjgZUwVLyazM29TpuYnrlV89b29ABBEsi9BmkCJxQjzDG8Mv1yhoFXwBRjjCPpuv9qCBkN4fxZE+XJJ46ALR4vc+bMB0OMrpmBDpQYtiJHB6V+On/DlJtfGcCvN90qFFpDmvxmVqNNBToHcZOobH9lq8xdUCQ33JAvNTUnJARqhottSh+8zk1nl8N73x3QJvI5Ejhukva4KB2kfPRnV79sBva4TOoEQjvdZ4w482cH/PwZSiyCHs9jyybI+hfPy6H9PrnlxpXSDO8kC4kbGl7AizgHhcBvYpsZj78nJTGSn08Af9qd+7jvzNApBXF68mwMjr2Shzjgc8//Wu57V7E8+oP5ANXNiJlHYFSaOKMdD2INWZPUalRSTw8H7l4rt7OZnCwm7Pp8nWQOHj8LnDWFpgOtsWMhtEK9Wl54pkDuu+cFueHG+ZIdHmXi+yyJogHP8IQVCKPjk+WvzuPPAH9P6zhynu8V8DtUtluPrhxlI4bS7cK8PCk/cVLOXNgnv/XB6dLYdB4OGPpHMHPf6WjCC3FDgdome0OBszxbK7pI56f6jkympZHgcv4cqNtbnCAOLPB7PX6VHGfAWgl0eKWbXuP3BMEchKzC8sRPa9D8ah7mYIxBkyyEg7WqzHxYV+Z3ZQC/A1+H1zYooskS+OAFSIp7+ZXdEsytlnvuu0rqm45j0VpNRqZWXLjRB/ZEKfvdq7IUWO1hnVVZEvg7efz2mvRb6gvd7wrWxmJ0wK+X0BFAL3RYaYjnFxWMlccfO480hRJZej0amjSTyuHu4xRBY3kmY0QZqn/kqKzeXWnvPX5DzRtdB/BDrVAUXcLyYAwfP7EPOSPnQfOvBG2+G7JyAd602aYuBpmoYdETpAP63s/D16QCvvu953MlwF+ZOHg4SqYZkzvSgl4DuUvlb754TP7xH0/LW+5eJdWYjRFAnaEOwvIk0xhj3STbGuO6s8efSvV3+gQe76h3K5U5ejDvQK+A3+Pxq+ME5ov7gpP06murZfuOnfL294ySUeOaEAoGu8qEOi0yTepYnR9hPXTnsA2Ux58AfQf+Vp41t0sVP60Fhnw7pKS4TLa/3CavbK+TG5evRn8BI2c+doPFC9jT/8rx+HlDmN2eyHtg1BuLBXYwN+RHskO1bNq6Q9757jIpGd2Ikj2WJtnuX3rT2AvceEUEU57HZVVyUc0Ev2TWvMPw7jZ2YkP0rNsuOoWz/PSz2DeCnkaSVUhiLWPl0R+Vy2J0bRozZqI0NjZqAoe15cyUQdKrGap/MHXOoL6XNwuXwvzSSy/J3XffLatXr1a62jXtIK3nOki6jGWGodqY4JqDOH5NvWzevF5+9cwNcted5xA+OqHlQuw1oUyVQix2k2YuG6N0KB4JT8jz5ry2GLP420dJ1flrka+zT85iGNaCRQskUhXVKgT1/hXwCfacxIEmLDb4kEnuG4qVHNj37BXws/oDrreOwwUr1IrEziAK8UcVFcnaF56Rq9CKes1bSuRCTbm22U0knlrgTS3F6+0n6wkW+LzOnzLQZJmszqWApqKAfV08bAB79ePiQjlhTQpvbhwlC69bAvxDlj+602qXa+IYDRkPRozgGL+JJirroZ4Ns3uR2AePuQC18Wtf+rVcOz8ITxnZwS01CpbaqpSATpBnlr6jfXijcfO8wN+dx9/tgjvmwewZfXj+1OXLnHdj6EwXt+c6mnK9GJ4YVVImG9Y1y6F9IjevWo7SEpb2oX+5amWj1mzz1YRVlynn661YDu/je/L4LwZ+bihqB7Z9QskowD8/FwzYhu1y7zv98t3vzoQRvAMeAZNGzUMVDvabzginPGA/XkRdDvJt8gK5CW2xDTYmaAaXyJNPxeW3379Dlt1wO5gL5sbAg+OQADtRTUt0WSpLSteG3DLJfYO8gAP8dr0CfuvxG5o+KHF05htVFEKr6D2Ii5fLu35rokRiF2AUcB6LdQIpE/bnSwF/OjH+nm6FwwDt/2bl0etMaht+ez2unwabxbW35wAL0NkymCWNDaXy00fPovJlEcb8jgdDhuoXpSQufveRC/xqidFTsYkPpjuJhLJD2pCkouI1eft7J8Brqdd6/Q72y9VFdL6y8ZKVCqXXbBsvKLVjF9ubNd/TwvXleb0KXD5jPGbVGRiCkkNnphislBz/ePnF/1bIxHGzZOqU6RgGgbGpes2k/KmhuSMyVH9f1mA4v7a3Hr/Se6o82J8CzXoCOXKhshxDd16X9ZtXok/EMVD/Z+Dtc1a4yWbW4j1seJ8mEXVizYfm1lhK1VnRrHphDoJfMO66NQfe2mJ5z7v3y4YXm2UNmI/aumYYMlbJqW6gZ4TyV1V65gNlgH9olnKg3vVygF9j45iIF4CR6A/Uy7p1G+XmW0tk6lVo5NbaoInf3GvcMl5av68ef0/3IMFyWXB3TqH7rgnrlAnmEySMESbhcqQ7y9GjCvYv/uaclB8pkhtX3ojhb/WmtTxzwTwlql59MvKy+hMLYxJ4SONntwewoFmyccNvZMHCHLnuBh+GK9SjnzGaH1ian940HyaT0sTotVxpqIGfi+rZHaZcrx0liewXPUZ2bsmSXdvPyVvechdmOTcop8kuTcp4WHvBlJpkGvj0JGQj7fneAj8/H2l/f4gteJDFjwFRL65dJ3/8h3PkK18pQfLrJiTK0Ru2+bCJHWR4rmEB/HZPO+aNoS96OkECOjSz3z9JdmxbILesWYvEXST6ZRVqQiMNZs3eJruncq2pjRngH2mbPo3r7T3wm4Fp8VY/eruIHDxyAIl8x+V9vz0FfVRO6VRUZbush+wF+66y8tO4xLQP8QJ/Vy9yBQmdjrNOoqH+wRErnT9JfvB9hIYXLsFwIUz0QyjQD5zw9vBXUxhCPjJ79SuQO6qfZQ6ot/QXyumTh+X4qYPy2789Ch4C+u9rwxIaB6b+napOF1Etp6Rp50olXE5ytwvtNcW8K+Q0VE/8/qW2glVuml9AJoI1ykrBYq50xzj56Y/Pyowp82XM+DJYpxiSorwsEzh4tK6mKrgM1Z+2vA34gZdT5ZpaR95b4HfvyZG2QUygjLb4ZO/eF+WFtUtl/qwLGASF8j0YwyY5FJstkcTHXeRMyQG/NT2+gdcQ5ohfXpnrpt3engcP/za5eeVTcvhwAQZt3QQlDg8H49F0dDYFx5bhaBFuxuPv8X4P5gHeeHO679uVXNDAZd7L3r17ZeHChXL99ddLSUkJOjw2aOl34jU2JKrQj6E2HDu9fsNWWXVLgUyb3oLcqQZNctWR0s6RsqyTKwhI9zr75bhUl9+d1F2TEw4PC4CiHylAW98tGyNy7HBMViy7AbF+dK6lE8ASBc9jBAN/kuontclpSiWFZbJly3qZfFW1rFpdhN7KGKYAcIwjy1G9YfXyYQDYjHgdfmO77A0Lj99SrAR+Le0gluOLcf2iorGy8YVGOX0iIDetXiUXMJrRH2BiBxKeSFrY2GbG4+8XsevXkzgl507qkvBSrfDu3rS3wO9qdxkSKi7Nly2bt2K0bo488bMZEou8rE16sjiYh4alSx9O7Lbh4/F7Y/z8mVEtqi8a5/EoWlgHZ8jWTYVy5+1vyPLl10sL2vyy3zofWnOtM4MRMqMcZYC/X/f0QJzscuQibeCn88cqEeyDPOS7VFacwQTIPXLfOydAj543OBFFkqil0rUXi7WJvV52X/y6S92ztDx+XpIH+LnV1YElS8HtjmRFX6BYTp8JyC8fPy03rVipZe3NkWb0KQirAeB0zggHfvOhqRiDCM401tfJKyjhe99vF8Fyq0RPckQEacEh1mdiNi4b3lD9vItkArxd9vhn/XI3OHW1vJaYDRvowf3k8ZvrMm+q3+ziIntBaqsL5Nmn62XpkusQh2JfZrwt2vmazUivP+PxD4RC6ss5vZ5NMzowcuqXltlACNk5jj/TGvdm3fbF4/deK8EyP79Ndm/fKF/56nT5rfcjNNR+SL0aVWrM3hshHr9rfa0kFw1jJiL686S+ep4sv34bvLvZMPivktqmRpV5Delp/g/vSMbj78seHojXkmbm3l+/fr1SzqxQ4e9RgC8HzoQwjc4rE7qKKWWWvab6qSOzMJ4K2e7bXt4iEybGZc3NfmmJoDGcJoayoiU5BXWg4/qXdV9TPH4HR5T1mIa3spHhz17+kIP2a2T2XA58q4Z8eFtTm3ywEUr1OyBHZ2IsWGFxnhw5uE9qao+jhG8cyjUq4AWHkKyBBB/W+CnVbxp8GKsJH575gGoxJQc19Aj8Xjck2aLP1v/h7vdDCVTCtnD2BC4qjkXNDU2WR35QLuPGTJEZ1yxEDXMtepbD62cUMxHGyFD9lyVQA/QiArxTWl/96ldl3759wm6U11xzjQofjQFSkgR/r8fjZQncz8676amcT/c3/NxAMCBnT++VjtZ6efXVO8QfXg85uGCMYGW93HBbl1U6vKh+Z/xaGz0x5cyRE2qzyDx56DNt8r3vVcn1N94gNfVNMAjQqxylf2TDjONvcl8yyX0DtMkv47SuMys7KH7uc5+T++67T97//vcrVU95YLjSyY3XS02VC/5Og2HPnj2dqH6WPXei+rkHdHodkkPR137bznVoy1ssV01vRwlcPZgklxhqAsAJImygXPzLuGepL3GOoft7G24ZIam0rFi2rO+Ql7e0yp1veyvCGE3a7I4tik1uu/H8RzDwmzg9VWtJSa5s3/YK4t+NsvrmXGmoxnAFTPpish+6G5t8ADo4ugHMDSJYmiQ6WnowCvB3pc1pXQ6Fx28csQR5kKB/uFS4/vz8MbJxfZVUnCyTRcsWSVUNNncQVD+e15almRh/P4hT/57C65V885vflC9+8YuYMT8XU7VulPfd/z5ZtGiRviEVneuwlerpOGXHY2gg9Az8bHzTDpnIl82bNsryZU3yi1/eiZDXS2CIGpJJfcz2NerVs/OGT4y/u5WwhTlotQrqH618n/7VRLnn3meQ+PoWNWZibRG0MuUnM1PN9JEB/v7d2H08m9vLTzzxhHz5y1/Ws3HfL1++XN7x9nfIzbfcrH/TRjs2yN6VXKRN9dsdHoD8VJ6vlTMVr8o7fqsI9D4SpVEK6tcprQbw3ZdLqOvjR+3fl3fh8bs3YIyfj7yiPDl9LBdycV5uvPEW3Fe/ThzU+0dpZ04YQ2C4tyM0q5+zijk1D9RprFm2vPyy3HrbOJk2tRbxfdQwwupn7CaLZT2awW8SmpQ+Z8av+27B3oFu+sBvlYpS/epmGR3ax4djX52C4zm1RzMs2/qaUnn2l42ybPkyicKSadNuhGQzkLlpKU1a06NGjZK1a9fKAw88IA899BBas7Yl5hykG1vu48fIvFzxxky64z3/13/9V/n+978vZWVlcubMGR2MsWzZMvngBz+YMAAojI4GdcqwNx4/hZuvp0IshgLYtnWr/NUXA/KJT46HYbsfXfzQ8Mckv2u2uya82p4QZvMOH+C3ES+zjzy/uKoDtvL3+afKvoNj5NbV22XSpNVSNj4XHlwTFDlzX4yH4yhi16v/rrvuygzpGWLpdProf//3f+Wf/umfZPx47E8sVuW5SqX6ly5dKr/zO78jK1asMMuP5xgaC4LhdAaA+zs9/tdff12uu+66Tsl9PNY9zB5Akhto/r04NregVm6/Cw5iXQ1KwBEuRW+ULLZzp66lFNiQUn/o84G61dZ5V5aZ+KAOLa+bzm58ivzm6Ur0gZklpWPHgxXHUCs7NMYMhxupHr+9m/T4Qxi7W19bJVu3b5cP/e50CYdPShuHFeADkt7geFzT7scAs/FvQIaqIUDF56hPg9/pA79F+f6K8afskE4ev7r1WODWMfKzRytlwYLlEsorkqZoHT4/s/6ZzMC6foQ+4Bl2BfzezM4M+A+UOHY+r9fjJ/B/5zvfkalTpyowcyxsTU2NevG33nqrfPjDH8agjTmq2GLg7bhHqdS89Cafe/HFF+Wee+5JdO5z78jj+DyVKr9nI6t/48YdsmnbdbJ0UTkMAoS/0L6XYEjZ0P2VMFS9XNPg3JvLfRdnGDPOLxhRGmmbKm+/bx+mWi6Wq2aNQv1yA6hbawgrrWnG7BL4N2/enJjO191Y3tRY8uVeZ+Z13d8B5/E//vjj8g//8A+aic/7zv3O8Fc9yrD5++LFi+VjH/uYXLfwOg1dcY9zf1NmnFHNn3fv3q3GM0MFxcXFyGZvSlD9JoRm0lkC6FT58tb1MmuOD6GhHOSF1WN+C/W/YX5ZFq7Vn8SEfnLkBmofaNQZ1+gMFb1ePNj4rTh/ujzz5HlpbsiXJdcvl7pIJaoZiBFwku2gtxHt8ccQv8/NC8u5M9Vy4uTL8t4PjEd3r3PSEbVlfOptsUwDwm8Hlxgan3QoMz1Nu15bxm9An1/dUf2DEON3G0XfyoYlyOKAsYHCLpaf/qhWxk2YKxMmT5G6pir0KQiA6kcjBxo3+LwUKm5+evyf/vSn1eOPYpZjEFUAmTnjAyWGXZ/XKScCMYH/P/7jP+CZTlKvnM9RaVGRXbhwQRXdbbfdprHOBQsW6An5nFOI3hg/vVbXspfn5sOtLdv45uaGkbl8CpnLb8j+o2tk/JjteD/bqU+VGmOatrxVX+203PDx+C+1UsqA4asFffrDgWvlY39SK0/9LCxLbpgp9XUAfkz30+RdDlGhkeOh+u+44w75wQ9+oIlkmbG8gysP7t2oo7hvf/GLX6jHT0fFyQrB3yXAVlZW6jrddNNNKhfLblgmwVBQdZwzdHksgZ8e/w033IAKKFR0wajm35P5AdwO6OyKplVbYPytuTVfJk/DtNZIHUr7sJcw/tmgPXDDTWNzun5oblGP76p2r71GNrcyU2mhMxDrLymcJC/9ukqOHOiQt9x+r1Q3nTZd/AD8KhEj3eOnV0ThPXrkFAJ+++Utd4allTQ/DTe1gIxLkyhVToT8tNrXNO6xRzkrbzh6/LxK6uq83DJ58mfV8PJnyZSrpmNwTy0+P1JTQPU7j5+CMmbMGHnhhRfkC1/4gtL9mcfQ3wGC/te+9jW5CtnnBGf17G3c3gni+fPn1TMlqL/zne9UReYMAPXi8cUY/6U8/paWKJRfWPa/cUBy8k7Ii5uXwQPYBZlgO1JDaXH+uGv6aO7MyPH49WptPk4zSl3DkIXP/mW7PIzBPW+9/Sa0YAXjQarfxsp4b2kUMZ5JtuRd73qX/Pd///fQb4jMFchTTz0lX/rSlxT43f52iX1cM9L1/E5mjAl7K29aKfe/736MWb9F7x51HZP4WMfvqH7OlHcVM8444B5oAyJmY27FK6+9Km9/xzgJ5Z4DSMJAgF4FEZZw85UR1h4XCfgYliuVYIQtm+HgjkxYIZr37N+L8PemDlm56jbM5agDRhD84PEr8Jv8iREV41fqRqlKQ+AzwW3fG8ekoLRc1mA/tDS0oRuzTbC39ftaqmEH8rhwoevQ5NjOtIB/CLaAU3JtWNCigvGy7vkqWLQTZeqMq6U5ikQm0Ff04EyZEyaxWeDfsGGDfOQjH9EYcnV1tQqWe2So/sFZSK8X89xzz8nzzz8vY8eOVU+eD9dK09H5VGJ8rqKiQmtvb1p1k3zgAx+QJUuWGHgGmBG87r33XvWCaEDw4ehpni+KnhZF6EO+a/cBtCI9KU8/vwLNSV4He9SsHb4o9aT6tf2V0n4jw8v3rphiOgQ32iIoX7pavvpPIp/+7EG57Y41Em01MUx6/Nrj3OY9MKeCADFhwgRZuXKlggmBxckC7627x+nIh1uzTGig97Lk2K6qqio5e/ZswjtPvadOfpxcUI+xJHb27Nmq19asWaMyxHUl1c/cAAI/wwX0+Plw7EE7EDHaUi8HMPiEvfljcgI0GcoKCfykzMn8qox5Q2C9/2yD/QoVBexzxTMFdDTyyUeC36kW+fXzWbL8htUo9UMOAwGOx7H3Cw4dccDvBDSp7ARK7g2ZPL1eblrTIY21EUG3UrXYzM1Qss8INfUBKwF4D0iPWCo9Qe0bhyi9rH7vCquZaG58fz2cRWd7DGkP6dxQmWxaH0EpX4lcffUcTB0EgCCPITFHHbuWC0pBYekY48l80ALuqnVjf11r5jyXvgNUTgQePlz2vhdc3J52yorr19rSKhXnKnQtqeA++tGPakUAE5mY/bxq1arEdL4k+NALimFUZ1he3bUX1He9/NcP5mDf7MUAqxY0hjKpv2h/o335aUJzlM9Ie6hyxkXDxgX1e438z39ny+/+wRty681rsP9J2dqMJ3u/6SyEMbzr2LFjyhDS0/GWfKluyAD/oGwDb84K14Lr4uTCPecNkXHtnE7j8dRlNADIDBDs//RP/1R/ZlXHtddeq8DPYygT3jBYDprZ1NVWyP4D++Q9752ENu4Afo6xsqFel0CayHvpZ33e3ze3Ez4ooBv8YfV6EDqjpkrkuWez5PqlK00TKy0tppk/Qj1+J6TOW/Kj3dLOna8jsadJbiTw16A22sa7eSPabQ0/P7ShQ8w8uxHj8SvPb6435C+RbZvb5XxlnsyZNx/dyhDrQtUCTRv9UDaLnABy6NAhtYxdUl+qwdSdV+MVzP7erG+283kz8h2t7wUZB9jetXEhAB5Hj5SvYwtSejHvfve7NYzD3A0CP2OZXmVJpdWGup5Ro3JlB5pZ3XFnUL75LxORzbwLU+zQvhMqQJMGiY0Jdt/kwYykh/PK6PEH4fE//nix3P/+l+HJr9LcHTX22dCEyb2UdSi9vLw8lQmC/vRp03WIiTfh1a2Buw+X8vq9x2Y8/svfOQ7gvXKQKhM8e2qPC64bDeIjR46oEcA+AI899pj2xyDwk/V0wM/X8is/L1/OnyuXg4f2y3vfP0Xa2o/BMDB73xVmaRh8JHr8xAeqf/tZkCUhTY0BeebpDozpXYG8BY7oRb6i41zxAAAgAElEQVSQMXVGJtXvVZImWzdHXtmxR8ZNvoDey1kSqQP9bT1+1u3H2biAVL/G9GnvmBvkPGm9Gzh+uFL9dvCgbs5gYJRs39IuZ86GZMF1iyQC7y7OBVVqMwn89C537dql8WQqOgc2PYG9VxAvX5wzr3R3oDMoM87Yph6nK9vrCvgdI8Bj+KCCowdz6tQppannzZunyWmkq1OBPxs0HpVeaVm+drG8+96w/Mu3pmD/bwfYM8aPUj8Ffnr6bGGK75ohNLIUnit1pccfgsf/k//Nlw98cKesQvgjDkq3Ax3awGmoN6dejo0Xl5eXqzww3EJDyhlZXrnwTjLrbie7REp+zxjKvZd3b+zdda50za50xawl6jWwXBkf5YF7/PTp01oNwFDY6NGj5fd+7/cSHj+fTzXkwuFcOYNZLkePHZH7PzBForFj2r9FgR8iwFI+zejnz8moaO8/3FC9wjj0mrsTQEfXutosQXQRA+tuRNkrkvpY/0ojSKn+EVjO5yxAJ6DhcBDAj9jdVPToB/A3wePnMA+1bngjtGaZVp0rYTLDb0YK8KuSo2GCbzl+AP/WdjlN4EeJSwuAJIYFpWdj+hcbJc44GONe48aNU6Xn4lzdeSepFFs6Mc6h2t8j6X29Hr+jNVNb9KZ6Pd4sfoITvf3SUaXa8Oe9732vELxY3+w8fmco8Dym7Sn7OOTJboQEVqxslX/7j1kAwFeR6Q6PX4PenFHmcmDM3hppHr+OpoBct9oY/399PyAf/f29ctutN4MhAasB5UZ+k+YNP5tjW06cOKFZ3wQKJlKSZu6pNWxX+y0jL32XQgf+lAsX4kqtOnKevnuegM5Mf7I3rGwhA8YS2IMHD2oYbMXyFZKH+DaPc+dya5WTEwLwHwHwH5X3fWAqwqRHwPjY0K4FTeJ9Ipl/hLBgjvJXnGCEC/s+F5+1qjIuTz+TJUsR49egHiwCDXOPdI/fAH8c5WwhefWV/TJ28jlZnfD4bfqfw0NLgbCkQ8d1jjTgN44LqP5i2baxQ86dz5W58xZIC2L8LFPkk2rWkPKxNcuvvvqqggObxLi6Vp6mKw/Fq8icSGfAv3+UG8/Cvcq2okePHtVSy1TvxmX1UwnyOYI9Y9DMdmZ2/4c++CEpLCrUC2KZJqlNZv7T49etwSRWLV3NUuArLs5FjscbMndBNWL8czGG9BVQ/W2migX7iMlM1GuuvrlT2/6+f+x+O0MiGuE5oxJ0GrMD8CO3MSdnmnzj2yH5sz86IHfccSuGWiF7mxodw7mMgZClQECwZ2949kz43ve+pyWUvN/0IB3ApN7L7j5IV/LSbx/6TXAislmsXvnlL38p3/3udxMGmNNP/M41ce2sqb9q0aKcoS/G8v/gD/5ApkyZoneK52LeC+P9y5ct11wali+7cj7n+TPGX3H2mByGx/9+AH8kdliH8qijzzxXFVS+sUkRGWmPRH8LAD8NozNnYpjt0iE3rroFTGOrSWBUZptYMQI9fmfJOZouNydP9u05LqHCfXLLbWhPGGkTH61924jB+Dg2Yc+WaXQCft1tlurnce5YGgtDsfpO29nr0mtjAgqcmIAvX379FEIZgavkqpkzpK4ZvcnBZ3bgAL1u/FOqFx7iC2tfkM9/4fPymQc/Y0IdymVlHkN1B6jgWMvPOn5Xn+8UFxUaFRQpfWY6U6lRwZG+ZMySD9e5jODFcj4m/HmpfgdepLoLiwj8h6S45Kg8t3a5FObuhJ0P+tNsEqME7I3QeD89hRFEcSoJhusFuYHS1pny+S/H5O8fOo3mPDfDyIV8oNkLm7LQMWA1j+tmyUqXO++8U9gj3nWPG6r9kHlf0XI+trGmUUa95eSAskBmjPv73Llz2u2SJXxMcHWA7+SF7OYbb7yhwM+SPoZyeC6XzOzkws+QWaRe9ux9Td7+rvGSFTihm562sBJhFvgTWnKEqEsH+Or+qeMHmSgoAbMRkQ0vtMvNa+5AiWuDVvKoY8hqOMjEiM3qp0XHi88J5Ur5sQqpadopd78dc7rjaEsKq1+VmfP4LaAnPAjn8TteJzXG77L9h4F0cmH1ull2klUkT/ykDjHK2TJp8lRpbMUABpitCvxQdPT6ae2WlpTKuhfXyQMPPiCf++znsOFbJIBGP9mcWGY9w9SP5v6eSVbqv0V3ND6N1G9/+9vy7//+7xqnd8DvaHqCOj1QPve+971Pu8vxZ1LU3ONuiA89IFfHf/PNN2uc2ik2b1ghLy9XTpQfk7Pn9sueA8tlfMlrSGZq0Tim167kJ1WPh38fhpS/1+N3P3s9/pa2bJQqXi0f/z+N8uiPsmX1jbOlrg4tezndjdIAI4j3WI3h0lJ0MtyoTZIeeeQRrYigx58qD+nG7NM9rv9205VzJhd6efLJJ+Vv/uZvFNj5N1deyT3NMj+COBkvGmvM2OfDy5ZxXQn8ZNMI/Cx7dcCf6vFT92XDI9yKyXy33FooE6c0SYRDsigDmIOuVV60ADrx/SPnnjv54Hyj/JLxsnFLrRzeF5NVK++QRjAmDHtl26ZWlCE6CCOqjt9RNy42R+CvPn9B9h7aijjoeNDhtRJriXRK4nMNGVwC37Dz+LvlNI1nppac0rPj5NHvV8jVs+diINFktCtt0CEMnTx+AD+TXl5c96I8+JkH5fOf+3wG+IdIfr3A/61vfUv+7d/+TT1+lxRG8GE9OT0ediajgiPg80F6k8DkTfZLF/g5h7ulpUk2b90me48skpkTd2pGv3NiHMXPP9gqoP6uRu2XO+7scu591z/d5uupxx/ryAcLNk9+64MH5bVXpsnsWWMxvhqd+0JhbVXijCIaWpQJB/yPPvqoAj+7Wbqbkglt9cuSpXUSx7awc9/f/u3f6v6nrBDISekTtNloiaDPTH0+Is0Rbdvr9L7pWWG6L7o6frb4TQV+ZyxwfTm+ff36dbL4+hxZvCwkdah5C5IFRgdITXbVTj52S4wwj98Z7mwRUjx6uvz88QtSXxWTlctvlUYYOFnaspdAY1iwOGYiFBQUCvNeGB559tlnlV1MzbO41IKiSZaLuqW17j0e5DYGR5g+/PDD6gFxQ1DxubfiQmocyM+Sp4hs2bpB7r1vmowfV40hPfXM6QVFjkQfj5fTPfDDO+CUPrvo3bbs7fHK++EAawToQnKqIK+LdBQWrqa6RH71ZCM6ul0v2VBucYnY+C6795l4ZmurAf5169YlgR8epQrNJTx+d+UZj78f1tCewgv8X//613VIz6xZs7RBT11dnQ4nufvuu+VDH/qQJp3x4S1F8iaeUSboEble/aQ+vR6/N5mJA0mCgRzZtv1l+eFjxXLP7WQGKm0c6+JGJc4QGG5Jfl572BkBqo/xBDuUZWdPlpMnx2Hgyg6ENzCkB2WMDejjEcD8Ds3uY+MS6/E74GfL3h//+McaOnGGlZ7yMlVYRl56Ly/eXv1f+cpXdB0a6hvQfj1X3vrWtyqlTwOZD9fsyvXn9+qpdIDfu64BDOnZ+cp2KRsTldvuLMRMgAoM6SHVb0KlcXj83HPOuOz9JxvkV1iHkDk6pPhNCAw9Q4pmyaOPnJJRRWNk+rRrJNKKkm8VHDPP1nTuG4Eev5dmI1yHQxi+sP0VWIcdoHugPCO1AELQeEhoinMwiSd5w4G6ZvWbe6FBdAV+/ZsxAFIp0QFbUr6R56H6h9dhdqJeF5Hfn4247Z44YlQFsuKGFaD5Afp+1qtyAhymVuGFBAoCf3FJsfH4YThx3jW9GxpNqRnMA/aZMidOAIkDZMb4qeTokdCrpzHLUiQm8CkDALeWiZqpg3ncXndNTBzVzxg/gd+baOZAiMeWFJdhD6xHfXuVfOe7y5Dtu83meXCAD+v57R6zez2hUAdz719in3jFwoW7EjlXeJLDSPy+WbLu1xPkLXe8JCvX3CihQC4mdeJz+ZAz0Q7ZUO+GxnCrJlVu2rQpMaSHwE+a2OtIZLbt4NwB73S+T33qU0rjM3RF1ss1HXNTJqmzlI2hAwcZ8eqwdIDfW3pJHXjqZIVU1x+Uu99RIO1tVUh6RZWLeoe2sZsaAg79B+d+9PpdXGhagd7ghQI//u6HI9zcWCqP/6JSlixaAr2fh+fYy5aeIS0FjuXlFFB0+CvIg8dfPoI8fmIhTBhDmYLaKM5HZv9ufLZyueveIhj6dQBNCL+Pne3MCF7iqKMLL6b6h9jjT3CaxghhYalRfGxCwhKNDrTrnSqP/BDlSAXTZe78Zejed16ygmz9yuzloJlPkOLxP/CZBwzVn/H4ey1b/fECr8dPSvPnP/+5/Pmf/7l6NfT2mb2vzUj8hsliva3Xg3SvN9n6Jgbqnc53cQMf15UrhoYlRXLk8C4JZtXI7v33ACgfR0kfQ0aI9vlQBzfclRvl1epfKjfYwKqQtQ8H9Re++3xz5Ov/FJYvfGmf3HHvLXLhHCcT2kEkAH5wuEprdgX8LsbfH+ucOUfv7oADfsrDK6+8oiN4Z86cqfksziBLPWOqXDgmx5UuM7HPS/W75D417FT5M0Eayd9tWbLztefltrsKZUxZu7S1NkrAMqua/GpwdIgyu3t3H12ZN+0iAj+N4TxUS+zZHYCRWyd33AZWEKKODjCKExxRbwyhEerxu3UhONJLCmBBKyvOIKHpAGo0R0ORVqHG19AanUqVaDhaaynh8Ss/Yj1+Xe8h9PhtrwFdflxXADGpKCjeeIwlCtfIo48elevmzYWhMxblKFhRn6EyYeepNjQef2sixs+M/qH0+FPLnvqbFu3r+fv6+kuJaSpoMwGJMbQZM2boy9ygHt4TTd5j4xkVzmRpXucyvZiyNt4hPV117kuUrEIuwjkxeR2K9bGfLJHlq46g1K0SpX1okZrV1Mnjt9stEeoaNLbrEjewO4+fHr3W6AfQs6Npkbzl1teltn4qRq3ORLvuFhgD7FJGg1m1gzJn9AwvRfUPZaLeQO7BXsJIJ/ZIdaxnL/b2XD3JBs/NklXXypprxAd1mGO9vOfoDvhdjJ+gzy8t58O5vMl9jsGlF8WGVVu3vSiLlowGO9wBuv88vH5G+PmB2cTaPoZzjN95/DYJnQYLk/roJIYQAv7Ns+jv0jJB5i+8GiGUKD4zmC3+g6fPpr2mfJhUf/4I8/gJ4PzQZGi0eQ3qQqEUN23eKouXtMrCxQVoyYnBNHbxXOKDdmQajsBvLVKaHVpuwRYrvE781traIfkFZegxnSvbtlQhS3M5pi2hWx87EvIgLKL2NOgC+D/7wGcHBfgvpbw6hWVsRUFX9LSKW0JCkyLvBL4rRZJQBhob4f2yHRo97+NVYF0pEve8e84bE3QJX146OF2QSM1FcX3D6bnzvK4piYKu53q9r0sFfhoILOdzY3kJ/C75z5zDJIFy37OjYzHK+n7z9Fr53d8rlW9+e6o0RfaguQf3TZO53R7lZhnDYZPU7AV+zqngg42HTNgOXn3WKDlwYB76WazHwKJVkpsflkgjknohC5R3132Nn7Gr5D7eO4JGOp36+gJ63e51hy8piRWpsnSp904Fw+72d7rXnwr0qbKQmgeRlmz2kDjCc7omY+6zd9XFrzvgJwvG5D5m9HuBv9NQMupSMqf4F0J3t0P7D8GhqpU77gpDj1YDS/zW6AV69jKrf0iqYSADZpy8wYB2CIZ2sczxSWtzmfz8sXNy3XwYQTq3IAamj/lgvAcIJeqgLs50IdWP6p8TJ0cQ1a8YwUY8tNQwgz7aCgq8UA7uex306Tl57/2TpSl6TMFAS5X4WW368rDz+FXzG9FMKDsdoWjHtmYHMG1pivzwkXIpGjUdmcszkOhYh/K8IAb3mPp80pkUmk4e/9oX5bMPwOP//ODE+FMB3ikbr3K4lKLyHu9VVI6q0xZFjrbT9U96xt0pJC9wdxXLTQX2rq6hq8+V+pm6UqypxoJTZk4hdXdfUj+7e38aDM7j7x74k1orzgQ/MEYNFxqkvvl1eXHDHIzpPQh2rAHKzyMTHveedoCzvYba4fFGv5jIRyT366ARKnB0e8teJZ/85A559Mc+Wb1mlVTV1kiAzS4oR9qoi56NqVkeKo8/1UjsymhMF0zdXnX7I/V1Xe1B7/7u7vWpctHVvrykbHLP9DIrtDtHIdUA9p63tx4/5UyNQMa01SlgyR4GmCHnqw1DHjZv3Cn33DdKxk1oxNQ+hoTADjP3JQ0BGKpkWBVVdQgTK6JGLhtzoUs1clxgBO3Kk107onLjjYvR0p0fhqXeGG9Ml5Ievyaxj2SPnzWJHLXLf+hWRi8gG9+3b9sIS26cTJnZLLXInEYip1o7ivsej9KNMdRhJUNN9XNj2lCUJmrQY0FchtdbmDcWFqpPnvnNcVmxag2sNzYmwWdWzWwWkRn/qcC/DuNbP0PgH4TkPq8ScteRqqC6EnYek6o09LNB0yvdR3HtoXG2egw8HvFx73vyvPy7Gn/dnINeH8HUUYvexCFvDNiVhXWn4LpSwqkGAxOTUq/lUh6Tuzde4O/J409UrfDF2UEwQzEpzhOM53xBvvmtxfKJjxdITeNLgpwe1R6qwEiWWPAfTqV9Xo+ft44PrjBmECGWOQZle2+RhfN/LpMnz5Ky0VOQ81IteWzBS3rayboNnXg9/ttvv/2irP6uALkrIL2cv6UCq/NwuadcprpjHfgcv7zDg9x78jN46eue5EK1gz2fOz9j6I4h8jJO3s/lDTnp8GabcMpjHFvlNV69Muf9rOmGCVL1Qnf3uE8ev3MSAe7xeIsU5BbL7lf2Ivv9grz19tEoFTyPex7DZ+Xck96t8oB5/M4g9wqCuzbn8Wsmv5mvmeWHORwaIz/4XqWMHzNVrsWAtgaUBDO+395BhoxGDbL7GQLD73HQaCMvuY8f1OgupXCIglntAbX4D+3fhwYeZ+Wut+ejfrFKF5KJQSzRVOofLyJNkkj047lImRi2ePBj/Cqg1pJzacuaoYkSPVxwXnCqPP7T05IVKpHZiO/X1zZpMx4XjGIhCmzbLoH/wc8A+NHAZ6Cz+p3wugxalqppQiFAldnUVDguO9cd65QRp2tx4EZzUzPKbMpk2tRp+jqX1cs4IF/D+fQtaM5OsM7FwA0/LTouPRRoCA1bWsH68D3Zf51xPjcIh3Qus9+3b9+uXfH4vkysmz9/vrYNdSOLqQiZbOcULOPxXo/J9c1nrNibDc5r6MogSDUGvL+nejKXUjW9AX5udjW88D2ClrWtMHxGl/ikHFPpcsNV8ounF0nRmNeQEYImN9zvTB1xBgCB1fNzL/Vf77Rld0enKDsno9qIi1n8uN6GFshEzjL5vw+ek3/9ZrncjkTJ2jr07mXIC+flZzfa27ADvNeDDfxdea5kHdizgdQ09x2/e/eOMwi4P9nDgZPnuOe439itjm1YldZFBhfli+W5DozdeVxCG9+L5aE8jx4LeWKTHHcvnEwcPnxY+EVAp0wwu56NjhKd76Bbzl84rzLD66VcqWFu2+nW19erbmGlimuG5K7FC9TpGgHpbiJ3f123v1Sqn+vt9EsWqwLUSTShQPDDqN3Pl/rqWtn1+jZ5z3tmwACoxGdqSFrA1hh2mJB6Xd71HZCOl1450OtOiYJ6jAEdRAdAyysokr27G2XrBozxXrFYW/My/NtOp7YDycMcww2Pn+O46VaOTODnwkAbcOhIB6wXIrkCP73E9mbZvGUtvP5CmTApiqxG9DPHIUYpWGvB2Ap6N5MePxM7TM/7NNiedPdo2sdpWQYT+q3HH4/7oeCgtI/kya+fqZUVa5ZJRyCkvdi5FYxHbBRdt8APj//zg+TxO2GgsmL3OTaG4OPLX/6y3HvvvQllwr9RKKk02KPhOYyQokKkAmFp27Rp0+QP//APtWXta6+9pjW9rmzH0XcO1KnoaDg8/fTT2hyHdfLveMc75GsPf00NAyqjn/70p9oxj53A+J58OGX6F3/xF9oKlIqPfSJ+//d/Xwd+UAmy1pvKku9J5clSox07dsh3vvMdbS7ivCfHEnS30Mo82CluzlNyrEg6zTJ6A/yqqDSshcQ3dOprBddVGCyWkpx2efqXL8j/+9Ys+cNPtEs0fkQpT/fQ/Y7/0aMeir3f1b1To94aItpjnDKLre/3TZI3Dk6VO9+2SUaPvUHGFJdIDMxGnHKhmO+xZobA4+/Kg+Ue4D6m8cl9zhny3OMOJPndGcfcw5y+yGE0rtcAS9y4/zikiedn7wf2giAQe9kK1/SJhvR//dd/qVzxfRj/ZoMWZxjs3LlTvvSlL+nAJ8oPgZJ7nef7oz/6I/ngBz+YaGn88Y9/XBNKCe7//M//rFMhKY/cy3/2Z3+GhONH9TU8nzecdTlgfynv/3I9fmpzDQhbdqsdTgiau4L1AlC+vl0Ki2vgJI6RyqqT6AJLCpwso9l7Dh9cPpnH4XZ+V2KPpq3o0z2wC49f/0RZIEY4QcW1xmIhYMUkeeR/jsiUCVNl5ox5UttYo7JAb5/scTsrxRIe/0gFfqeguJgmww9/QYIGNERhfrYcOLhHqmrOyr3vLsIHrtKseD+UoY/lPfbm6TA7u5LDweM3WgCLyOmJ+J6dhThm1nh58vHjUlo0RSZPny4NmEOQD8s/hu581IS8fvX4XYzfli5pAx9Q/YPp8bumHGwc9BkwDQRxgj/r1f/+7//eNF/SizYZ7QTdZ555RjPdOUWQHgqPJ8jyXFSABOAPf+jDCmT0eOiRO28lnIvEHPxjq9snnnhCj/+f//kfBX62AeV5WS7E2fU8N9+fzXP4nRn2VHZUNFRmBH/2BKdyJivA66Ox8td//deqzPgeNAo4+OhrX/savIT3JIDfhQEcqHcXFkilfBOgm0byE5Weu7+XSu7j/klUL6E9aQy0XnuLX0qRvVtZcUoOl7+Kfhd3ybRJ21HWBHoT3UuMMmHGL5OFTIKg0znp6qg+H3eRkjN0PbWci2kS/Fth4Ac6rpeP/O4JefpXcUzjXC1RzKuIYQhJXGO5lAXj6Sjlb5Mm22AYuKz+waD63fs6MOfe4nwFXgP3N/s4EDDJHDkDkh/3G9/4hrDDI//u+j1wPxKcCeIPPPCA/PEf/7EOaeI5KWNkwLg3+MX3JXiTLSDw09jl/ifw/+Sxn0hOOEf279+vDaMoS5Qpjnnm+x04cEAZAr7X3/3d38n999+v8vqpv/iUdjzkcwR9NqKiDPFe89yPPfaYfOxjH9Oe+y6b3stuOaYv3f2ezl5K1+PX61Dnjo3QTNivg/oVTBhZQqbCv7Rhnay5dYzMnpsttQ0VKIfzqyHJRnc6sEdP4cq9LWDYfWVCKZZgSufC0z3GS+/zvenYwltXsCddrdeDnAQM2oiCAQqD4n9lG1iiA+2yaOFSzf3ygdLjEO4sNiVWj/9KAH7ebHXfbS6yxjDI4bejXAnWDTKaN2x5WaZf2yar1uRLU20zgJ+NGlDmYSlA3hL1IqzCY76A8fYHz+NPeDQMQzD8gAsibcPFHDVqijz/XL2cONYqq2+dh7a7bC8K44abDsdlk8KxHo0X+KOunA/A/wAA+LMD6PE7wdLwCe49WYi/+qu/kp/85CcyceJEpSpJEf7nf/6nXHXVVRJFcyF64nyeHgKVG0fM0isZM2aM0BP56le/qlPs2LnrZz/7mZw5fUbjjFRo9OoJ5pw4SOOC70nFSUBnLgOfY5tPnoMK88Mf/rB6TmwJ+pd/+ZeycOFCvR5OuCPbQAaA70MlTMXGoTg8nuECKmgyBQwJUMl+4hOfSAA/x4GmeutuBrjrLtkVne99TboeUW88fj0n9wRDV2oYUnPRPUCuSH5I1r20VVbfVCpPPT0DTa42Afih4EB9UpEYWp0jnkkPWnYsXUXVX8dZ1kvL8einGTpOvbDWNjBg4Zny5FNhee97XpWVq27BM2EoRTB66NCn6tkZUaoL6LaZvynVP8q07B1o4Hdxdd4Svi8NVRql3G8Me9HrPnnypM4LICCTqaBM0Kgk2JJqnzx5su5vUvw8lkBMwCaIUnYoZ9y7NGjJTJHV4rGUPRq8BPXZiPFSXmioksL/+c9+rnkw9OC3bNmiRsOf/MmfqEFC4H/55Ze1wdSZM2f0fSh7EydMlI9/4uNaa0/55DXwGDJeNDRoiPzwhz9U+eV702DmudwjlRXrbRJgd9uqN8DPZDbuA2XDGOcmiCqr2iZhhEuOHyuXk6fL5T33zxRfsBwGI8qngR/qUBu7QUOumqNDRpa6Wo1SY1gOCPB7M1s1hs/yVMNoxcFsU77Z1CIbA9qysnKlpqpQnvxpuSxfshIyzU62UYSCTKWXwQxMoMSFM7mRMf4sYMfIpPqNmFvFYN0cu0vaAC75eQXobFeDNr7b5N53TJWx4zmQAWM4Geu3tCEBluUNDHS6GJCyAYME/InYqse6I/gjNAtwGocRkmF56sljsnzF9RLMzQPt1waaE4uuil31odl02JSXAn4d0sPOfWgSYyb5mVrxvj7+P3vnAaBXVab/d3qfJJPeExLS6aGFIqDrLihgg111EV11rSigghCwrLgqVhTbAoq7gqyuZf+uZVGkSYAAAQJpkN6TSZ1kevs/v/ec882dYZLMhFBW/DDOzPfd795z73nr87ZucS4pZtaAh4H1v3r1ap+VzbhMhMZXv/pV/zvF4BmrCYyPILz11lvdA8JIIPaJp4KhgADDG0epJw8CY4HPz9Jo1ZtvujmX0IfAoTEOcCZDWOiSh3JHyGEwYBRccMEF7h2lUZ8IRCBVngXnBE7FUAAmRfiuX7/er/Otb33LvSA+QzgjwAllALXyOzFS/ub8qa1u8vp7PuPss+9rGVl/FH/ybiAQhyozL/5GUMy77y67/l8n2yUfHyJBvUC0BnqEVASRobVn7Or3fAmkP9/PePzhV8IjuFyCKcUT9c1tyvGYZps3HGezZtyuAVUTbMyEw1S/32gqXAgontN0/OdIQdbjVyfD2Kv/hVb82fkAyduFJ1Cs0BMKGzoFHr/22mudZjAGQJdQolVs0/MAACAASURBVNArXv+cOXNyg4T4rifpNjV7lQ4oWjIiUe7QIYY2RgAKOr04D3RO7wiuCdKFkmYNhAsIw6HAWQPGLoYzjabgJ5CFD3zgA75ODAXQt9raWn+OGB8Y7XTdw4DBKIY3oVXWMm/ePF8/n/eW39Mf0ujt2P4o/m48QaWHy3+8Xybz5ckgrrCHHnrEBg1ustecPcz27N0kOatEP+rdYs4VxX6eHwCi5N5iqKZ6wRR/T96FPbmsXzoYLlqh80Zx3lj75c+2akZNjR0/+2itv95r9N1I4U6VK0aMP8QAxd9eE/t/WfFnlFcWRm2nTlr/lZaXOnS8dv1St+aKijdrZO9eTxDyl5cCQgBJCeIdvDQev3tnAbCw4tJya20aZ//5k6U2afIUDeMZo7GKyugtChsO0IFQCwQclHg2xt/N41cDnxfa4+f6eC14E3/4wx887odXzchNvAM8B6BJvHCEC94I8cpVq1Y5LI/wIYEvZdenTGc/L/G4mBjIHiP8EG4I0Jv+7SZXZAgtjgF2vOuuu7z154033uhK/frrr3ePnt+HDx/u2548rCeffNKNFAwOvBUMBuB8EoWIwdIhj5gsaAAe09ve9jY3ZDBiUPIYN3hoDz/8sM2dO9cFZha23VfCX3r/hfb4qXbBGEv5BfwsVlJoS8NW27DiafvBj6fbq17TYs1tKxXvh67U6dLwdDxVOEia9Moo5m6C2N2iHscejFQPTpl7Iu6d+TlcQnkpbnPeeGtrnG1vfP0vbMWzg+2Y42fZtp2qwy9VSWubulfGdcD3QVqHMyT+aG3tUAvjF8/jZ29BgKBpaAYFSrgIzx+6IxRFpzlgco7hH8YwNMeUOfJIgOFTeAfUIPEB7zkdi+b5HsdC7xjPjBvGaMXAxoDAaMV4Bm374x//aHfeeacbyPAS0yJPO+20XBIt5wLZgifw7DHUv/SlL7nix2ggvwDDGf4DPeN9FDv3gOK/5pprfF3wNjwDj/BZz5kIh9LpOFByXzAQIIQI1QN3857ThvgDKhN60tzcYPf/+VE74cSRduxJhbZz11ohx2r53s54XzdDc3QeoH9o/gVQ/Dk+6M5EKSTNuyh/srwwPMpK1Jr9zr22YU2pnXH6yVavfDaQCaf7mKigGhEpf0IzQfFjufzf9vjDjnaTOl0eFU0hlMBROdAWPPGQCHabvfnCcerNvE41/5r7rCQOf4iABShOMlXxnH1Te0D9z8c57iEw9yU/iyV599a32wCtt7VlsN32kzU2sHqkzZw5RbWYWG+EMtzeC8Ubrvi1Ui0Yq7VL8efJu4/T+SjnU6/+T0optUoQFEroM6FpX7Hm/srrdJ52ZVw5DKYX8CTMTsz8lltucQ8CIQGsiGeAAMIYQ7jgUV/8zovtik9c4Z4McGc6Z6pZTwI0wYecn/Og+PHSXdDrfwiASy+9NOfxI/DwdhCIQJ4333xzGIerAe6slaoIFDwCGc8db4VkQqB+FPkvf/lL925YJ94VXhOeEp4PcVjCCbvVS+Gmm2/ysAR19UCmCOP0coOMxkreIjNZm/19yhiEwbjrS4w/K1SzqEPXXnWoSiRfCaPPWFPnJpWInmKHT6q1xqaVVsp45zyStiIkxqONYFovrBZuJMt+/TEAooCL+tnPk67lXSil9InZd3roYYB4do69470P2t2/a7U5J51se9RmVX0tHbYFoWCQFa8CYNxYiN2Rwh4O9b/4Hr9XnwjBgg+++MUvOv1hDOMNf/zjH/c9xQDAKGZ/MDoJRTBECGM4Je65nIphNB/nrP/glZTw+v3vfd+++a1vuseP4idJL30GD2D8wncgYIzBBZ6Hn1DO8Ea2oRThrne9612O0p1/3vn2ta9/zfkKZQ/vwSMYBKBxGCl49xgWGMrJ4wfBe+ihh9yAAXFzMiHn4nnwQE+u6Y/HnxR/gEmBu5H3yM3wO5YljsquXcqIn/+I/d15Q2ziZMX7d22VN12shL8Sa23TFFQRqXv78EXMEk8OWzAEMqtMHvu+dEdvCp6lpNMg4r1ajXNiDMMT+lRIRFOr6hIkZkaOGG0Pz2ux+Q/WqnvlseprMcgaGoHyaf6GggfdAKWQ4hev5HkzG6L+6BA8/v+Lnft4QPvw+LsllkjRlZYV27wH5sty2yVIdpy1dKxVSQyoQHioxBHDPsWmH/Hhd5Nj/RFqaf+zWj6zqentVAaCrlAuibwXwhDDFIvbq1VV2WlzTlXNtUYMs4mxXwGU59XqCEonHqo4Ufw96/hlCd5zr4b0fNI+KS+5VdBdoeJZqdHPobC6k0JL5W94NAkCR2GSvAc0ThyReDk/8WrwKoDNySh++9vebnOvCWODYT6EUEmpkm7iq1XenM/R9u5L5jBnUvwo81SLnBQ/iANQboLxiY0y1pOkPzwhvH0vRdKzQPHjqbBuBDDGBEIPbwdhifHCOvmbxCWS6vCYQC5SjDNbb50UbV9DKS+Ux5+eXdqftK6Ucd3Znifvt0jQ8+NWM6hVCZazlDi6UQlN6yU09LyRGyEClotf5uKYEG9WqCXbu6fg640HstK7p82eMQQChRdKWTM2d7R1Nk+1j176pN3yk73iiZNFy4To4AnxsEteF8kOZZL34qiBw7Ivncef4vwoUjxjqkEwDkGLoH94ASSABFJojb2BN9LYYOg2q/gL2JSMEuH4NLvhe9/9Xq+KH+WeFP+UKVOcdvH6MTr4DAP2+OOPzxmr8BJ5MfDEwoUL7ey/O9vPC0KAMY8nz/pR5lTioOy5T9aPAQ2P9DRye4a8DoXccfEXjeG+efyikZDIFRVfUPzuxSffXx+VlSgBdusmW6b5Fme+dqSNGK1KH8b2SueWqtuf01qkc7bC+RfvmtMmu/5ACj/LAxlWyrFPtLnhMadi5xNi9YLq8wH325XrYlZTPUEKv9Eenr/FzjzlSKscWCWlr2M7Sl0bmPIUOJZkXRS/sKGwfvf4ZUw71P9/tXPffuPUMcYpxUjMv2bAIHly8/U8d6h0Y7DaezZaUz1WnB5TIZWdGEjBe2Qn3RCMZBGRomAw9sP798OTQEu/50iNUwVvkI0tLx/gwxTuuG2nYjVD7PST5tiu+r0Ku+pzJSUwWCUkOrl5EjJNo+IPaVCpjr9rLC8W+ZWfvFJQ/1x1ppLH77OsD53Hn5g8QZBA+sQsJ0yY4DFxvILUBIdSOZKPSEJCYAEDLnp6kc05ZY7Dnyh+3q9U9jmlQ3jceC4IQ2KWqScAkDreR0IUkheRVfzMtMcTwbshNEACFLDm7NmzfaY3LyoCQCOA+Lnut2/8tifxvfef3+tQLCgFRgACD08Gb4qYJpnPQJoIwTRohPOlRkG+P5EuD7WQ66/HnzWA0+/+E49HuSKVyhV9SC2ua2r22v/87kSbPFV9EJqXSNk2RQMxM+eih4eSy09JCjyh6z3447mYXJR8GUXvgjwiC+7kKNegqUV1ycpzaWk5zK78oJT+bTvsOMHSRZq+19LY7OvLy9M6JdLod0FDEhgCPnA0DCA3QrEhue/F8/h5xslDx3PGk4cGkzGQQlmEvIiXgwgQjkLBUuUyceJE5wlCU6AGhMdIuPvG178hB6HVM/LxplMiHR7/Dd+8wWkUozjr8YN4oawxfoHrMSyI3cOzKGtQrDTvAXSC9WK08x70T/gMwwWjgbAWeQgk4HJP8DfrhyfgZ4znlNXPnqamWMnbP1RIo9NLvxR/JLDo8cem3u4Bg/bmFLposliJcdu27rCFi56wOWfW2Iyjim33js2qJBFKyFA49IQrefgoGMbOC0EwRzMiyOYorOMvPX5k+SljPLtt4bH5INU7hKZ63y/Nn2jTkIpCoXIDhAQ/cG+LPfzQDnvVSSdZ1QA15dq9xUrKqvRl8YJn6YYM/uTxE+OHV1D8Hgb4S/H4n/t0g5b25w/Uqg0GTn9Eo3ubmnbYG944xWqGUyKzXbFpSh/YQJoAhSYgPuqWBxQcii4FHuRm3zI50+ZHOulMJ9JJQ1MFXCtt5IChtn2L2a9+vt5KiwYoY322W3XMVO9UuYY37Qgaxe/Hu9mlGH9G0AYGE3qgLw8aVCOP/2674iqm813jCg94u5ABJliBhwB6yyoThOvFF1/sXgwCAaWYIMTU7IZYOhD8SSJWDIRf//rX7uWTE0DdMC9KlvAoiNWT1IdngeeTBCBKF2VMJQDCMQkXBBkCjXp+oFO8mdWrVnsoAbQBpc57CEVe5BdwXWB6DAuMBARxgvPx6hmZy4vJYXhsQLVkWLN2PkPIUQGQJr+RqJiUfRJMLyXUH0g/hBnSngfhBAWRxFcsL8eEyqihT1mdfefmU+11Z+2R0l2oYwqUDMpMgRBP9u8lZR2qorpgyRwNusSKnwTXZX+2sgtRHdAhVE6ZHH4ZFHeDqleqysfbhk0z7X0f+J3dezejto/UXle68CtAWItPPfQlOmakamds0gKPhIToEMF15MIV/4uX1Z+8XGgSA5TKEGgs5cIQGoNuUbQodOiJ/BFQKbxneAKkCXrGSIDOOCYl/kH/5AckniDGz3UwuD2XZdhw9aFXOFPngY6/853vuOKH30jqe/c/vduWr1juxgbIGHA/L/gEIxeHgWuyHnrfo/h/85vf+Jr4nPvgJwY4Rgr3AJpByS50Bk+Qs8P9UaabLXd9vmGvQIz9VfyJQJ3YRBCETpGBsSQOlMjh11AOWVoyWChgrc1/dL6d8urBQkWKvNlPm+LnII9kyxNe8gRaX0vQCf5H1vNPmfm5NcfjODRC+bTSSKujyZwbE/pR4KiX8nG8RFMIJT22db2Cggqbf3+rPbWw3k6efaINGFijmTS7PGkb4yAwargvMvhdY8gwpseNCc0jdtCppFkQivb2Njkz1R56RcZiGCK7+7NHMiwSDpK25vn9TN4U8+QhauKseI2pVMpl0X49/kAcPASHZbAQ9V+hPF4s1C1b16oGuMZmHlktBtohQq+L+4Yy1oOJwtHj/XGDk1WX83ayij1jtXW78/i+K31fM9BLiNF0thXbwKoxGr7TYHfdudkOGztaA0em295GIJ1AQyFOSRJJJIoIO6QEk262xYus+LmfRCRkwuMFo9yBL6mHZ7/wCGiIg6cAjIgSJSFoyZIlHhZAOPGPJD+EI0Jn8eLFLjiIc/J+qrdn7xE4eOp47whUBGjq8AeECfGi+IEdEZoIUioEODdjP4HzWSOQJ7F9YFdinih8BBi/E5/k2ngx0BAIAEYNcVIS+qBJvB/uh9/JCQCZAPpMGdqJHV5qxZ8MkKT4QyUMCp0eBhgEJTZYZW7Prlpsy1cutcsvG2/XfXqaaG6Vkv5WWbHGWuf0elT+LniTIZD5PUi/IAn9c0gWBe3aPQrGxBy5+CUHCXaUoKKaJS9voJXkHWV//N8S+9Bld0sAl9txs4+VcYWwDUaIe0NArO6tBeMh2dRJcLrH/xIp/vTMMQihE+QNsXHoA8iehFRokJg54S5yQ0CYOP7Cv7/QNqzf4Il91MxTfooxDU1Cn3j7HJugfpL+gPMxqKFP0AOUbZKf1NzDJyh3jAKUMT0vWAslgxirIGQIfkJZ0Dprg4fgHe6FdfIdjHMMb/gN3qYqgO+xbhA4eByZDCoHcoHMJmTB+dIwpL7I7b5ojv55/BnF79g52jb4vck6DYAV7YylEFtLdV/ltmP3JuX0PGJTZpR6CWxBXrNks+ZBqD+GxE4IiQVyzxnGubX34vH71eL7WcM5Z1BrEc4myVp2iJ/eFEXqLTDMtm9Tifo9W9W5tcxmHzVNIdFBKkFuVtJ3oegqhKwp+wPFDqV7sWD9laX4w9PzSXf6NeQHB2OAQQZbtmy0Z55dbOMnltnxJw4UQzSqm1m9t8PkyDDQh5hh8LGjPHPC6NXj78W18beil+Rtg4grYdHJw6koG2x1u/PsgXvqVKfepJ7js23IYMGBgpMaFZrw7hERznL/LFoCKbvTBZ7e89BVFIeJGVrjCFKU6BWC+ucK6gdKx+NH8BwKyC2dI8HPKFoygKmXB86nzh4BgecAVIlwA8JHkPE5wglvHqgdIUIsNLUJBVJHwCFAEmrAT5QosVGSh5hn/7Of/SzXiYz1IJgIN9BcBy8o1TMjfBBcCCiuAwKBIEJIAVni+fM3yYYpS5/v81kqP8SowNPCICFRC1QCw4EkP4QykCiCMuU7JAHX1zj+/oRd2teDgfqfo/ghbBQoHouTteihHeMrXzD/XmU2P2Rn/u0I++KXhtjxR6pG3larbkhGcafiULFsLuvu+ylykFjkk2gUIIDSKyTcJVbC3QnGg+eEytAuKBykNY2wPQ1D7StfXG5fvn6DjVT//WNmz7CdgvabBT1jIDJwBYoPRnjg7cBjwcDnxLAsHn+7N7VKHn+b8hn6n9Wfk8HxRjIqpBvqkZPzwPyRb3/329/Z2//x7U6j5KOcf/75uSoV7gUaIsGOxFfK44i3P77gcTcm165b6945hm3KIzn99NNdwafYf4rxA+XDK3j88DxldynEhjKGXonxk1SI8QwfEfqiDBD65jrQCeflczL9QQKgXQwQ+AB0DeMWIyOdG/4j8Q8+hw84J+cBveiZ1c/9ci/98Sb7whN9i/FDFtHTd0M0DG/C+w8J3ZLz/n50tx2JFWdo7HN7R70teGyRkKY6ZfwPET3WqFxus55bnVdX5fIV+T3RIqTp9BnRgHgjTktdtrH/Hsd3xHyUyCJ6vyUACm6o5VmlPflYoz2xYI+NGTHBpk8d5wnc6IgOnyoY+MExswCh+bVzHr8YN0D98D0Js+Sy4fH/BST37YtIcvo4BmI6PBmjU6NJBaO0NNpCWbj1jfV25FFlNvOI4erZvEdQo2AdwSCePJ+StBEmbC7PlDBiFGJuubkyD5ud7AS/HFahNqFVzUdQ0GVlEnCai9zaPMSefmK7LVkU+srPnDlDiqfCFb6XYODR+NCgcD4vN+zFsEhGRU4Yucev6zWR1S+o/15B/VL8V+9L8TsslIRxl1xO95S9ZjosICFByPIcUyyTjGFgcDxryuJIovNMdD1HmJ6yOLqJIXTwfjAQ+B2YCVgfrwYmxgM55+xz7GQlcaVyKC+mccs3z89DjBHokrI9Z1CVEaLQUcCsAU/mhBNOsArV52LoIJiog8bw4HPWg5CkeQq1xkk5cz2QAMINfJ9rAMtyfWBQ1gm8CtqAB8XxCFqy/zFoZs6cGVRPFPyc96VU/Nm1uKEGDblgCMlz/J0nIahZZdqvDh9r21konli42JoEH/7j20bZFVcq8W/MJh2/WQjAdmsUhFxBSbDLRp4M50pxw6Bk8fId2QJCTQSmLpSdwJaKUedJuUCjHUo6KqsYqu9XyCs8zH7zq13yZp+Ux9tuR8w60moGj7AG8URbfrPTdRSnfsbQaTPU6vto0uTduMoPMf6ElHllCFD/ARV/b1Kki/J7fpo1ChIPckxSboSHUugLpIk4f2p1yzHwA0l0GIvwDMYwayU/BjrkM+gOAxZD+lWvelUOIUtIEsqU5FOuhZLAuEhGuX+2ZKkSwB72eweOT8mwfJ/kVuiXPhSsgeufetqpdsqcU/xWE28/8MADzjcTJ070EFsKE2IwsM49e/fYFJUdE8IDzaDyBWQMPjz11FNzJa6HMvfleXn8uQB8EqvwBgYxgj0MReeTNkFQRYWlXtO/des6IZfP2oiRZiecLKSkpkFUv1O5U0LPcKYkJ3AS6ZbnzmFgvpwHHxzGQCVurHqzOGQX6I8geIV04akmjWAvkBFeXCzUuXOIbVjVYY89usXq6wpt6uEzPZO/rW2vcj00qbNQo3ZB19zPD/yRpLN7/xmon859bvDjCsc+AMhFnKy/OKg/y6gejYnWP0oEQUJCVrXK5zZvVibns8sUV99tRx1TrnhwteI4DR7PaZZRQBcn/AwvqAgJ9rkue24k8i/QjJcQus2AfNXvlaVK3KtQur4O2Lm9TK2Ed9uSp4i/VdthimGPGTtSzL3TWyv6XEXPSkY+h7ilezBxW4NWiXeVsQXSW86QIq7g8ccYf28efyy9y2WiBnLscXIeVnzLDZAuYRrIKxBygpCzpToQVCf9rj3uJOVP+0sdmyaLBZ6gG5s6lskb6u3l54gKNCiooESz4Z1c6ZwzFVBwl/j1vu3x6aX+/r1dJwnibO+AdFxK2Ot53ZQd75CzK6Tw8lKreJ9Z5Z+7j17v9MBvHqzH/5wzJ5zRMSI0dyyfLNQELwSehAMVJAOqB1nthq1STIuFEu22D1wy3l5/9gTFe8v1ve3ajrW6V7XBptRO+0u80x89+4Ahli4cZ2jwJ+YTEzRhjIKCaisoGa93h9u69W32xz9tshtvWGKLl8ggU4La5MlHq8PjXnlZeO0yhv0fyXtab1TqMF2X4sdITn04Y6A0Wq05BXFAxR/KGHrYwZlHmGG8eO4cH6TE21hGmL7UnVZJtgoVOD5LgDvJ0Gv6DjS9r6l5oB0YMNlhOHwve55gjLPWIO+yEyv7mmGfCwtpfYkPaf6F3EyoU29KPNF/T55OhkjPtR6Y8vd9xMEp/h7bGbwXHmBU9nzu2VRBDut9z73WMaXq/NaiWv9nlRuxc/c2TYNst9knjJQxJ4O5TEaCDOI99buCjoFUdW6Jv9AzxuVn0A85ABn9wNwJuunyuw6rEN8VFJYLAW1TE7Fme/zRXbZnR75NHDdGRtc0T8yuV8J3oXLVCjV509fmWfr+S2A+Lhfp8RWt+JNV7soeL5qkjtjGFMXe0kQr2Co98A5btXqlbVi7yep377KZM6pt7PhKGz6q1cqrZM0Vqu+5asDbhMEAkYTRleFFi1MEoEOQOmeppsix80VS3Dt37rFtW8pszbPNtvIZefiVw2zqpIk2cPgga1SctbmpwS22YiggJ5DZvLjyCGHm/gwsHS3K+Et8I4x9pXezqhik+OmZT1b/Nb16/HwpJmP5jeTOGuxGV+rh/D1sycAkPlEoWB8wRoDkUwthPgoKvcDxr1CDHuZiywCQsnfBEW0LR1f0txsPUTl5aiVKwiGW6DnTLyCtxo23oGIcMoZltT9epeHZt8C8wcDLed3cWeb8vj6CdSw3CmEMAX5HeLHH3nmN82ntKdcAxCB5XFkDJWvYpHO+rDx+hzexWjGKgPpV+qM53VaoqWSYnkICiorKBOWKToWIlZXSWnazvMYtQqk22zv/caaqMCrstFe32WGTmOtLhcQu93zUUNfr7tk/9248+ZTy0VI5M0Bf4gmVqHKd5mZGTJs98GCB/fpXj9myRcV2+FQZwRMqPKlvW+0uH5HqDUc87srkPcqRSjxu6T59RvGTJBt6XHhtSy6/ykdZOfmF5L4DQ/2RC5zuIeyQTMv9tMffnaqht0DWuS9QdcP7BVGRhGodX5J7Zf5coG8d4303OGdsTgVNFor/oSmM5EDUan8tZITvtVKCGsdOF8WJlK6UMNY8fNhF41yUywWERDFifTdFfrlo8jxducs4d/6OxmvKG3A6jt1AWYojGJG3nSfQaJFnHNWLYbj0nJ139J00EChr+D5fIzg8nCBzHMmhJ4v4cV/T+bpfL+xpV8o9Tys4NGGj48/Y1J1+KZ0FQpyUUNrcqBbqagBVLANgl/p3rF65TY3hlssDRzEP1DC4fKsZorBmuYwlyfU2VZG0qv8KA9U4vzslkUagg1BdJWUvXVGo5PK9mky6ZoNC0JuLbdWK7Va/R0awqqDGjhksVLjG9u5p0n4z7VQ5InkazORN++lxAZUnxQ+8HxK//+rxJ0KJwgJgMzGNN7PRtrS1AJtokpuEXXtrvTXVNQhuXKchP1vlrUuRlxVpU82GjNS41+oilU2UKBu6TFUCWMFQIUZBo2DgVmtUE55dOxrU3EXicFee1e1tkHI3GzF8jGL4Q21gpSZgVQ+07XW71E+gyeNIgUV5heYjHqKBeT0GFUgz+ZUZmZRR1UEAebZ/ZIak+K+4qnfF7/0dOBnlgt7FqKufAdeCgBKAi01T4JBGNHWchlEUCD8JCYyEdnm7HOJJWlSQKobughihgRcYhChM5PLQvasA0yJk2hBEjljguXUxdsjRZq2RKRE6GAD0NYhVEeELAWoJQlWeIaY2cBdNYGJ7TbdTJOxSq82s8PJriCGz7UWzAiZ5Qem9VE2A0eJ9BmLmfE/B9FIn96X1BGkZBUToOar/YWyCLIXYn8NWVLVow9s7BMUrzZgGWDTR2aXwx/o1q23tpo1KIsvXv6E25fA8O/HkkTbtiHIbOqzYhg8d6dAlhMHetosudu9tstrN9bZh3V6b9+dV9siDiilLiD29VKOWFZ+cMnmGULdq8cRQq6uvE/8FmuL6GH2uwNRTHeIKwjLwr9M7fAIN+u8QQRTiTg+BiZLgP9BY3qDIWXdQlOEOYpa0n98ZXf+AYIPS8aobv0zgHT/E30+efZh54LkI8bx8IcC8Ias8eJUhLAaJg3KwPfkgZgphsY42HceAsZxeQrhzfE5hhbUHCcCzCQ+FMIzTLU2N3CTS2546BLoTDaUYpM7SNwcS4iLen+UB5yXuLdJ6b15/byhG9hzd6PF5/HFwir+3C0aZljMI2OyYB+Xt3DGQw9hbl1MKVZUWl3me0PbtqgpT3f/mDWv0yISUDVLoSgN+hih6VVNTblUDS/UM9Z6OBXkJoSeUPOHkVsH6rba9ttl27uiQMdGkf8o/K65QQ63JbqQWFZeLftqtXjqkSHlpzJ9xBCcida4TnAECfB/sty6j+BXt8ffcaicY/UcCjjNrUql07nOGzdfgBhQSkiBf8asmxXe2ad73Nmtqq1c0NFr67qEGi9nLI/X8XXnDNOqsVKmmQXj3oxTnqqhSC14JMsooYE26x1GPGTwJNirE5v2SGU/G1x4cidzL2RWZ7Uo2Gq8u6ALbU+rUTN8CJQzdEz3+nsl9QIHEYT3eowxVnkJ+HHLkiSJaCESjQacuLAp5Kq5kowfkNkAQeikJ0QUNApqIMUgKkxJ1AEZDYRYC1d8uVhFuauTe7QAAIABJREFU0aRxYZUTpO7rx3QVbkqejz728izn0fAZTV5CSWR4QDwTui/mBDFeehSG4QnG83r9d2DA7p5SeMRJcCVkYF8ee/bzJNh6EysvtcfffU1RW3Z7s8uY8+cU6Sg8B4kzeSzU/JcUl3rcsVPGQO22nRJ26yWwVH5aDp4JiqN4KH1/fWcC3WogprVA48pDalPssn5XiwzpgTZp4uE2cECFDG0UWLG3o26TR+5Gg2cya68AJiIVBBeW/Upr7UKjWG9oTJKF+OMC3BMK+3wgxe+Kz/efEFMwTlUAHPnRzZjAZNyda2AMSzpWBiOUBlpuSwUU3//lezA3xAC9iiI0Wg0KOZ0jmAD+buippk91ngKyeeFJqlZcokdPjlM6u3Q9C7+wG278TNcLCt+9fHg3l8sZYsKBl2NkOPJDov8UysqWgSZjK7BqDPHFM2SN2yysn853qLz8LNkeOsXf7azxj8AHoeW17hUHzGVJ2L1OGfvIIobB+eA3aF2ib8OGTbZDlT4odqpUSsQTAXUKzk3Iug+0EegL5KhTjcUGSV4P8xBbVWmVG74t0hGNLQ2+f56Q7V8KMhuEOcgcZFn83U27ICd9b1OM3x0mDFgycwM68IqL8bs3DROyCTHJDy7yuKQbAggdQfnaxUIxHFYWU44qNCAHYm9qa1KiXps2pFkhAiny2J4VvixVc5wS/1fiw3ACrKY2vA2CotR7n8S9lCwTiBYSkGccPRYvx8h5M1mNniXMSDCRBhLxRIr0e8JbCy17a+w+1fHTsvc5yX3uqutedeMaz+EEyDNwDz96K6hukkGAaUMCF/FVej7LK6YGHGLGgMLz1zNDYOnOHRngvI1uOAhJ0fk4R1DXEF0QHDTPSDHSQr8GRhAlKHESVZSeURz7sTxPrusvPFP/NcZLlYiTp4507ZKaHdTjav98jcGxcTYj1JAERk/Fn/VUegq8nh5O9x2BAYNyeaFe6fz9zerf93qi0kiEkxEWyRAO4E6XUPEMaFodE9MXOZSpQiQgNFLo9RpjrKRHBkEx/taFIy1mdUyxEs5KysoVyqoQTFom3iCZqSlUcMijbBEvIagcSkbexk5oLuCE3HjYJl7Ha6+Tukqd2HKKMyT1JakaSv1Cy9IuxV+zz+l8nuOAkQKdsnZGoFLvjIRX/bNf193lUE8dJDewvNaPO9Cp/AfKgLFAPXGS+0HbBoXh34l5CDzbQJbwReC74IxoDehqeAYWFUdxXJt3Wgs7kzKyg10WQnJubrkyDiGc4N1HCyTKtQLdC+9g73d4TDh8hx4IznuZnJrk/ae8nUR/ScEnr9+/GQ2BLK0dCmP3QLx0aBV/FKgBsonPNdBi6HQakQ7QGR3hhi3Okf4IU/xkIqq9X5G88WIZyZylVTH/Bo2LxuBsJvfHZRD7265KCfGD9AT8gFHdqvAx1RVEPPMVekP3eHKs99QPpNYOyhOIw+Woy7MoS+OSe/H44cWo+Anpgey90hR/IqSs4Pf9C1sdWxtGqDAKPD7HO8eyQyiglIAbUWwQt8PX0AmdF9r4C7dTJWytSgz0lqJ4BVha8R+2doxzO9OyCUkmIFqcj6Lw4rdEjxkuSMf7dbP2gRNIgADx+AfJ4793Hx4/16bSwOFRrdPFuy7WYEpkdD+/TXnWBSoiUSY2wqQ9xGo7ZJw0qFta8FtUO+rPT0lY7t+rp7VGpOLmyWTyxPEWna/QmSX8F8F9v563k/RzlOlcSmjSezKnJEJlbMQ9ia2U/L44P5YqRgeoRnoVShB3tmJk6ZwkEoq4FV3zNTiqgFJxJiGpLJd2tl+50lORZ2mmv0q+v0KwJ31mv//8FX9WwLF58Tkm79EZoqfR2QVJu3EjYUj3uCD8iTeSwKRkI9F6gRqIhHhxLC/Sr23yiIGNMQi8x4Ef43axOklqwJLnVEQY2r2rBM+zmBAA8xfLSt406+iJjDnfJN6BLiMv5xR/mF+xv7G8XCaF2fJciSKwA7WGtYTSR98jQk5CuPLy5JWRg+CfM+QIpR/G0ubl7Yxr4m+MAxoKaV1odecifnL+9E+DeETPHeLNAikEn0yoxEa11onnT88j0T/fk0D3mLT3YtPvStSMvl94cBwD3Vdp3Rjv6Kx4vWho4XQcjOGaym8PRTgrrLXvr0Or+NN1g6EblH+Qp05q8e30qWNLLr8xWLHQgnHqRqJ/ARCMxGY9b1fUAd313RCvMQ43OKAqodWMElcbMogd4Yo86ZQc9YG3lOcN1/ehSVtYU5B7caW+60HRZz1+Pmb/QaqCs/mK8vj3RVI5xR+22R9ieHgoZRR9SOxKgi401InM4zCf/pAwyJNyRInm+4xklKmsK+ggX5svImjHe3ABG61IEUlCH9wr4Vww4AFov5viDySae4U1SvHHrP59KX7O0a5pZQjSFrwZ3dMzrc/Y/274nT218XHbWb/TJlSNttPHzrFXjz7LqtqUhd1ZJii2zB7bu8Du3HSXIN5KF3N5tkeCXwKtMc9GlI2zE0adbENtmGRim+3p3G7/u+731lTUHEZcoog5lu8JHrbWMhtfOsNOH3GiLd76mN2/40Flu3TIFPDgQkQGAszGGv523DlWr7rae9f8wXapAmPigMn2qlGv1eAlmSHqUV2bt8Pu2nSnbWnYYOdOPNcOL53s1rqjA7ouPfmp5ycZiMzo7JQzyipT3wF6BNDzn+NpbkKZHrXLXkee8e6TUu4Z3++5hem49H5WmT8npODUF0RMNuzA789f8R+AuLp97JLPV5LoNpRUInVCYlJom8tBGHGBk/x+9D+4JwxACVnmdBYLyZgJ2k5VGzof47GdL8JnzzGuYjzarYVw4ajju7g3SsUcR+SQgW6Kf+B+PP7QFhtvOE/roVlLa/Niq90YuhiaurkNH3m0ljBUCXNSyLT57thm61fer/JGoN1m8e8Q9Xd/tfhpgL7TaLU7/2R76tbIE6xSqKPAxo09Ts9hmG3dvMDqW5d56RfS2p8j6xTl11RPVVnlWN1mpe6l3Brql9i2HffqejzWMKiFfeAVEBita8hRQierNBJ7kbV2rg7JxrGFMYqCXI3qigmaz3Ccfq8JTZXoCBoRRvpo0BSLZLxsdYs7NzKW2Q+MNoYH3X///fbss896aeD06dP9s1RlEEytpB4DMWVp/zl80OP4ffHJvviJ4/uX3Ncf+n/usd0Uf05fhBBL4IugrF3GOxvE5xGYKHzoSBAGGN/BAA5GoDuTQixTGXfSRIHeuwxSN4ATvA9akwyKSPlZxe+VLjF/K8ABLOQVqvj35fGHKEoPjx9LK5Z1hO8FJY6i9A6PqW0oELt/n0xkPVuH0gIVuNWH4vfkixCnzsXIPCYHHA2Mo80nmekAqt99D3QZdAYRJNnHtuLV6hwHhPqTcJawapbX8l87f2FfXfJVW7FztcY6KqNbGdgt+fVWVVBuJ1QdY5875V9sev4sxayq7aeb/8ve88B7rHiQ+hE07rFiZWMV5cvDb6mwwpZKmzn4KPvUq661Y4pm2aqGZfam355r9QMbrU1x3FYl9vmwHd13qeLB7bXFdt5h77Yv6vgfPXmj3bDyO9Y2WMftUba47gvon5+EDEbsHW6/fsv/WEPHLvvo3R+0tfUbbHjJRPvUGdfbGRWnCW0osHm7HrMP//F9tqt9q33vnJvtnOqzdQ7B/rKwSVSiBwA9BKiLRlmj7FHmCA/+1e2me2OnT1CjXzkdBG/6/k32nn9+j/cJQCgmQZhVzLyfjIgEg2bRhQSjJgMhm/HMebziISIS2famWdHz4iv+YDC584MAIYEIYeUxeEI+8Ioy0R1ippYZ7ycok5yH5NB4+B7GAfFz5wHntOAFhRyN4On73/CUC7RuhB0EJ8HUpPidT5InnoMCwiOLAtjR9T4q/mSABRCVy+1SLfpXlL39X0riVR6CjbBTTrjUykvO0K1UiH4a1GTlYbv3vs/Ll15jbXkahyqaP+3Um2TkjxEf7rCHnrjCtu++R7SuLGxN3DxtzocEBU+1JxfeZBt3/VQ0yUhpkEH0P8aG+ny0ldrE8Rfa+MPepnfGW+2W39jCpz9l+aUKj8h4JhEwRQ9Yc1HneJt97PuUfDzeHvrzrdbQ+ahOpgxw9WXo9O6M8j4LymQcl9iImr+zWUdcre9XS//Q/IVqgkKn87POOst5Aj6BL3gfZU/XPX7yooEVDbfoh0EbYIb5pBK+bL5M4oGULOtb4k4JqFAX6gatZ0sMe1YCJL7J8pxX2bj8DRU3L6Ti701XcC9Z89VR3lzoByOWzYx6w/NAgtZOIRqv/oiVZZ7wqT0CDfJ8MyXb5suBRF94WNQRgCDngfodDXCPPxl+GNOB5FMIIqv42+G3aGx0efwY3DihIbzzF1/HnxWi2d+TeEl+SPTn4yF8GgEUt8iBUEKRppfOJc3rsUQYLVpxflySUcFQSMIsEUDQvUHMcM0wTCFFWPe12mCzJWLIiMYg7/ro8XuAQWWMHaWt9sf6e+zj8y63dSVrbFTrBJsz5AwbUjnUlu5daI/sfNh2Nu2y84f8nX3+6M/Y2IIp9uNtP7N3L7jICpS8eHzFUTa0vUQtVstsu0IAj9XSarfVzj3sPLvxuBustmmznf/Y62x7/kabUD7aDuuYZMUd5X4PJUJA2lSjevqE19ubp55rt6/8gX1x9b9aflWBHWFHWTW13u2wmOJfbQ02uLnGPjPnOlvb+Yx95NH32lb1lt+2sd7OHXqhfffE71qlINL5DfPssocutTX16+0Hr/53e33Fud6VCwSUbFg8FboLItyAfSkBotUwTYeOPPJIb5bCM6QLH816aFrCaNLjZh+X875725nkiWc/SyiRC4peQgxJ0fD5vmDWrOB58RV/ou9gfIX4evCG4YGg+EP5KjkenvEBmuOd9YJvFAxc/qH04Y2YBct3owD0oHYOBQiGwD4Vv1vVWarv4t7u72f+6qb49w31h8ReeJB7UFlo/lp76OF3y4OeJ0VYbjv3FNoxR7zfBldfrs8HCdWrk9L7k93/8FVWnveMPGh5xZ3T1T/9NtHaLDWuWmX3PXqRDMsnrURjhZv3DraTTviYFeXNUkXD96y27g7lDk1Qxvd4ld8K3tdjaGpea4WtK3Xs4XbM0RouNfg1yvr+hS1bcpkUv9q2Vh8mRT9SseBQKutljJ0jbOLEMzXcStMWH/6mjOv5ih2PUg7GND1v5dzouTfUr7VmTSRtaxhss6ZfaYNGnC3DYIDLMZQnPECLauiNCZY0HaIrJV376NXPi6ZWtLN+RGNrn3jyCe+SSdOq/YUIeutJkKpm9tXDgzWkXKh9S8Eg614qj98Nw5yj2EXviZahPqdUh9iDSx6aWUFfwYMPbibVNLGbnusAocbthIUTnXeRewpB9dvjz8WEk3H8CvX490VM3QGqcFRS+0FFp5hhVM4YcggLrE+UNrH7aI0y8pH2jyEkE4VgbxfuJsciZrM/au/5WZJ7cfE5Zkh1/H9iSE8v5XysTLH42vzt9qGlH7H/Xf9bG1w0yL4480v25mEXmFIYFVXcbl9d/BW7cem/WbnKEr9/5tft7ydeZD/YeJu9+6F32YiqsfYfZ95qxxZOlbddaJus1j62/Cr7zfI7bVLF4faj439kVUII3jD/jbZcEOS1Z3zUPjj4EoGZGgKBd0MM3v0cJXjpends+LF94uGP2OGjp9s3T/yeHW5THPAPaYFKttJfpYI+/9z8J7tk/ntstYyJjiIlyOwotVtOvMnOH3SOzd95j733gffb2vYdUvy32XmV53nSZjKnegop2vAyaIT54gzwSS86kd2rkcZ06WMK2qRJk7xD2dNPP+3tTFHkDAPCUKCfP61WOQ8d1PCW6GHOUCC8Jbqp0aENFGHTpk3+N+e78MIL3QAhhPCLn//Ctm3f5m2IN27YaP/zm/+xq666yg2SbCjgxYX6uzz+EBuEIfBgMARIeAqCjHLTXM/8iES5iIkllPwMfBIMgejHRHkYjYsgJoOQ3B8b9KD3Lnbowb2Z0yWeCFn9+07uw/tljY5GdO7W5M577ZEFV1lJpZSxjNDGum02cthrbNK0H6r7oDrsFWyXwr7P7p0316qLnlEFT77tqBtv06dcpyE5r7FNu+bZomVXWHXpKutsKFdd9hCbc9rlKg2eY08v/JZt3PwzGzfmPJs2490KGQxQuKzEdjX82R5/4tPWuLvcTjr+k+pc+CbbvOWnoqtPKklyhJ1w/GWKHR+v26aHAi8MAEICTHFbbI8u/LLtVVjg8PHvsbGHfVTvV+t57rHGneqMufRrCi/Uqqz4LTZtyscclaDsNdsRMSlqaI++/nQT/OEPf5h7zDzDP9ypMJv6nNDxcvz48d6lDyQNPinVXPG7lVCMF86cAVAEhl898cQTXv4GfWNIpHkWhNLgG+ZlYGQwS4M5HxzLOQi3MdODFsD8hOdoG0zXzLTWF9LjPxhd4co9Ilah6Vmg7G6KO504QWNO8/BCSFBNIa9QApqTXl08so+FBS7ockhTEmDg27QS1hd48a8ef3pguW2Kcs5ZildM3kgBlWiv5TDNuBHJUHDB54ZBlzeXlVkZey63hQfj8ffcf/f4tcZmZZRSx7/Pcj63ljtsccsyO+fuN9ratuX29sP/3r4x5dtW2iQYk26DEiok283f8ag8jDabqJj/+LLx9pOtt9tFj/yTDSkaaTed9gM7pex4qe4ipfjV2xeaP2vfuus7NrP6cPv3E+4QElBub3jkXFu5bbn98ykX2z8OeqdVdDLBrlBH75EiL7FxneOspKDYfrjhBzb3ibk2bMQYu/bIz9iMgukKQ9T7OsuEKNTIyxqVP87mN8+zjz70Plvfotjp4DLbvGqnXTTmQvvUCdfYxoZa+9CDH7aVjavsR6++3c6reIMnbRJewItIzXnwclC4jOxFMBHHp88+8CbQf4rt08qSnuUMFmIyGbMFZs2a5T39GdADTIaw4r2bbr5J5TgDXPEzAZBe5QhG2gvTzxzln+BJjmEICj3UuR4CkmvRQphWpyARjz/+uLcMTorrJfP4nfwdnopCKUZxe0kMTEhUdPiDsEnCzc+Tg8GCfs85711htuzhz5Fv+/T49yWiuUbwDPdfzheXqWNpLlhUtNlWLL/eVq6+yUaMGmqDB55qK5+9W95Yuc0+8RYrKT/NQwGtbX+2Pz/4Oass3GiDhlTYui2FNnrU39vhyi9Zvv6Pagh2s00c2aKxrlK+e4baCad8XN74ybZoyddsS+2PbeKYv7GJh71ZS6Qfe5FyAu61Jxf/UJ65Wk4f91nB9+fY1i132IpnrlSFxAChAG9TJcRULZY5E9FzFIqWl6dcFnvaHn3y81ZXe5fNOvxyGzHhypBIKIPc2ufbgif/Vb1DNqiN7ttt2uTLJPTHyFERckP4ID6j5Gnj2TPJDyOX/vupdfa22m120Tsu8ja/zLJg1gBzBRiCxbRA+II2vihxWnLT9poJf9A7Ri6GLHM2oGsGFzF9kJ/sDTwJL7z2ta91VA4DmcFYhBWY8wE/gNgx5wODBCOYc76Yij+Zl9GHd72Q0K0k+7s1lgKeT4rfdUFUDK4/Mkif81YIdQU4oMs7zyEGGRLfX4zfQX+veIkItCsi/gZ9+Gty334kRddHzwUVs+889xQ9gcf9H92nJfTroJzHHxV/6tzXs46fLGu8m7ub7rG3PHix7WzZYp+edYVdOnqu+vkU2cbWdYL4t8sLkUegMhWEw/CSITaqcJTdvuV2+8fH3qWEnoF2+TGX22GloyyvpcC26hy3Lv6ObdNEqzdPvsC+PPObUsQb7fWP/o1tE7JQKq+nvKnKSlurBPfLUMjfZaNbZTycd5ONKR9l393wPfvs0i9Yo5INB9cNteo8GSCCwWjkUlpXpnDAhXallPtjzY/aRx94n9U1bbQL/u4Ce2DhAlv28DL70lu/ZKMUE/3wPR+2DYUb7Een32avl8evHCyhBSFBKXnM/ETIpaljCBIUPJ4G3jyDeJgciDJmwA/9z5koSM9yhA2GAn0SGFLCuTACiHeiYBi2whQ1vCbmmWM0ILzOOOMMn3+OUkcYIiS5Ph4MRgDXBE4dXDPYJk2e5EYJhkOKgb74ij+RXvIgumnqrNbuibLvTwt3E5a5A3smq/SL6vd/cHePf39Z/UCgyo9Rs63i4gflrV9ltVv/rM5pr7LRQ95qTy74nuTxNhs9/oNS1u9y4dwqj/+eB/7Vqsv22qjRh9kydVwbNHC6HXvkG+3xJb+32k3z7ZgZA23N2ic0m2CoHXfSFeKbU+ypJddr8tt/CHWrkVJWsqDiukxdbenYLB9vu9oWn2uTDtPwm7zptmXjz23p4o+pNWyVqoXU0EU5AK3Ned4dtFFtjUeM+gcl2V0pPllgjzz5L9ay5wEbNvQsGzzsdV5uXKZ2zOvXzbOdzQ/Z3qZSmzn9Khs17DzRlZL8olvDE0yGMUqaUNcvf/lL99qZ9pcMAsbtMtUPY/Zzn/ucj6bGeMVrxwgmfyaNuE70jPJGiXM+QgqXXXaZ8wHTOzEgMBjSeGxQBuYTMFEQJI33mbEBT2JMMH2Q9wjLvZQef28U1032u5KPnn/klF5J3F3v7NkSryXFfzAapMvjzyW8xjyacKW/evx9Ei/drbzuX+mZ/BEMtpjZ3Id4fZ8W0I+D+qr425SMRSHd/9v9K/v7BZpA17rLvjH9envv2I84IX5lwefs8/d/yYrHVFqZmg81r9ltc8+8wi6b/Em7fdPP7Z2PvsMKhlUqOW+Hd20lTFWlXgXFgjunFc+y777qZpup/5Y3r7ALnzzfFtctsgGFA+QZVVpBq+pU1bENxh1XP9Zuet33bVjxULtxw7ftc8982RqLm5U3MMRK2krUvrVEZYcN1ra2zd56xMV2xazP2GMtj9rHHvigRlSusU+9+VO2e1OLff6hr6rb1eH2senvta8+/HV7bM8Su+2M/7TXVZxtxUx+i42TnOzFbAgSPAU8G7L8GR/6jW98w3swcP9kOQPF433jfbzpTW9ygfXf//3fDkUimFD4eDxkOWMkIAj37NnjAo2BKQhPBCFTBkkMxIDAA8JwAF3Ao+Jc/M5EQBKsyJLGwyLO2ltf9RcX6o8CxGk6ckFOevEcI4yZScJLHr87NtGL7JnLkN7vB1k/r0P7pPhRfH6LJIx12NYdt9iTi+YqybXDTjzuQ9qzN9rix7+kuPyfrGLQmXbs0dfqkYwQOnCv3TPvc/rWejv5mAvsqcVbFWNvsDPmvNbmPXqvNe1u01CbSZqq9iOR1Wg79oQr1Y3tRHvyacHuTT+VU1aj6pdqbwds+Xv1U+2PRe9V5cfYETMuVxe409Q87L8V4/+4lVSoaFa8k99ZJUOBGQtU7yjlcORFNmvmNVrL0zZ/gXJk2uZZo3IqNm5ttIHqo1BCgxlZv4XVnTZq3AU2afgXlCQ4VEY97YBDVnhCWeBJ6BMjF1rH4wfqJ+SFQYBBi9KGvr/85S87BH/ddde5IcvwHib48cI4ILRF5v+NN97o78FPjPzFy8dIxhCGX0AMCAEQFvvxj3/sCYQM9uH88BBGM1U1TCVk6qBXlkRt+WLH+A9EiElX9HbcgQO5Pd1MZ7wDXXL/n3ezG7r+CNUcoUvpKza5b39P7rkefz+es9tWz3vr+rXxfVX8DFchQntfy732pvkX2o492+yL079sl0641MGg/1p/h/3syTusfWKHPdrwhDWt32HXHHulXTr+GrtDiv8dj7/NiipL7dzxr5OPPcQGyjtftHmp/W7bnYo+1tjVR/2LXTzqYlvXusYuWPAWW1H7tL3zhLfa6wedZ2XtlSHGr8zwcqEA0wdP94d069pb7bNLPm3DBo20j8y63MbkjxXELyNBT7FFfazHV0y20cUzbF77PfbJBz9gm+Q9fOYN/2KvKTjb/nn+JfbnpgfszTNebws3LVROwRr7z1fdYedUniOPP3RV49kkJQSsCLyYFD8ePB4/ip/sdGL3jPZNip8cgMsvv9y9eTwRxqCizPHKeQ8oHwGG8PrQhz5kTCpkZjrxTDx+0AG8eaauIUBR6vxObsCdd97pQvHhhx92BADBiqAF9kSwZZsHvbiKv1+k97I9uE+KP1bvmHqh58mrf3rl57T3/2bDBw22iWPPtHxl629Zf7eU8GPq1DXBZky90obUnCfP+3+VwPdZa+lcYyfMep9tWtdptbsfs2OOn2BPPblIEfajbPL0YfbUEzdoH8fr/U+od8GJtvCpb6oF8i9s1NBXaSz4OVLoA6xJLb/rxWvrNv5CHRHr1A75Qps6+WNCHf5XsxKusLIBw2zShHNUvjdVil8zD6gwkuIuLJykbojTJGxW2iOPfkHIwl0KERynRMATvKy3QAhC3Y6nrLFtqQze6Rr//TWt4Ujvn0EzrtRdEJpEEUB30DohMBQwir9JPceJ32/auMne/4H35xQ/Hj8GLagAkwP5yYvvY1CDeF177bVuJDPa9/e//70byG9961t9kh/oAHyBAZCMcXiIqX7k1DBSGGifXBx4DJ6Df1wl4ljp34sJ9fdVV/R2XN90Qc+j+vat7tfLevzxkxBXyP3x1xj/y1ZcHdzC+qr4U6z56ZaF9voHXi9of4u9edLb7LOTPq15aUNVDldnje3bbKUy6N+nhLvdaln8qeOvtsvGX2s/2XyHXbTg7VZTNdh+ePJNdnLhkfrGUFvevtrOe+B8W1K32v5h8jvs+qlftO0KF7xlwQW2vnaZXXnaJfaJwVcrFWmIVHko6SGRak/nXgmfIvvhqlvs84vn2piqcfbd2bfaceVkE0vpq62QOmO7QVKv793X/nu75pFLbPWa9fbV82+wd5b+k91S9yP75IK56jOkfgFlKo3b0m7/eertdnbVue7NeOfAHoo/6/Gj+JPHj+JHGKHgUfx45Hj8CB6gfWL9CCSE2TXXXOOCES+G94hvfvCDH3QIMyl+UAFyB/DqKSPkuqM1gY73EKYakR1AAAAgAElEQVRnvfosvxYxzASDcm4EYXbi4UsH9R8cLb5cvtUnxQ+lOTy7R/kxj9rDiz6nToNPyhsvkhGo/nkKAeWra2dxsTpSKgdg5OB3ayb6RxUW+JM9uEDwuq22Y6Zdo6S8gbZizQ9snGYYrF5TaxMGv9OGj6iwpxZ+VgmC4+yo4z6haYfH21OLvmMb1/1Ms9XfZEccLZRNpYKqc9G/B+W1f0xKersS+063IyZdo4FFd9uSxVepVHC8nXaykIa8k3RcUH5dPxtlTK6zRx/DIL3Lpox/n42eqOoDoPzO9bZVxvqzK7+n1smFSuyba8PHvEVKvlr2NsOyuirvk8ffU/E3q8lMaVmpQ/VZjx/F/4UvfMFL+6jxJ+4PXaekWTL/CQVAzxjA99x9j137qWvd0MWooLKG+D3jgFH4w4cP93AbqAMIAobwz3/+czcWMBzobsdnafrfy0nxv1zovS/rSDzxV4+/L0/r/8AxfVX8rgRV2767cKd9Yvml9uNnfqoY2jB765R/sAsHvsVGCXpf2bzUbl7xfbuv9gHbW7fXrjphrn1k1Mfs55t/ae968iJ5+cPsh3P+zV5TdrKVt6ncqUQwt2L/v1//B/ubGa+1GybfYO0aQnHegnNsea08/9nn2huq32KVymDWFAOVF2m8aEeJVahXwKSBM+0nq++wTy26TM1I5PFP+YSNzlfyEaVdtCvlP1UhzK4+yRbnPW6feOQjtkmjlP/1ddfbmwsvVHvgNvvwfR+0/9fwMyseLUG9odB+Muc/7W+rFcv0Xv+hZjnr8SNoECxAkkD9ePHFCrTSFxsPBEWNoEPoAMnj3eN9IOxQ6iQHovh/9ctf2Xv/+b3u8fM9jAByKxB+CDWgfwyCuXPnevUAr9/97ne5eeVUACAgyY4GIsXASB3RsrXRf1X8B8eAfVX8Hd5Rb5tt2fkfisHfonr93VacP1mKcbi3pS4vVE1700rb2bDShlS/2o6e8SFB85vsoflfVBnfszZjytesZsAR9tiD77HKoTts8+5qmzP7RmtpWK/xqpdaVfEEO+YkkvRm2uNLv2Pbd/zahlXP0aTOC0SbMfu+8RFbvvw2a24vtUHDzrUjJ19h27b+zpYsvdLyS8bajBlvVFb/UNExyX20CFZigBIDS0tV+lrYIiPkBtvd8KBNHfNemyj0rrNzgAzIPepP8UdbuOw60VWHzZysBNrh5/o1McAdVYrhSRQ0Hj9IGBn0xPi//73va8hYswyWIs++h65Bpyj/Q4Gj2FH4JKjyk++nsFgKBYBgYRCTHEsfAHpkJKifsAL0z4uuioQDqHrh2nwGf5IvA5LmcyOE1tHlDjj1r4r/+fHEXxX/wT2/l923+qP425rlGRe32ROND9s/3/Mhe7J1iaD1cjt6xDE2sWKcLVjxoK3Zu0pDhoYqSWmnfezUq+3Doy6zX276b3uPsvpHlI6xW0+72V5TfqrltxTZ1qIt9o77/8nu3nOfnXT48XbTlO9bhwTGuQteZxtaNlpxU5GVdlZYWYvqBdTpsEU1A011LXbssBPshrNvtN8t/3/25bWftcaiJivfUyOYsjmUQvpMAcUet5bav/3tD6xibIV9WFn9tdu32nXnfMEuyH+rDIliW9A4395291ts78jdlrcxz2479T/s7AHnx1amoTYjq/gRZldceYVD9W94wxsc6k+ZxUD9vLdq1Sp//41vfKMrZJKPEFoIPRQ/hsNtt93mAgrhREITn+Px8x5CEiFI3BL4kvABSX10SeMnuQIoe5IH8fgxHhCQKYv6r4r/+bNYnxS/Z1XrlbfOFq74mK0TrF9dNtFOPlZ190UKRXk//jpbueq/7Nn1P1VDn2F27PT3O4Jzz33KS2lZascd/V1NJzzJHrznTaqw26CE2XF21gn/YU0Nq23B4x+0yvyJdvTxl1tR6RR7cOH1mrj2K/nbMipa1ROAsrx8xhrvVG4/41en2jHHXmoDq15ttbW329Lln5TBMFAKuMJbHDPYiPa7eVL8zU2DFAM/yyaMn2B/nHej7Wl93KaNfr9NG/9xJQIOVHJuu+3YeZ89tuwalSvU2ayJl9nIIRfK4x8WPX7uOzznVFsPrZOMh3K+9Ye3BuNZCBSGMPRJwh0xeBQ2Hj90TILq97//fVfGJOCBjgH1EwrgvHjsf/jjH+zSj17qsXsMauL2o0aNcoMYniPGj3Hxta99zfNnLrnkEvvNb35jV18l2XPJh51/s/MDXugGPs+f+l6eZ/irx//y3JeDXlVfFT+MnK8Sj3ZmoCqpaH7LfPv809fbA5vnef+IvXubbaC6fb35hNcJhBxqN/33D+2K8+fah8d+wv5nnWpp73uPDSwaYj9Ud7xTKk9Sq8kCqy/YbR9fdLX9ZMnPbEL1ePveCTfYaE0nPPuus2170XarVEtROh16Ux6UuXrqt+zusGMGnWTXnfYZu/ORX9u3l3zDOkbTmSwMSMLTZwwm1S1FW0vsK6d9x6pHDbAP//79tkkC4sv/8FV7c+mFQhFU1pPfaFcvvdpuXvBvVtlWYbe87ib728HnemKrT0+L03qyz+iySy9zxY9HTxIS3gowIkII+J+sfur7Udh48iQvIZCA/1HOCLik+D/72c/69xBwJCSh+PGcyIRGIKLsMSQ4Px4NkCmCES8LqJ9aaAwJroNRkWaZv5gxfi8pigl8uaRWUBcvS3qeiUYHTdXP74t9U/xofjrdr7D7H79YEznX2fgR59qsKR8S/UzQR+rJ36lJFmoQ9cjT8vBbm2zSmDPssAnH2byHb1ODqeV29MzrbPCgY+2ReR9V97xV1lo0wc6c/S3NUV8j+P4KJZmOtpPnfEQDu8bZvAVfs4a9v9HIY/UHaHACVQtsQf1KRK0uH6dQ0IUyKuikV6X57D+1xxd91ioqxROFyur3WHxqnlSotVbbjGmvt7GjJ9u9j95sW5VjMHPCu/VPVQHy6qGfHdsftUeWfVrlsatt7FDV0k+/RC27hWbEtth0RMzG+KFNIPYzzzzTM/ahR9ryovgxbPHM4QvQLOie30G3UnIfxgGK/93vVldOIQLMO3nHxe/w3BcS+xKvoPjhC/gMg2HMmDF+frx7jGiMYj7HSLjkw5fEIrguenjxPP7e4ubih2x3yedHps/5tofle+TXOmseguu8QhV/1ybmUidSTTJeYdzPfQm7/aVbJMEZZneHV1e9MumzYTe7XfcQEk9fFb+vgEFNDLTp3ClrvlgNeOqUfb/Y6jr36INCeSjVNl7x9mIp69odm2xEtcr5isfbjtY6W1q/XIKs3A5Xvf7gfDUQ4XRqE7q+eZ3VNmz1ZjuHVRym8cbl9vSeRfLuW6xEsbl2tezl2q5GJGgLlN1fJeE2XB3MGhqbbFvTFo09aNK55GF1lcjq+A4rUsnTWB3XqjWvq1vrrU4nDJpoIwTFcv0mZWDv7Nhq63c9oxbC+Ta5erJV56tUKgm39NAjREhjmS1bt3jCEOVGxBeTN4EQRMihlKnJJ/O1trbWoXy8PN7jGJQ63+c96pY5nveANgcOHOhJfalpEMINyJ/Sv7Hjxqpca1KuVS/nJvRAzJPvZDPfU3vnFxrqDzHuVJWcFTpJ6XdJocAj4QtJQHWTUpH2w4z6LmmVrhHSyLs2uJtAO8SlfX1S/PC9s+xewflPaW+l6BTuKhK9t3dU6jZpNa1hQrbD6htXuoLOz6sUxK4hK43q9iiKLymcrFLpShmEz4rm9ur2KvT5YfK6G3TOZ5WNr1a4FYrlq4tfY2OtjNttXlodxk0DYXszfhmfmtimxNZOzaZANLS1b7HG1vV6j2mGKGja9lLzHWRMZ4fKY4tH+UTQJuXqtDTvUE7CKOUojJfRwnAtDYXpUEOiluX6yfCwQRoZPj607WUXXB4FdZKeFTSM4oUviL8niB2Hgc+gVRLzoHt6XkDXxObx3nnhtSe+SLxCJ0Deg8Z5L/EF3TGpFoCf+D4lrKzDeWnLVqvbU+e8yfcSYpe+++Ip/oy27RLeTsPp6XVJ/KxmTjSOvEO3dBnWPfV34KPQ8TXojaQn4t5Eo/xQKP9XoOJPXZW8mjE86Ix2dq8m1VZmP4v1Lrk+TLkMySxBBIpIqTLJQ8r2OfHfkZf8SM0dvKRmf+ZETxLZ9999Vvy6HxLrGBtaqF79LUzqU+cwhu2E3mp8rl7dUtQqIPLpaz48VEIHb50GPP7yuTtRletcXhfsLY31GX249VkYzLKfFwxBu2uXPPG4ePru36LOutWh+wJBnen61GG1qF1qm5LyyuUJhbxBJgqyOCX10cw657Hu32Tua6lZf45Lx/bsGui9/aEF5m1nWvr2du703gud1Z/z+J02Eq1mm1lnmozwcaoDCwTtX+gyHoKw6+mi5HQ+Nx+ZI2cCRCIIPTIPDcrQV8Xv03ddFnTRSKsWGyZRMm1N8wiYNSE+CQ1WeMlIhhaVq+LZp9xv6EDsL0JUvEmHPA7ocPpVeSl/R1r3Q51fws9OhRU6RMcFUtr+AJltEcZgdj1L/1IYwSssLM43CIe6aKKHC7B4aiPu0wC5ZuBFsbs/4S5hxLmjdMvA6X4PcZpob3SckoTD3YZjeWWTUrN9KLLHJdrp2c46nSOFubLfSUawP7IXNas/0mrGoQvlrFHmR2eRdWUNgFwtf87Z61LnzvtR3fj9JMXAb9FCjn2z/BHkdEY0DiKJpcfTr5+vKMXvG+IPO9NYISrfpP1daSfJlT6LRMZHYYhuj91NjzxnqYVfUHuelBaPzzoywbqL25krfn7+yr+vit/nSDObWXB/oZLmWgSD18ujqNJiaZPrYyBdYAXPnLIfpApd8HxaKc8CQQnh6v/ciOE+QjF0eETk3/izRonIJNC1OJefg8/1HoMneN402WEGug+wQODTdco7T/GcmPIWRgcTC/UGvnhcekP63gUtwyh43mo1FEZj4uVr/rQbIgy0YE9DP9a41sBcOcWV9jj+zH6WBExPgdTbMT3f8x3WtdMwkqTofc4DNorP3Q6fp2Ozwi2990Ir/sQbtONlqIePDo1T6nKdyByliYZyVBo+kSzxQ9TyLrNcTkbF0kPzh+5l3H7ul6TzotSMUvRQuDZcKvYT2H/nPughtCjOIR9aBsZkO29oLWkwi5MTdKakUyb5ddIVjeEqPC9oFWNT9+7PUSECWrWG9ygqZZ9lPEhhO20y7trbtAYjp4PjFbKCzvOV4OcspTW0wZfY3L4UHcl1GfPrI7Ux0hkJLgOANsqBtAJjxPkIDA/zKzCT3feXZwyPMRhGKwm3mNup3vgix9fJCYrOT2/H9ue9jvZk9YcrJJ7g98Q3vRnGL6bi95kq3nNXP/1hhfG5gcaTN++/Rrke2aILPo6PLx7vDNDlhAYWcqsv/OZIGtcJ5+yuL6IRwEc99i3t0YF+vqIUf5JQftPOlHCSyqZgWkHOwHXe0NDnJ8MoYiefzEd71xbFnEnAQemEBjBB6CVlrW1i7riEB13uWtUgp6xSs7U1mrZTcXQa1qghpTsDKLu2AmKGEA+d6INe6mK7A23bvj/vs+JHoERfpiBakAgXJgQWRGqCZp3GvSQIYYMQ5QFx211COyw+J23CQSgzzKQIbeUabiT4I96CT4yE2QO95wjfJVDqD+9vx/P7w2IhceCF74+uhGGgz3LOFp5N9lou6CLM5vcRmOvFeGXhyWQYZJP2fOdjVnV2Pdn1vdCKn+v6tEk9S2ieYVNtDJ1xZSBUiLG6omEUFXouzKjXJ4Ru9EU8WHdKtaGFmkbpU9nYl2j8shXcgxs48I+EPefEA8bozCtGMbLPMuiU35FrKOeCsOv5HMye9Unxs/ZAtkH2ZujTTbJIfk5fOWEblG6a1cZzClI6GM5BkwaDFcXs9+EnktKHVl3wK0HPvxMv7q6FZAOGqz4LSjoYzh4ySQiLnyxYAglh9OFhOSQicxM+WyHCCRj1Oo9PaA23FVgtc/iL/WvW8D3QeOuea3vxoH4UP05EtL54pK4neHg8U8IpSFQCi3zGDmKMBaiG35x2c3zOfnMSnVa8gNHJz8LCCh1SJP3R4misO16O1MASASEML8538Dv1ilL8/sx8zGt4aCSXdSpuVyhhlo8ljMXMf9qQ9nbN4lbN6KCBNVaglrWgxQ1NjdbuwrDd6hr2Ksas77u3q39S+nmKOVdXVnoTmAIJv6JibaCPuJVQa1Gv8CYpVaBoubfNxdpY936DlY5oCMI/CLmDffVV8bsQdk0JUQbiTBBsNGJzNOariQLIhY/TXRIZcaWZP4P3EtARrkP7nP2/wn74KcIm+RnCnHen8ShE3SwLwi0aXeHj0GrVQxAJTYiKPa09SbeeSjgbPz/YZ76/72UNjJ7Gxv4+63nOF1rx+2P3oTrBs+RJt4hO26NwK0Y4Ke2iQ1PkSjQlrqBE2IrIhtg0k/c6ZQC0KdmxtYnEkSDgOlDo+K6ailiifgUFbjgHQVegkbHFKohvaVNlR4EgdI1oZkysIzVxoAiGt49wfp6vPin+KJAT7+XILpBjN4MgG/joWlo0frt85kDDkYv8STjyFUCxpGx7cFEXvTsvRCA5omJdlklmdW4LRHmWM0iyqw+MFbzHeCOgb5nVHby0eZ4bk0RHxgjvj0Gek3WiO5JyaYXNrAuaZlVKDqf+//055774LotgpAmsQVSRIwV9eKaGZjhI9ouWm1sJ1+gd8VKTqoc62tUpFT3gzgdGHzNBCq1MCczsTh785SOXy9SpVI4mVSRETAvQEZgNcAYGI4gmTqur/tye9ncPX1GK323eaPkCu8k/dzjZPUEePgwkt7dQP8vVHapNRkGzslFbNUd+l7K1V2xaYQ0FLabGdOpaV2TFamhRIE+F8/p4ZNXItuzWWJs6wXXKVi/WYJmJgycoMWWgD9AqKClTr3qxoDJk64tkzck4yJP09O5ZEZbrcnUOjqn6o/iTlMmJp+QRJyXcbQndRGHGEHCyjc8wxqZ4zi5IUQphBOS+mK9nHC9dMquQQ3vJKEJTMkD0bLrEbViDo7L78eZzgv1F9PhdPsTr9YRA+yqUXmjF7zTsXkXUdNgBrnT1TzxR0NZppUo6K5RRW69GNnRyq9u1U7Pmt6vrY63V5+0NoWhqrD2nIigu5cgpMSx4M0yuHFQ1yAYrsWvwwEE2qEztm8UDLZKOzS2anSCjmNkQBcDXwOgJVcrQ4cEYxf1S/FFV5+gqecZRWeeM0micBqM0yyhdqjz7UfD0Ew1H5CNDFymnIZ0pzZzvQgJyWjJYIen6yVrOQcocFz7vMmKiAZ1dplva8aa6rf/g5M7z+VbPuH1P43x/534xPH5fj3ve4amnkdQkWFJ5U1JeLCOjUWWbjarU2KsZDNs1bKlWCZka+qBqCfqC5KPA4Qt38YUNSVe4p4+zWFppwwYOseFq012syo28EnJ+KpWoqdwl8UaRlAsGMGgaoU13NNllpkni9mhh/TWPXzmK3x9YAMXcv8aaltJuZaQoD7AV6FH6uaRCEGWLrd+y1nbX77Z12zaZSm1twJElNmzaEMufpKzbUQVWXjPAigZWWrMaSTS0a4iMfg6QFbdn825r2Kqhtls7rHF5o21btt0al8pY0ICs4dUjbHjVQBtfM1JNunSs2tAC5+WLeDokHJOz4AybmNKFQ1BqOaWYvO9eALq+Kn6yc7kgUFIQ9V2KPVmP3byR58SqstI40LP76Xh6MRkoCJ++kWSCgbOGQLqX3OPoFjMOKEkwKuivHvpOp1hgSoLr7bx+vwkR6OHpPR8B9kJ+95Ap/sgHOeSGZ5GDeDyoE9I0gOGjsi7XDAY8j53K3N4tZb9umyawte40DaG3woEyXsv0PYzh0jx5MXRVC4mX7tW2qZJD5O8eUL3CB+pd36TqDRWQaLCTutdr4uPQAUNtWM1wK68stx17d3quBwmPuWgSQjfSlSMAPdGmAzz4fin+HD8k9fnck+/f4093nqL2gYtyBh+s3Avf9noLEb3KftY96TGjuHMuX5elkiQGt9TucHLgz2518BF+fiFp94U696H0+H23cjH7JG7jTjuiq/CslDBKvBO0SgZweXmp7RQ/bN4p47dxu23btUXKQaJ9sEK6VZJL6q9UKAcxdRr05w7SqvO1qma6o0k5GkIDOrerMdSuemvfLTtBCMHQUlU9DB1uw9TIrKyswnY312kYVJtmLpTIwSTZVCitJ2FH+Ei80t9Y/1+44o/Ml1OiAUoPJjqZ4OTkqBGGBFJpoQbCVFfYsmcWai76VttRusOGvqbGpv/dNOs8psGax9aFMjP91yzBVK/pdw2CN5vlmUikOSxdWiChJ3ymWF5MuVW5xVepUqDSZytswKKBtuwPS632t9tscF6NVQ+rsKnjp1lRZ6ntqVObUKEAZWXU6IbOVAGa6xHH6aaJk7/ena36qvg5LinqJIiSqDpYRu3p1SJkqHFnGA3lOLTbdLEYBTl/U6JDq1tKgdIrK5jS8S4u3aMX3BU9UU/GikLUFYOEG54oNcV33XWX1wMzPMez5zPX9XsnBAHzRMWfrt3To0yf9/TU0/l6eicH45H25XkfMsXf7WKBxoIrE0I/PJOmRhonqa68TC2FK1S7vW2jbdi0xbbX77COqjYbNHaIFYwosKaBMnCLWkT9guolDD2K5gmaKY+S4TCUvUWoUnyBkYERUFKv0rZaDWDa0GZ7VjfYkOLBVjOq2kaOG64yUTWpaQxxz6Sonqs4ezDDfh7iwSj+vuxJX4/J7l2BjPz56npHl0hoP81tgP8xWvnJPdP4aeqUqYobQ+9BmSe+6Zkln0WNsrTN796QR2W039PgJ4buzJkzx7tOtgl6hu8TD/TMxk/nyfJFdxQu8FA3oyTydXY9fX1GB3PcoVL83ZS+21KBJ/z+Ipnxa6u6kOZLyQ4ZMkAtvWtt9co1tmOXuiJW1VvFuAqrHKnhSQPbra1MqK+QYZewbQW+Bx7D9/wWkqoV6hLM77QtPishN0PIcn6zDINaoQdrO6xhY70NkA4ZMmKIDRs/SuHjcisQWly/Z29uVkF2b/oru/+CFX8SajHiHBV+8CKC5dukxjB5ijsOKB9sa59dbc9ueNo6JnXYsH8cYuP/fqw1DxN0U7DX6lp22K6OveqnJSYkRhkSsENOj6CcTtpH8iI7lVdI3NV1JNzUBKcqT/XcBRpdo8lanRtK7JlfrbBdt+ywou2FNmPMLBumed8tsv6olQUOdTaPcJ6fL+f6hPi2W/0ennhuZKc/ij8Jk4Nhut6+kwRBysQFBqNrF81rqM2ljjer/GmAQ8MOmoGg+JOwSUo5q5x7Xi/r3fN76jHOVD2a4aD4aRLCgBAXlF5+ELKEU59vfu/tGgkt8EePQiR5LVNu51uta+bg2HjcC5kvcMgUf/T4g0CLYDTCzg0g5bZIaxcXqC+94pTUnz/+7OO2q1FG74hOq5qq4Uo1EmQSXB1KWG1pD4ZcDu7O6uJUwRnTMnJwuMMAhBWA9enkKGO5ucjq19Vb8zNq4azfD58w1UYO1eQ7waBpD3JNjByK719i5stB8XMfaX48LWgZxYwxTMOnRPfQGHXu3CtKmgFOxKnxGKG3ZABkS+WySjZLt+l60C7xb5pCffvb3zbaQ2OIpw596bjEE4m2s8hAOiZl2+cMCvF39pXmS7yQfJC93qFS/E5j0eNP9Jx1Yvx3yV2cwzbldz29aqHaLW+3lgGtNmiqOpGqk2hDoaLybepWIoeQELLzhKdOhZyVEJmMhgSfJx3CT+9nFjKhivNLVTZabEVNGg2+od5antF8iPpiG61eChNGTQrx/ei45J6ze/z944u/WMUfATa20xO+eHVIWeYrg7/Qy2/arKi61HZprOWixYusoaLORr1ttE3+p8m2d9xOta9dqP7vClDyVW90kzYyeki+s8COUfl6kD/BbBJqgv0JJ3Tg5ZLA0aLhEvq4uKjEpmrS16A1pbbyllW29ucbbWBLjc2adIQa5lRaQ32ToH9KbID+yYkOWbhkkJKPkKe1UxZHGZFn/nZjvS4IGwKsGVTjPeOv/OSVNvfquQ6x0m/b4ar4TA6lh5qIKes90MrzBz/4gc/Rpi0tDUEQEO5ZRo+fPvk0vKEzWGqZmxQr5+I43udzBCNzufmbpjcIxtQ0hGM5N0k+GBmzZs7yRjm816KqDPrwI+A2bdrk56LBTgoRcDzrpykJgpLr80oKHwFNQxO+T/MR3u+tBO9QPs/ehNzzreNPiBeCgux9Mu+dttzTUbyyuNQ7Ny5/drGtWrvCCiYUWsVUwZUji6xOzV+AHGOCelxe4oeQ0BnzVLvgqACuhVeIzoR/iXBJlC5UTo1w0bJG8eMiGRmb2qxKSNnMSTNtQOUAsY4wNWroZShQSupFHX6K5xq+PdjB/3y5KP6kbGnnTEc66AhECnrmBe2kXvmvfe1rPUEtCXeUvz9C0T0Gc6qfh1ZpppM6TtJIh3803YFWU8e9FStW2MqVK73J1NFHH+18g6OBwgN1YCgVfMb3Eg3DJ6kEkgZWXSG8sFbOjaHN+zTy4T56q9nvbU8OxXuHSvEHdDWsCF7wGgwvPaaUUxC7ZDYZ+7Vbt9vTGxZZR3m7lc5Uk/DRpeoW2qwujZLx2fionyshaRB9/D3h8TBANnFZYbQcj3ittBODogYlVt1abrufFdS/XP1UlFg7fepMG1kzxpqlJzw3TUF/wsQe/XLnpm9G8V+s4ncbLjr9BbGJRYcUXl6DOtKpo1aZYjCra9fZI888bsPPGWpTPj3VbHqrLWtZZrXN260D5DkkGXdtSpJsuaAzGxalGE/e66FCZjmJF+6oE6vM1La70NPeVhZV2uT84VbyTKetu26vbfz1Vps99UQboByAfMFw+Rpg00GCE1PlmF1PjpWacBRSc+v1pAHJ6BlBfyk9/iRkE1MjHIDd6XXPwA0MAARUzxfChb7fDOdAgDjMOXWq9/9mcA3f+cpXvuLtPm+99VbvCY7Q5HeuceSRR1f1T9IAACAASURBVHqbXNrgoqDpp//YY495G16m6uHhfOe737Gz//Zsm3jYRO+zf/HFF3vrUM5/++2328KFC31ZU6ZMcWH86le/OpcVTK/yX//Pr727GMKY63A9xooiqHnm2drjF0L5HzKPn9i9hFuhtHuRiIoqlRbCVTJ0BlYOsToZVk888ZAM4T1Wc+wwaxvWqR5023RcLCVKnkr03BMUmt3TrpwMl0OBf3J8FISTJ0sBcUbXh1wXBG2JlHtJk0YmL25XjkyDhs0crg6HE6VgtitbWoNpGErjopRz7DtpNLuel1rxJyWdjE/QKFraDhgwwB544AH36Ht7MeL2D3/4gxupIATwEDMfoGcM4C996UtO/3jztNY94ogjfFIkBipz6/kOE+54EXLjurNmzfKRuffff7/zJXz2N3/zN85r48aN8975GAjfVWhg8eLFzk8Y1iAF8EwyPBmZCz8vX64OnuJPzkNba4z4niGAoMf6ZqT1+iD28eahU/wiai/VoyxYdC5juES5KYj2IoW7Glv2yjlcoVbI26zqGOmOaSW2K3+3RjF797Kg9LO3F4G0CN12HeMCkmPdyg5fQldkno9XWqXvE+rVGkrUkTFfcenOtXnWuKDBRg+caDOnH62KGIWe2zW+WwZep4y49JyzKNC+nudfrOKntALvGM+Ysj1eBRJ0+eoTXzWg2h59+jFbX7Lepl6jGe8XjrI1tspWqD93UZlEimKRbWqkkdvQLITpUi0o3tzPuIGpXMf3NX6Mjo6SqrsBgdEnQGFM4XAb1TrKdvx0jz37L8ttmI2yY6cdK8+qUYSl9prYfc3VWo/yQEoa1GyHTnvePsQv0tPnfykVf4Kg8EqSsEO40AN/xowZrlBRnAkSpP0tShsPhEEc9L1HoCHIQAeY/EXrTwQYIQMG2DDEY9q0abZ27Vq/BggC3grnQIHj5fA95n6TO8D0PK5/9dyrbfaxs1WdscuH4fAewozhILQcJd7KuhF0CCnCEyh/fn7mM5+xCRMm+JAd2vgi7DBQuAZGQBbh6AvT9Ue4pWMPleLP5bgA7aM+3SgWlZUW22Y968VLn7KSwzSp/cgqay1ptz1tyjgqjV5IAKECYgld9+wml1tsFISJb5LHr5+hL4TrfeCUqPfhKXgV41lGlNh1kBKcOja22Y57d9qwyqE2/WjNm2/GoI517+5E9U2ZvNSKPynCNpX/UuKLAYviB+qnl30a1YzxCPJFWIyRtUuXLvVJkBiczI1A0cNDIFrQLjQMDcIf8AS8Ai1mkTP4BWXPsJubb77ZR+f+6le/8j78oA7QNfyI0Y2RTO7BRRddZE899ZSjX/AXLabTQCp6+N93331u+HIdzg3/LFu2zI1fxvOytp5hh4Oh+QN951ApfigydW0UFbozhwIuLy1TXst2e3zhU9Y6ttVGHDPSmlSGvVs80aaqLCdiDAanaP2dEK2s4k8fdyNV6D1aAdFTz+UVxDyAbqQN38hQL+sss8o9Zbblga1Wkz/MZkw9Wv0v9E2huyWSe9lcpgPJof/7ih/hlXuoEQBEfqTSNNrUKF0fAUfTkPLBFfbAvIetrmavnfKDk23P8bW2ZNdKaytXI58i7RKutTazVV3sfCOzm9nN40cKRu8lKmGvIceT8ZhQFI6RLJ6j/F34yVJrUaxYQm964XQbOG+Qzb/8ISvaWGonHnOSf9aiWGp1i4Sg/msqVRUAFQhevxHvtQd3vJSK30k5k/CDAv3KV79iP/6PH3uv+9T73o0wCQl61zPAg0ldHIvQIA6JgsULYnrdzJkzXdnzwlNHaKHcETwYByh7vCDOzUQvBCSGA0NymIrHsI9///d/988wOiZOnOjCDygVIXfb7bfZG85/gwtV1nTdddf5+RC8fI4xMm/ePL8eCAGGwTe+8Q278847PYcALweBXkiNerLxXkDvpr9Qf3IwEo+wP8TX25U+3Ob954WCyeDZsHmjrVj1rA04VkNdJhfYLv1H9nLIY4lEzMmyHn9PoZY1kLN0mTEAusUicx5/UPxIQzCsDkHZSgCwqrJqK9tWZlvv3WQD8gfakUccZYWt8vLJpSGuGaXjgbzJl4PiZ40MqkHx43lDV6NHj3blnuL40B9GLMYoSpoXxzIpDw8eHsLoZJYDqBb5MeQLYNxitDIkB5rHsICXMBjw5kHdoFW8/te85jX+GUgC43F5gTzwXY6F1pkyeeopp9rXv/F19/YZvIMBz/VBKOAlznHWWWfZdZ+/TqXP5W6EMLL6nHPO8Wule3oxeILQR9/r+LPVFoHi/BU9byK23uOgLN/Wb9poSzBojskTX1TaXiWlNim8EcK+QmmgWe9mhZMYnEt/PcfjDwhXt1emkiYlbbrjFNcSjArOFb+rSxTK66/Wsy5vr7Dah7Zb+/o8O+q4k2xIhUr/6hWGlMwkuTar9PfJkjEkQPgJuYgs5ieGJPTQsxVz98X3vJXeMJ79feMAnyXiwdOD2ICRiCmhFPxSPBPHursr4LCR8oo9S1nZmKqZLCrR2JjqTnv0oSfMpuXZ9Fun2LZxW2xN3SpTZ0xlJ6cNix69x2Gym5h2M8ZsvEtX91cSXSHNogvhTLLyObCobyzXK7HiPQV2uAZnjNg00h5658OW/3CenXHW6barYXuAZYnLY8QwVz6KvEBL3Qnq5aD4IeREOCjPm266yZX55MkaYpIpu0Oxo0xR1ig0/jGtbvXq1W4IIAiBHvHmeaGc8cBPP/10n/tNbBJ6wAtBIKHwmZyHUGXePYl9vAckieAifsmkMcIEEDz0xBoQeIQFoDfGjSLAyI9gKtg1117jP/FsENSzZ8+2o446yo6ffbyVVzAPnSEqMhpj690DWdoHyw4H4/FnlX6ikrQvTGXsUPOcamUoP7FssW2o3yAYc7B1jFDFiqlUL6vsMx57ikU6N3QTcPu5s4zi9za2CFaIl4Y9EfZPcVa/FH3lObeEXbESqqqbqmzX3TutZE+pnXDM8d7zAg8UYR9iylRnENrrUQUTl/RyVPwYpHj88AQKNSWrgoLRhAaaTjwBcoWiJgGW+547d66Hu3iGGKDQPOfBwE35LihvaB1e4X1QK/gQXiOEAH9wDHRLmA0lDv3DL4QBTjzxRDdA4FcQBkb0kjvw29/+NsdboHjwEjzBmuELUAIUMefNJWR6WKdv6Ex/+KP/Hn/0xmKY1PWH03EICytP20ce19RU23JN0Xx6xVIrPkF5QZPzrVEDyNyn4QuOesW5B35fItSU0JduIB2bjXv1dnNRAWdlZjrM9Rey1Cepihfk8LWplWa+ymUr1QNjz7zdlr+iQM9+tpUrN6dRfQSgkVzuUXRIc5U7mevnPH4hyFXVVd0UPwjUy1vx+41EgvIf8Wl7PWZIeOAdVGXRoGKbP+8xa5vZarN/fIw9M3CJ1ebVKm7u/RSCEPNN0k/vZ5lT1/FxZaVc9vMugu7m8cfVZG0SP1FGCHYZAoWC8NU/r6FT0/Am2Ogto+2pf1hoHYs67ORT51jjzjrJSFqp0tuehCxim6FVbc8o/0up+LN2X8qE/+YN37Svff1rLhQQRECHvb2S4LvjjjvcyANGRLCg6JNFj+LHEHjHO97h3j9JTQgXBBjKmtng/A6MiqeEgESQIfjw5IlDEh9lbQgxBBvQKucBzkTQkvDHPwyKBx960DZv2uwjQQkPkEzI9RDUxFMZzXv45MPDCF15/CnhL5t13R9Btr9j+6v4uyl954Ms4eG0KHlIpXbL1j9jK7evseGnD7HmQa1WpyoW0DLakfnMgygr6RqaEM0cmnUQir+7x98FGTjbwXWcPDTD9+sVKPEvX3k5QzprbKeUf/nuSo91ExKK/lEE3lK5Z3iKPUvP3OOWYiOkQxUJiA/0SEIbtPZCZqLnDI/o8RMfxzhFSKNIMQB6vvhOSgZc9PQiu+gdF7lHRgIdYbFUxfL/2fsOADmv6uq7bWZ7UbOK1a1mS1aXbNlyr5jmVDAYTAsBfgKh2MY2hCQEEiAQIIRACiUEAiaE5gq2cZWsakmWZclW7221vZf/nPvenX072tXOrFa7M+sZWO9q5puvvHfruY0GAdGolStXKhLFz/k83/nOd1ShM5RGpU3jgSgCFT8/I1JAXiGtE1FjfL+upk7e/4H3y44dO5RPOUKavMFjiDhwKh9j/8yDIT/R2CZCQb6hEU407Qtf+IIsW7YsxrOm8FND8TsBHHZUdHzijEY6VoVwKvfu3ytbd70ixdcVSvPoVg2zdubCo9dQFL6gFVt4k5YCO+r0As/74H3MuO2Rvy3fJVANseMClmV9v2MJTl3AC8BDRdEIadxUL63b2+TaZdcqTbSyQ6CG0Fy+mT99j/TFPUlPjx8rwZgjh1i4JiQuru/KJ2jOMbEORFmaJauQ7NU2vkOW/XqRbB7xgpyCZR0pzZUmTeYw3e49kJi/TqqI35F4j79L8XeN2nAuUmgg9rzp/iCeEkZjFBO+qESmFk2VGSenytM3PyfRfUWAc+ah2Umr9ntmPDbWOz8FPf4uj9I10/na178m//jlf9QkIwoNwpTxL7NQqViZQEQlTDifgppK1xKGqGhDj5+Ck9A7vSMK83iPnxAoY5sUbDQCiBwwVGAGCoUgcwV4DMMGVAJ2LzyGUCoFH/8mFMZkJyYDEm595ZVX5LbbblNBx/tMqeQ+b+krFXpvvV1LfpDUR0VO3Qqlv/cgSlj3AzpeWSYyoVNOtaOrjo44AA8hFyZX61YhTKj0veJXdvHGQCyDPz7D9LQNxhs+ZNbN46eAinn8/BLjq76HBXuis8wJTX460cEsivsd1zReDv3umJR2FqtyqUcDLFcEZUo/dT1+Ph2hflaW0CglrdKzoiFKL7mnF4Uy5QHRASarkndosJLumABLunzkkUcUNWOuCQ1colJ83XPPPRoG683j53WZ5EeFziRZVt3QCOZ7NEx4DeYfWBmhlcwa/5JPmFNAvmDlEI0FJgUyNMfrWtmsGVTn0hhOHOp3hixbiedwzgEdKRC2zvqAV0106VjlIeQ7bJXyK4qkc3qn1KJnPuH8DiRbK/Mw+qWzzVjGTcvUkW1shKNtpAl/HQxGhusF8dA22Q4ROQ0t9KFjlolzpgt5h8mHmtvNIRowOopyS0TW4lF2dsiSZYvRdB6zNFhqjBvTih0e62VASGMxjx8JikQP9u7rgvpp6KWBx+98hU7tu48HxqqwEIJhwDowTcXIcnl172bZ07lf5v9kptTMaZC9jQfUQ2vHQ3dg83RduEB+8ePQc/ehvmw3A4na7eAuE818mR7WvDuPxw5gBqeHQRtFpkenyOTt58tjtz0t50cnydwpc6TuFGr/pQCE5Ad+pJjiN4VKIcG4dz5aGhPqZzySgoXxcHojZFRLAKS3cOWVV6rHQWienjs9fXoQ27Zti8HzFJKMHdJT4YuxTCYRUcgwdsnSI3o8hO0pVAmB3n333er9UyDSgGAPbyIKGueGNcwGPzwfvT/mGhC2ZDyU79GrofC89dZbVfnT6OD1aJSwwoAGBD/j9+Jr+s+ld5NojF/JSkNJLgzZBi+aZaxZmBfBbmAnG07ImvVrZMxV5dKGRpLoVAHLMyBz0BiTVXkSTVANWcAouB8e/2mWdGhFxBJm6fHTcHfPoJdhdjPbYiHf5cT/HZSxqPNfuHCxnDqG0F8O4Fi1IRwzhTHTUKAOlcdvQtTCE1T8pF8qXcbE+Zv7avdNNIOhpPkL5issz8RWhpp4HJPwaBQTFaPxQzok3/C9N7/5zYokMFxFdIxG7Vvf+lb19knL999/v8b4aYAzlsv3qMiJANDItaRWGrOE7nmOGTNmKM8wzk9Dm7xG/mIeAXNzmCBIY4R8w4TBOXPmxHJy7HlsT7oLvrP/V/JQv5ukyHbQOZqRz2mIedLY2ajx8Shmtjyx6QkpWF4gOZOyMY+lVrJAWDqKnKTlw18xxCvMAevtcRKA+k+L/3fT0F16x13X07gPmVHBl0mFnFp1QkacqpCl8xYjN4fH5KHTIGhKe/z6Ewa2h62dJUinVYxfnQWFX/BEOsKVyp8gJmro4bGg8luao42yasfjsvLbC+TodcdlR81BiRQiA1IlClPmnFDj/mi4RhdXi4UCKWguTQj/hxZcaBC4r5lMPCN560X4EN4q9Aez+19RU1RmZMMKf7RVtv7ZdlnI+FmkAvWbHOfJhATGSe1KXVdJBaif90AhyxgshQjheSrVyspKVfomCKgw+d7atWsVSqcgYf4GwwNLly1VL5xJe1S4FFZU7Ey8o4dEj5tJKBSYFJSEOhnDpLB5y1veonFIhgPuvPNOTTyiJ0OImN6JCmLQyfqN6+Xd73q3Qpgj0SebxgW9llY0dvrC57+gECqNBwo9wrH84fVY889rUijT0GjE8KYIejWkDNTvqCpGiIpOwmOnk1OEyV+d6OXw2DOPoj4fdHZxvhxHL4s2Zu77aWGxL/OLsRya04XHGWk7kQ8tlVpjpkyS8lCC9sTge2RK/vYeE8IP0bwSGXFihBx+ZK9cPPtimXD+FDlVWYUyQDeO1hpbhZUlqRDj5+NY+IsKknF5KluiXHzf6t9JQ0zKIyzPODtpn6gWE/yY68TEVCJPNEzptW/YsEERL3r85Ak+K89BPiI9M5wxFRA8DQ2ek4YGeYgGA6sBmPdCxc7z8cUMfRrE5EmGRci3zIMhvb/73e9WQ5d8xu5/DCsQYeBv8gSfhfdIBI3oAY0R/pihnQhJJHNM8orfKUGXY+ImKSpvgN4i6FC5fcM2OVxxRPJWQm+g54m2Uocc86CSM6TNowv4S/nF19CfUYmf6eEMkw+So2PJ46aYnOR0ZzHeYTFBdkTKG0vl1KMnZVrFZLlg4gUoQUSvAThebWgqpIhCnIoKFT8NOlP8RJBSP7nPr4MO12GEBk/HH05Lysd4QzbOeebJR2XUR0tl0r1jZH3LFukoZmtXxMnzfF0yF8QvCtsxsuaeE/cC0dm12N08/p52sR8evxGTCj93KTZWGSlF0lTXKovLlsvOj++So/91VC5bfolIPaHQ2IMH90a52ZU4NVQNfGxVTPHTg6cStoS6UBDQk6bAo8In3EgInULKSp0YJmB8kwlP9FoY22TcksgBvZ2f/vSnKlhYykRBygRCxuYZDiA0yhg+jQDGUQn3E3VgbFI9Q9UpWbIFpTr/85P/Qe36C+rZT5kyRd7welf/z6Q9CjwKOgpYxjyJRLDciuEHlg3y/nXWA5tw+NeQe/xUmFqT7PJcmAfSwngfsvQrMF9i/aYX5LAckdHXlEs14X1UsyCSCWGCLH9vR7sqgIAPzoXHrwLTLhgofpt5bna2XVvHAebImJIxUrcOVQcb2mTRVcvU7kfjNCCxHIfr9jXVYvxcTctjWbd2nfzzN/9ZDVi+RwPZ0AoaLDSGCe/Tcyc6wKY79LKpnH/1q18pFE+YnVn59LZpINOTZ8If0Sp+n0l+VNRWx//D//6h/ObXv1FPnvxGxU66poFAZU3EjaEuKgEawkyeJU9QmdNAoYHL8/F+abzT6HjowYfklVdf0bWmAcDQGfmNPBl2tVRKSonkPtqQLi9K232D9jpA+UXFpfLyzldk156dUnHraKmLVEtrh3NQHETv5EWP4t9Efm+fn63Hz3uIZRXqP9x9+etqEzckIRRiql9xfaEcffyoLJu1VPIx90IHZasx7EaYB95sLKxA+RUqfiKl6aH4fTyTiAYxTZYpcfJtWclI2bwLrRUrDsm8786QF8duljrCnSinYRcmNsexzYz57hQa3Tz++N302Gm4gr1SRE+GQQ/vhZZel90gUcafINGKmytkUc0sefytz8mMU9PlgqkzpKGanex8PLOrllGfZyg9foM0TRla7MqYvre4kXk88W1DrWsejQiegx4/y/2o+GkAUEDxM4trWjzSklasMsBWPYyh0epnxyv2kueLAo5QLA0Uy4w174mf0/iwzn2MgVFgmpd2LhPD4u89IajfmcGKJLFbJBGsBngABYXwzE4ekBdf2iwjXj9B6sqqdAIlnR9OGlPUCzTI2KC6Ny7bznv9CdJzMocpvXsvP/574fv8Ww1k527lgsFHdIyWU49VA8GIaJlfNgxiV4jlMqGdvOzqYpYKyX3ayEuRxRAt7ApR8J7Dz8K21Pwsnn/4fITc77jjDm0mRRi+uaUZCMgpmTB+gtJ2SKP2/XBd4t8Lr8HEPRq+TGalMuD37Lu8T3r1PIZ/83NL3O3pOsmQRaLH9sfj14aoIBU25uRI6ew8Rvyz5Lktz0neRYD4Z6B9dAun5TgWcIiXxZu4Qb3cXV8KPtGHSvQ4vTcm4PIX0G3waVmkSKpW1UnkWEQuv3SFNFc1IwwW9Y/hW9cH57dKAoZfzeNPC8WvDoPtD/5BT1nr96HcgdPIY88/KIu/t0Dq31Ap29r2YpM52pAzkQnzdMH2BpkrJEVBqYKTOxwq/sAlH0jFH250LAXTCzpevgkebcEUKf55oWy4Y4ssXr5YKrJHwup2wzxCQkwlj988mPDxYjkUccRtsUA1GAJhzb/5nmUNE7pn2ICxdcYUzVCg8uexhiaEmcRG3GG8MbyGGQth8lHYc9zu6Uy9+uPv+Vx6N4kpfkfDmq0Mz4Xtn3OjZdIK3li/aZU0YcJk9kV50pSDsj1Ijmz2rkB5ko7hVWYgGqapy26nzoG3drp889dyFww+9oiAJut2sWS0LV8ilYVS+3ilLL1ovpQUodeFpjs76zksJRtqqF/vKo6ue5Lv8fzRE79YPom19mWsnoqfJXX00umd2/VM6SeiS8LQiCW49sYTfJaw17+dP8x1secN8y4SuY9kjkle8XvnmWaxDy8VlZfIuk2r5VjeUTnv5vFyrP6oVoTFSNCHkbs3bOtx92K0l8wz9PtYj1qS3LWwwJN+RVO5VD5SJdPGny+zJ12IEj8kHqNsVksC1XB2L6MN/iaKmXZQv6vfpeDCg2EFshDMzEZrz3Ub1kn7tQ1y0Y+nyQtt26QhD9OPEN/UqL61H/OLoH6Edzy0s5jG+OMVv0IKXZIntoS9YTwJbmno8QfIagxWwmULW0vl0o558tKfbpOWzVmyeO4i6cD0MjcMwiVfabiDAtx7FEMB9Xfz+ANBl+BKnHaYCQ0qdlqlTBRkvJ6QJluMGhIQCnmexJQ93zeBFhoDjkdOh77sBkLFbcI3NGTCc4UC7lwofLsnu07iit/rSWQj0wCIRMrlWG2VrHv5Wam4abzUjKyG8K5XPclSoU7yBhpKaZZcO3Bz1Pk7CKC/u5fA9xLy+AODgPdiDYUaRMpzSqTlOXQtq4zIonlLpA39OoiE2U3H9kZRAIQzhricrydjOIFV6pI02A8T2JbJzjAaQ2Ms22OS3nljztOJfolm0dsahXzSG83HGyLxz9MT3wwGTySe1d9lgDVjKFpJAZLikMC3dvNTUnrDSKkfeUpaO1mTbwrSINgU9PhNfpn3q9pcpABDflpfgrzclifL5i8GupEfi++HxmcoJ0PFnx4NfJQlXLc8Wj2tbImZWwgl3yKrkZ150Q8vlOprTsr+5qOSjdnhOjZUBVmXWncxENUWqv31l4uI9PAKsPiBUvzhVeITPPymZkE+X1Q4VeQBkRffv1uuno1+2B2NzjJFLamL47IqwBcU4iGGQvHHW/nJCLX4Y+1c5n3Q42ZGPWObVlfcm0cz2ALobJ4z0e8mpfhpuPokoVxfxtfeBmN4+xppmdEkuRcVoQvZKVebTBLCD739TnbS0/Ijus4uVBAzQBO90QE/zvOch8ljmdW4zxyUNEWrAc0+0yIXj8dAptGTpLq+BsltNPj4HF2GC8NOQ6X4z3ZJeuIrSxQkFL9//36t8WeiXjwylei1ByNclei9JHpcvzx+H9JqbWpB8mMF8hg2ydHyI1JwNTrztSFvxEJM2pHP054iAF5R9FQbpzd8lg5gog9tx8XrCm+g5wC5G9lWJsceOSlzzpslk8dPlVYYOUxYJm2EoRq1FXzb8zCrPz3K+bzXoBY9HrC0bLSsPfS8nJpyXJb8eJGsbnleOovo1niYx8sCTQJy+R2q+Dsg5HwXXJV16hGetpd9uT9mGCS7i7Hd7CKgmOWB4kTUMue1ZaGz3yR59ebjUrFrosydPVlqEHfOQaw5i2iHoh7u/sjEQ6H4+/vU/f2ehQJC7yYk7HgLt7/XSYXvJaX4HREoU+ch0aoduQy1p5pl7Z5nJXorJo3loQmItsVVQndk7kk7BjpZ9vKgwPxnWuHuyEysKRf5GUgFy3JbVrXJ6GOjZfm85V2KH/et7X+1lnloPf5UoJ/heA/JK37XqIceICc+NKNz5TMbVkvkugJpGg8IScvgyAze4w+VfUop/sAIUcbF/WolDPt05Ep5Vqm0bEdnzldELlu4QloaWmKzE+JlItGhkkJ07kPTovRp2aub5HQlszRb4akUob/3s+uekoIvFcmYd46UV2peFkGPA0SBnVL0YUxnL/CLzgKw9qPm5MR6OHfjmNDjD3F5O6gvwyAB9ouhS/iD3hozxoG8Muw6q2SqtHw7Kvv+do9cPn+5NNYgeQMQODv6xST3ECr+gfT441fK4HvzZK10Lp6Q4xV/fBgggR1IyUOSUvyBx892tvnowrZm/TqprjgpeVfmSUNjfVd9such1e9kBZCdq9t3CFivjUcGc5WsAQp5IYbQ4fYYjUDvgchhlCg+lqUNmsoLK3QEs6I+mrXtOJl0kK4ef7jU8aElM34th6W3PJq+tus14/FrVj8cKXSE5HyKF4+8LMXXl0hdcW1XDp85UWFfiVjZeM9Y8KB7/NRnFnmmUqPipxEPYzjagvK+zjI58tBxWTZ9mSt7RoVSB5vb+PAdi93JGOnZuc+ZZ3gWN6M6N5olJ1Dz+tLJF2XF75fL5vJNqF9G+QkmKrWpO++Fm5dwuq/IiGTnJr4sidN5/GoZeMOgJ7bpybs/S48/PsOf+0mwAgKO1WLlHWUye/dieeYPtdckQwAAIABJREFUn5ILiqfKpIopUscSHDShYF0np5tprH+Ye/yh8OtL8Z/LGGNfwnQgP09K8XuoitSYDQ8gB93iHl/1qESXR6VteguG3MGKbA0SmAK7NZZMH0O7BsCYPauF6MHjt3tjji48/7K2Eql+sFZmYITvtLFTpbka+TxI5G3HhE1ViGxclMZQ/1kt3zD+cn88fib15YAW8kA3T655RnJnwnGany1V7ZjK6arfnJKI+XjeGk45j99vrDfYzfDQBO/GTikAEta2qlMm1E2UmRfNVGPYWfb+l1Y3oHIsXXv1a+U6+9ejHWbpiGLZtO1FOXLhEVn6o7myvnmjtEfwWT7s/q6ERqfPNYRjHj81feDuMGEwVs5E6RnPPWEMIEwEMRPsLLjNE5yGkhwsgbnpriVpdmO2XFpwhTx+++9l3LrzZNncZYh7n5JIDhM4kGmLEsXXguI/i9VN268mo/hNaBHqrygaKXuO7JMtezZK+S1lcjJa2TWAxwpbetLtsV6fQ634uWUB0haCbv7v/PaItG1sl9ENY2T+rIulrQqJr+CF1lwMi2HzUtb/wwAYDh5/2hLwObjxZBW/jqAGXWPqOiafNsvj656TohvRCXWkoNwVOVMMfXnkPPncllAnnIOH7XZKD8vFVbq4oTPOdMnDuF7Z2Cn520plBdqlN6EhUQ4mClpSM5sVE/5OY4/fiQVmJkt+p6zeulamfmyiZH2wRbZ37oLlj378xMktnkk4hMl7WgPJhepK4iAsqL3EVfET5rQFjt/IEO4JFf/ZevzuOmqUBU0b9G/aJYjzz4xcIAe+fVDyPh+VJRctRtc4Nl1BJYMaqW5iINGcFmQwc8IcO9Xddfddcu899+rm56FrG8s7DDJPR484kZBCOkKXZxIXiSp+rawAQ7N8h3+PLhktqzY9L4cKD8ioa0bIiQ4ofpKsDZfszVYd7LrkMz98V+ghlK/eOC7CtLKCg5idvrpGVi66TIpaS6Sxo0laclu1qQ9bFbMHQEbxn2uFNLjn74/ipyDNBsx//OAhealqh0RuiUhjG5Qi+ECrWrWth1egYX5Lqnr8rn2Fe2FktSp+ZrpHREr3F0rTb1vlkiWX6oyIDuQwuDAekWHX44KKn30awuS+tJjOpzePBIVoXr7UNtfIqp2r5IofrJA9l+2Ww1lHUNudI41U/JaspNvqlHuXxx96FM7z7zm5zwg7lD6GtfAcZ+nxB96+2Rxai22GCjz/MdkVMua50bL9jbtk4Zx5yGkYgb74yGJGLCCLAyU09PHaSO4bXDEztFdLVPGbQWcVD/mRQlm9ZpW0LKqX7FnZUtfe1F3x92arpoPHT9YDy3GAT3Ez5g88XCNLpy2RUQVj0LIUA5e0hBd8Qag/4/EPLQGfg6sno/h5eeZ5sBw2L5otm7ZulFMj6iR6TVTqa+o1T4qhUkWGuznv9o++HmAwPX7eSxACsxHatFz4PhU/3htVVyr1DzTJtPPQ+G3KNKnD2N52xozZr0Y7F6Y11M956OhKhtnoJ49XyrqcNbL0p0tlz7h9OnYXoT50J7MUH7+p3fawy3vnsvVUqX/6lofYv0ZS3YKfreL3+2mhGP5TZZveokMfCuHdX3JimTy+/FmZWTpNJk+cjlaz8Gpy4cmzxA/3oDkPrc3D1uPviwWH4+eJKn4+O5U+LfloNF9aYAyuWf28RG7slMaxzRjb6VcHgi5b80KCqmUCSyA4pTdLeFEKHOpXiO8H9+JZl3eYh6ZdLQ+0yvyyBTKKQ28a4e3r7A5ONKOMy0D9Q72LA339RBW/9RdRhwjdOSNFEXly01MiMzH7YX4BFH8d6B4zBZgZR48rVtHS1x0PtrK3+6HSD0LTlvFqpWq8LTzK2EipVD/ZJBU1xXLJRZdKDWaKtKP82zm9ae7xu8xEdB8qzJej+4/I5gu2ykXfv1gORHdLde4pFWyxl8GXlr4ctrtVJdslYFSm9LivZhKGqYB24MB4/D7DpOu+veLnVSLN2bKsfpGsvXWzjK+cINOnzcQcbQ4vQYFKJ7w5v6GvhXK+vthyOH2eqOI3j5+wdiGN4ZqTsuFlxPdvypea8gZtVaqYV2ymbpfh2029pqrHH26qh/r5VqQAEzmfbJfJTVNkEtpaSzMnsDEr1pvjQ9jAZzjRYSo9S6KK33hCKZ9hMMSFV73wnGQvBAIwFdVg6P+SxQA/FL/2RlFF6uV/TAn09eSDbQR45d9NWQToBPh8VH6J1G7AALGduXLdoms0EbwdYQ609ofRj5Ag7QP8LilOR6gfG9MO2KIQwyX2bd8re284JOd/a7IcbN4hjbmI7jO2b/3GYy1xe95EPwlcP+wSh/HHGrQfvj9Air832oopflynvlNWtC+WPR86KNnrcmTOrLmo0cYkPNTz52ShaFEbVGSg/r7YNN0+T1TxK+2CzlnlwtjdviN75aX922T0G5jYV62tSnWwh0Kb6PAWQP3GHurxdxN8Q71avXj8vC1XviwFJQWStVqkeF+pXDh3oXRS8XPoEApedA5bxuMf6k0c8OsnqviVTHw78Pz8AmlorZO169dK0dUID41A22rkPHH4UzYUP+fdx159gl2DrezjlzA+TudQYafRO6Ucir9hR5N0rhG5cfm10oQE+HbC+yj9U8XP5D7wSAmGFKVdjN8EXRRteret2yqNf94mkc9H5GjjPmT0+2SNWL2jLVzPO+r73qkk6V3xxweBQqF0lh5/b6yhpyUOi98oN72sYIkcvatSTv6iShZcuFBaa9qQsIfsZU5gY51qRvEPuJAZ6hMmq/g5cKi8vEy279wue+p2y5ibyuVwNnvzUwryP4x7u7R+y2Gya3Ro/2p+oJ8O9aMHVkgcV9o/8RgFhVD8a5HDuz1Pll6yUlobmjHMB1UumFKk8zsyij8F9nFgbyFRxR/yTj7CX8eqjsqLO7bKqBtHydHiY17ac9S5H02tCVbKIn28hlrxG2uY96/a0PM4ct3Zrvc4lDuQsBUXr8Dj4G/2+ADf55An+MRAy9Myuc82NTcnIlvXbpH2j2HA6Kfb5GQbhBy9/VDX9wFfpqzi9x6/Pgra9y4suFiqPlsnlT+plEWzF0kbp/XBesvBGrj1GN5Z/X2x43D8PFnFT4+/lIr/lZdlX8NuGXUDGnpkVwWKH6EhWP6daH9H+NO9nIJ0ip8CJBWUvhdmPUGuJpzhpBUVFEr2Fgi2TR0YRXsVupWhuRW9GpQ1AcDNKP5hyBSJKn6L8esIZIxqV8X/KhT/9aPkePEJTeqD9NQuj125WonYvCmg+OP31Qx2wHa5mMzXeRLq/vfgCSp+jq3Gj5aGawI7pr3A1ikpKerm8afJWF7mOeAhMZ7zhbWbJXJfuzR+skVOtfrRilyYHuvwT+eElFX8vFVC+IBp2Jxhdu4saflSm5z4/glZPGehdFSitR+8/VyUNSmUm/H4h52Y65fiLyuVHTt3wOPfKaNvqpAjWYQ1SUv8D6DNmOJ3Cp6jednjPu08fij+4oIiyd2RI03PN0HxXyNtKHPFvEFA/UhgVBsmk9w33JgiUcVvMX4qfnr8x6uPyZbtL6rHf6z4uCr8LFBLJ0e109VPyNvnaqaw4gfUj4xXkVPQC090yPK5KyRPGxXwtt0UWj5oO44rKSlOR6jflbsxq/2FVZsl/zNoxvDJJqlsqdL4nk+G76FEI40Uf+Dx53XkytT2KdLyxTap/lGVXDzjYumsRCwTAxiy2aBBoX5m9bdksvqHkaTrl+Knx//yy3Kodb+MuLFMDrWf8BnL4Hom92kSk3MRzOl3Hj8kXzp4/Ab1Q14XRjCmd0euNK9vlZWX3yANdQ2o4YeAY7OWjMc/jDih61GSUfzW16MQyNCuA7s1BDb6dWPlWNFhn9DHmjh6TUE4qU/AK4UVvxoveKbaqOT+vk2WzFouUWEDH9e3JkfRDSh+WMUlRVD8+9KsV7+KLTB4TiQqW9e8JO1/ifrdT7fC46/SDk18YcaNV/y+BKKXuGXKevy6iS7uFIHVNqNtutT8ba00/aJZ5kyZI501NHy64hoZj3/4ybn+KP4yePzbX4XHX79Lxt4yUg5S8fOlyXum+L10gwug47qZ9MfpN6HiP2Pr6kFY6/hJZHZJPodvRlQITy57Mzh4a7asuORqlLg2Cjp4ow0rPX6X95Jp4DMIezWIl0hW8bPsuxCz5w8eOywv7XgJHv94OVZ6wJXx8RWftx3LcYlPohvEh0z2UgHUn5UdlaxTaNn9VKssvfBSePwIZzC3BwKAil/BfvBGSWF3xZ8m0/lcXWIePP4X12+Vtvc0SskXC2R/yyEkaqp9I5je6SFO/ztlFX8v2cveCGUmdg669y3Kmi/H76mU2gfqVfFLQy56TwPY1HGqLjQbevx3f+ruYdW5L1leGA7HJ6v4m9GSlLG6V/e+Kq8cf0XGv2mUHOo0xR/v8ZMvGPtz0q+TvfzTKbkPcru0uEA6VoE/Xs2TJZdcLs2NLeAJNiphZ4uM4h8OPBD/DMkq/mbOcwEyWo/2vJu2bZLRN0yQI2X7YBiynC8GfsXpijOtXCp4/D6xz5AK1RW4L3jy+XnF0n4U//pdq1y+9AoM6cHEPk3u4zR34uRsfoes/iJk9aebx6+ZiWDuIpbzvXpADlyxW6Z/Z7K81LFLGrPRihEHoOGd04YJlfO5zYzLHw52P94sNFOR3xjgrP7QDvBtezFvSBY0LZBX3r9bSl8slwtQs9xUy/GrEQg51C17WJPJXRUVFcOyZe9wFGJ9PVOyip9DOYpLi+Xw8UOyee8WOe/15XIsgnnjivA5xZ+FPqU6ptSzB5N+KDRiMX7rdzGUHn8szOX4stuteCYlQFFSRMXfKWVHRsqF8xdIM0Z0I9VVvTlbu4zH3xeVpdfnySp+xvjZyIkD29ZuWCMFK8ulagyy+unxh3H9bvo8FZR7gvuiSB6NePwHtntZpEIadzZK1nqRaxdfhW6WDeoMuxH0WtTr6viLUMefboqfsqkTJQlFGD164vBJWTNmjSz/73nyUsU+qcmq1odjOU/sFYNvTl9MHfjTZ8OG+AY+Ya+/s4WEzuzxc1OLIbAXVS+Up65bLzNbZ8uU6dN11noEnctyofi1CRG8N3aoMsV/5113Zjz+BHknVQ9LVPHHGvigZrcAyrC2sVrWblsvxdflSsMIdO7jiGe+QEduvoMzXMElGvtzhjTbevoQgDU0sfrgwVwgF8fzQtl5MdakLAy/0iYuBOLX/EybTGufIedPno421sjg5rNgILczbDJQ/2Bu3WBcK1nFbwNqkAkuz61/Tjrn50nHTPR66QCN6KRHr+S1+mswnuAsr2H8EatW84qfN4+kvVH5Y6T2+SqJHojK9UuullO1lWhjDXifyX3IFWMlA9vdxxQ/Yv0PP/KwIoVWCZHIHSLU7kcDJXJ0AsfQQs9DY5q77rpLvvKVr8jNN98sVVVV+l7XpSCycPOFBflSefykPF+7Ti77xWLZNmu/VBq0yVnF3Ei16nrf0cRi/OfS449T/P6f1kiKUroMsyPn71sgTy5bL/OmLpCxo86XurpmjGHMQ09ywAHMUMUxzehV3qX475L7htGQngRIZ9gdkqji54MzO78d87cj+VFt0rN6zfPSdnmDZE/KBgTOzmSOF7K0cQm9Yjf9MTaemln/qaD41UCJ/Uf/zomN2XQ8TZbmmFXmvjQ80ioLRy2Q8tHnSUcrKn1oyAMO0BalGcU/bHmC6GYkgnLurVtl8eLFsmjRIikuLtacDvbn7+pPwaRVLAP6uD+zCYp/GtpaL41KQyNa9hqpGbnFxHyqe/xmGPvtxT/py9MZHpUzWmqfrpGxrWNl/rS5CHHUoHNfm+vxgyY3TAI3xb8n8PjL00Hxa29xCK9INFdqWypl1ZYNctn3LpXDrzsqu9r34gnZipGxb0vg6F3xJ+bxq//gfwxJMOI4G4+fsZq40/pLKbzJj0C3o7OKZcLvJ8nLf7pPLlu2EsH8NvyfBhKe0zX1V/8thPrvvDvj8ae71EtU8YelSzkYXhPJz5VVG56XmgtqpGxBsdTU1/kR1Y6GzdhVmJ+ODn4ppygp+TeGCurvpvQRv0dyko6d1vdRgwyDnjZKHpp3lVWXyokHjqNeeZmUFVRIG5ENfIaj9NiM4k93Djj9/pP1+DXJk/+Dx//Cts1SN6JaCq6MSnUDe/Ub+hXQfaq7/fEeP9lVB/XQbu+QEbUjpObJGpk7bq6MHzlOmlvrEeag4U+Pn1UMae3xe23JRiQl7bLhpS1S/vbzpOyefNncuVU6MZ1MMJ8PJpDz9mNx/rNU0p4Ou1qfaATyLLmrZ6ife0UHjI+wKPci2fX3ByTn61G5ZOll0ljD+eoo54OXL4BveCD/bEGMkx7/7zGW95OfulPuyXj8Z7k3Q/v1RBW/g+iIgrls9pLiIln/6gY5giyfcdePlRONRzCn3nn0Cu+rV6zRIUIAalxSoXa9zpamz2LdYtUsJH4AkxqCyEFIix8AxEeOQkcujP7cUil7uVRqNkDxL18mha35AsBDY5ms0e5AwDMrM5b3LDYiNb+arOJ3UD+UHibUVR0/JRuPvSClt+SiJ1qrtHar3feOXMo0sOpl/T1/cPqkzhigLmdCG214lLKX7CmRpmdaZMXiFZjlkqOD2zoR42deD2d12GRbQv376fEju/+hRx+W0nTw+HVJ+KxtiFWUF8vml7bJvgl7ZNH/zpUXirZIRz7DAi7O5449kyDrWfGevuxd57C/nK99lsaE/zo9Go/GOsTVx3CygORf3XGlPH7rkzJ29wRZMmMZBvScwJhJZxRkoU7ToM+m5kDxZzz+1JRcSdxVooo/jLYxSa+gKE8OVx+VrShfKr2iVE6VVWotbxYHj2djep2f7aB0TMifHr96/xSSnrqHyuPX9BmPquF+2XnM/fA91CAjKasdMcu8lhJpf65VJmSNltkXzBTMHtZOlgTACGtqTDMD9SdBbelxaLKK34xcNkLLAT38ds1jUnIVSt7OQ7k7laLv+2I6xcndFF2LAA2jEu9UT957/DB6I1FkuKzv1NkVy5Ytl7rqah1R74wfj5qxb7+P8e+j4keM/6H0ifH7jYGnU5CTLwdPnZItB9bL0t9dJLtn7ZYTefVazhML4ijCaZ6/txrOQmF39/jPhki6oH6OU87DLaNyTycpKZ7ZhpgN/jdpHSoW3vOSzJu8WMo7IPBam7T1qnsSV8tPwmZWd8zjh+LPePxnszdD/91kFL8zFglwZUkTJjbml+TLs888J1mz4QFf3AYYHHW8MBLbcyDswDfKDpRxoeKP2bBDKPl8JYsrlnE3ScWvXpt2HOJYYQi3hjKpebRSZk2fJ1PGAtKsacDz2ZByGAD69exMHf/Qk/GA3kGyip+Fna5lbYdEC3Nk9eY10joSSbCLonKqDQOsEAJgPkhMWYSkn1LTKk3n4bf2d/EhOe1pwZLvXCnNLZO6J6rlgvwZMnHyRGlsYIWbGfLkJdfoLe0VfzY9Ajj20aJyeWLzb6XoQ9ky+74p8nTdRjTydgh/TPnHWvievVAbOMVPBa/SWuekR+h54eSKVdA7q0K/5RGXyu6P75aj3zsqN1/zRqk/XguIlslZrl8BhR0tOia0cEhLRvEPqJwZ0pMlo/gtkZW6samzRQrRi3vHpu2CYlcpvKkEZT2NyG/KBW1hTK8vkWN4yBwcTRXRDCDvbQ+12xPGMvm3Cjj8B/dYUVwmLa+2oJSvXRZfcgmMXnAAkrqo9slHzlCgR5STUfxDSsEDf/FkFb95/OxuGinMlsOn0Lp3/1YZfXm51BXUSwu4oYNtrB381XXD+qeFlPnR2SC7A7QOQR69Qv3kVY+OFSIPrPQEZnM8elCuWnaVRFHqzR4G+nKRAF8d0+XxH0g3qJ+br5mbKF9obWqR8jFjZcOBDXKy4KBc8sO5sq7sBWksc0lA9mJ0UyGPAEbvL6YzcIrfPH6HRhitaRJzW46UdVTIrKpJsul1W+WCmtkyceYkaapv8JELBW81TuvitVlQ/BmPf4BYLCVOk4zip+Bina42rsGQGiYztda0yNMbn5HCG8qloxwwOZU+kl5jOpUwoUc22eY7ltg3lEo/vmOfyVvv2SDILyOLRsrJx47KxLZJMhsjqmuaa9CkBV4PzBrNBejg4CoMJMp4/ClBxwN5E/1R/NTqHE6TBUi1FblRa9etlyz0QMudmSuNMBg7mDfCun7T+x4960IBzt5ZHJA1COL72RrjZ32+K8ktzauQhmcapOxUiSyZvwR9XhqJdWjzItfF0ikKjfGjt0FJsa/jT69yPm/IYD+aEedXD6Y4S1Y9+5RM+8J4KXt/sWxs3KFevyH+fG71arrtYf82dOAUv1mVnizM2eI/G7NlaeE8qftuvWy/Z5e8ad6tUttRJ23tLQp5mvHjwM+Mxz8gjJViJ0lG8XerTUI5X2sbgn6wCrft3IZafnS0mx/BdOeTLqZpbgB/M8ZENmAifDf+6B9vnP0SWnzf86rxhCN0BCuKpPMQZoyjP/9ls1dKITqV1XeiYQmeORsdyfIg5Dqo+DmQKBPjP/vtSLEz9Efxu4ZVUIMIc1EB7tt9SHY275aKlWh2E21Be3coSVWggX5wX+n+ikcFBnttQo9fnX2GKfCDLMURnaOk8pcnEPqaI1POmyT1dfXqHLux7bjRIMm9Wx0/SiAffvhhSYtyPk1IQpyyHdZMM0fTIlkhilrFA/v2y6GRx+SiX86Sl0tekeocDLL3Yb+YEeeFnpY0cdH6sXkmEvvz3dMuF3O/vOBVzwbNSRoK5KraZfLkG1fJRAzomXreNIXyO3UDXUEWBRv7T5gRkIH6+7GZKfyVZBS/yilFflivi7pdKkD0KK88eRK1zptk5C0Vcqq8hrnMDjZXWAnfygWxkUeICqqg85wylNnNca1BDKTjrRXlogb7USSxtoySJXOWAMrHsxKqRRa/tu4giKbygZMtMzH+FCbvft1afxQ/hbwqdoTAollRaW3JltVb1kju/AKROVkoCT+mPKD2gQl3b2g6g1jhtODDft36AHxJidspCrtX3N/I6EipXY0yxZ0FsmzJMpTwucR21Q9gdjazc5373O92ZIWXFpSIJvd5xV+G4V4p3cAnXP52BCk5iBPRbWxomxRGi+SB1Y/KtM9Nk4L3R2VL21a6CA4a930crEyZwk8twX44NgPr8XOLzMtxm5qNDL9lefPl1Feq5cBfH5UlyxbBk4EXA2NHAwI+UZGwTej9ZxT/APBWCp0iKcUP5mYSkzZzolGM301ZuVKCXhfbt26R/XJURlxXKpXZNb4ECEmh2tjKGwJ+OmnXOOt+MMaArJ3FVb1wC0qu8sHvWbuQvLi6Ta5bcS34ATAmeUINBcdD2qVAhXymgc+AbEeKnSR5xQ/6YMwXUH4EIbDG6iYpLRwlm/ehEqxtn1RcMQYO4hFEh3zPF62hDhSrq351r1Tw+NV79/ei95MtRYejUv9Eoyy5YIGMHjFW6lsZDnZ6Igc5MUyGDdvX0+MvsnI+KP5H4PGnfOc+5yDTAiPDo09XB0r3clCz34FMZmT4H64/IS+d3CYL718g+y7cJccE88ih/GN18ZrF7IYV6B73g7AHVPEbkTF7GYKMnsuIjmK5cMtcefqtq2XZ6CUypuw8qUMTFsI2ZrjY2FF27Mt4/P3YxDT4SjKK37W5ZTc+VoW0ozoEP7D3C9nMqq1GVm/cJNnzYfHPQPIfm3q7VDit4ecM+zYGzGK6vn8G8YAtaYwnKHRxn1pq2CHFNQVS/1iTzJk4TaZOmIqsZdePQGWyWvfGzZQN7r1Mr/4B25WUOFF/FD/5gsqPXU4juZjvgAz4htxWeXbDE1I4u0SiiwvkVDMm21CwM8E1XiuQrCyLPiaAh4JH4jx+/DOaly/Nv20CKny+LJy5WKprq5HjwwZ3bkgV3WJ6/IqCgSn4mx5/YaD4H6XiL01xj597wpsn2M1aRgqwDhS7d2a3SE5ztkRL0bxk80apXFEpl397mWzJ2yjV+YzhcD8tISLozh8KO/WnHfzfw/afJeHHnTVMp1Y7BrXKiEwUR6MyLzJHnnv9Jjlv21hZvGCJ1FXWaDNCZ3R6g8V7NBmP/yy3JYW/npTi98+hxiyhPVCxJrcCCi8rzJPdh/fKtr2Ia16PpjeFTWB+Fv4SEgfPAGFqRX1/O5KclPgHFdqM8/D5HMYqKmyh+JvbpCJ/pNSvrZOCA/ly5YpLpKa6BlA+oFpyRMyAdzIh4/GnMFGf5a0lr/i7jENyRXY2HEWUv3WA9mvaa2Tj5uel9NJyaZnQKk1tDc7INCg99PZjULGTwufsFVMTgb4IlZFHr7PQkKgMCHf7lg5pWNcsl6+4QorbCzCauh587cK/igjjXntS/EWFvoFPunj8MfVHSNO7KMzYVGMNcT1mMbZEW+Wp51fJ9I9NlvPvLZN1TS9KPb1+XUtmcLrGB50QLLG4jq/9y1bItEuYJIwInMlaiDVDMYuN98G/vZAj5IpbijTkyKXFi2TvNw7Ivi8flmvm3SDZLVHUYNfrVDV9KdTDMapuY5ms0pvHf2+mc98548/BOHEyil/JiXRB8iBtgIbp+TOplT3889DXfMOmjVJXUSejLh8vRzuO4/gm5YNczLBmaKCLF0ifXtoYXXuzs0srD8QKhErfC9N4wQeeLomWS+7ePKl+qlIuW4yEvkiuNLcjUQtQniY40WCPefzuvm3tMh7/QOxT6pyjP4qfTXtZ5kn+iPV3QPJrpAjTXXftkp0nd8h5N42X453HMdAGoa98PK+FvkI9P2jNrUJlEhgZDu7Wuv1IXpEiYFUPH5eL5y+UkSVjpKUSszlgKLPc2902/sekdnJEnMd/GtSf6h6/lS3p6E06BEhiytWRoyhnQ/JGOzz/IrQsPXq0Rja99ILM/f5UyfvDXHmpdj+SnViziSoAGg3q2RMPjJkSXquenccf2oIqhGmQxDR2YLq4rA5iAAAgAElEQVSZx4+DNASDBiuzC2ZIyW9KZfXt62X2/BlyXsFEyW6OAq7BfTP7SpOWCA90WXSKffjyxm4x/kzL3tSRVv28k2QUP7FtRcIAjTNRPwdwXjsIqwl8goIlqMiIFAINe+b5JwW5olKwpBjw5mHi/E6Xm6DT2KCZu4EyNgHYzRDo54OFX4sv3zMG4nXAOAVI5iusj8rJB2vkokkLZNL4STp9kC1Ysxna0NZl3QUlxXtG8Q/A3qTgKZJX/DaG2mV5EwVTDxiZ8PwpLyuXZ9c+JU2RRim+YZRU5R9HmKxFQ2DsERMb787cK4ZiFTYnMuah/oHucBkavrEGQn4j/L+zUZpT0l4h1Q8dk/EF42T+gnlSVVOHBPd8DKpidYvrZ6H6AuFhlvh2sjV3APWnneJXRU2GhwJXxU3lSngPhcht3BAd0dEuIyrGAN7cJS8e2ipX3L9Mapc2yKbabdJR6iWKaWW/0BpGdKd2IUWf8W8isE8e8OdRYyuQQwa99hg/QNlRXme+5DY3yLy8mVL8q9Hy5PuekRnTZsnE88ejDht1ycxh4LP6en2KOv4/BuX04PE/gV79mSE9fe5Yyh+QjOJXk9Jj3jRdWdNP45ita8n0HNmZXwBlX18ra15Abf8izLOYC5gQiUCq9BlL0tAZoQNvBZidGhcOGzio03OX8YyL3KmXguaDEgWUWVZdIsceOSIzRs+QqZOmYcQwpq9h7gCFGdhCbzm0FeyWM4o/5cm7XzeYvOInwE+Pn81QnWDmO/w/TEdM68XQmtxcTLN8Vlqmt0gJYP9TzUc0woSSf+QEct4jFT6VJ1ED/vYhMSW8AYb9fa0+748GPPWHhqn1h4Z9ruS3FknjEzUyKmuMLJq3EL1dGLpjHwKHbNAgVgfZmcX6/bT3+N1SU/k5P7pDYXmujoP3nFJEl6YoHrqgU3Ygrrmn9YCs+NZyqb2kTrY375DWQvhA2vbQ054pe42fu9W2uKFVT/S5vz772PdT8Eip88JoYXp4ohuxZ0PpFzQVybzCyRJ5IFee+oO1Mn3qLJk5b5Y0nKwmkKkE6xuWdVmZFM8Ww/EjKMPOfar477ozM5a3X6Ildb6UlOJXqFtBbvdfpWHSHUNaTnC0oQV0Xn6hVDVVysaNa6R4eaFkT4+inKkag62I+SthMWbmfiuDBbLNV5P4DlL9WygfUouFuuwsvH2v+DFBBRU6BVLUVC7HHz8sF0Sny9QpUzCEB94M4VoLc3nUzj96V2oA389k9fdvf1L8W8krfu+HqbfrHy6GtpJPwBO5RegF0Sxr1j0pnReIjFpaIZVtJ9RozoVzhn43LkSsSt9bqefC4ydvWH4N/tSUG6o2ghX4Ow8D2UpycG+/PylFtSVy1aXXSOWJE1qvn5cDXBghPbMR1NvH13iODoYAVcd1Jfeln8dP3a5lSF42aVciBfec8leTv0PyczuktqlKckeVys5tB9DPf7+s+M5i6bypWbY1viq1pWj5iVVR+0G9aQ/Kq+HgPH4nSBN8OWRFvxAijw4a4jn8h7gePRrCSAWIrc4uXCBt/9MhL3xgk1wwZbZMnnyB1GL2QAFaLmrVhspuT7H4h+Y16D365I2Mx5/gBqXfYUkpfpKexvG8vgYPuKE1XbA3Ca8dnn9pabEcOrRftry4VQqXFYssyJOaNtQym9QgT1hik8LpTmB4EToATo5BYsbEnj14CXhZRTkFUlxbKkcfPyrnR8fLRRfOlca6RsmBp5+DHB5blwBYi/Gq3WVG8acfvSdyx8kr/oDWTKB7+WnX64S3nAevv629SdZv2iQdozulcEVEqgoadNS5FsAYP0D+asKcwfAG+1upVyIP0dMx8SEv0yeeRaKg+5GtI+T4E1USrYzK0ssulfZmBIBRs5+H1tROH7K8m3xPfnK9LHpN7osv50v1GL9Tod5F94uijoiiN1SM/KGBht7dEBQtWJTcgkI5cuygbN25WS68e4ac/+fjZEP2WjmBMkD0c3DK3WP8bHpgxKXGRK9ejico/eX+diGCIKbvDYjOFi+NzaPB3PDJUiJzZLbs+e4peflTr8ocDBuZPn2aVB07JTl5gPf5LKxRhrB2LZn99ZzeT8jjzyT39ZcLU+N7SSn+wFBVRR2Qrnr9IE5wAvr15GH2E/JgMMTnyPGTsuGVDdI5GeM8L6PXU4cW2K063tMc/u44uqlVtTLcIgX2QNeqBSo5Tu46ZvNf4t+EXKOsx0edNWDMkTJCGl9ukqr1NfDyJ2rZXhbaV7e2IOwF4aytuskbegrPDP7CdimV0RmPPzWIeIDvoifFv2jRIlm8eDFq04u0fDM0DlUhehEdG8ajxE13yoWM8ljx2obmPij1a8tqleeeXistxc0y/rpyqR7RJtV1qKpCTgmJjtfX83jy9x2jvA4IGSL+wXtklJgtrUd7piWNdwCdkzZcBzp9RHa5tB9sk7p1DVKRVSZzL56Lt/MxVtjlqnUgUVH5AoczOd037nZQP95k05709/i5iYbtBQyuDr9X/Iz5q3EAZd6OY1vRnSxanCun0MVsw5b1Mvr2Cpl97/lyfFyVvNpwUNoiDvPXMnmiB0yW0+XDXoSTkMxzD12NmCz0wsjDjF0SkXCLq6FktUgB6i6nFUyScbtLZN1f7ZDaRxrlwqnzZFzpOMQvkZUJY4UJJXwWzQ/APeQQtuWmKmzjG68lAPVnFP8AS51BPl1/FH+Pt2iKvx2qH0qUCa4tqOaP5BZKAzyEF7auk4aOGim5olAi5RGpbkWHP/AM53g7Ha0ukju1xcBM8MUsjJiI7RKK/ivd74k3Q2bDj08lyInkSEl2RMraKuTY8zXStL1O5s++SMrHobYYoypzcM+KO5AHwB+2LnbewBzR280o/kEm1EG8XLzif/HFF2XJkiVC5c8udFT8TglapUdvNwf5amgvO15o9QucLNAX/C55ef1mOdgMSH1lmeSOzpeaJtTHYxx0Sw4bXhG29YRmybChIRx/SeWDOAvY+McUfvgd3z47Cvi+pAMlettapXFzs1yA7q2Tpp+voTg2riPq0NmO5HY8r+akqbFPRUiH0SF1Or+D7Ku+cjpD/XGK39oMUlnbA9O30dnjCn10oq9fs7S2t8ooNMKpaa6UDdvWSFNJk8y/a64U/lGh7Cs+iPKmY/Aq0Acf1h9rJC1s4JRv6D4FO9TNiKN15b39mDOEpWe8FIlK+ZE8qcgtkUmNU6Th/mbZct9WKWkqlYsXXSzFkUKpr6rRrExmlTBRg3GZNvTjJblE2XbdK31FcUhGGcU/iOJmaC51Noo/BofHXHcvfPBvjn/OgXHMHvftULj5qOl9cft6OVZ9RIpmFknh1AKpK6qXhmw2xjKZFRK7aXSDnzxR2jLFjIT4dTMDwv3OgoWbl5MnhWgtnLetQ06+VCslbUVy8dz5EkEuQk1DtRTlFaCklcLLXUuFOj0d/PapiN1BiYziHxpiHaSr9urxL1osxSXFCs3He/w93RodKypFnyaq1WGdOS6HJAcdcLJhBOw6eEB2HnlF5LxsKZ2DQVcV8LqzajXr3xFdwBNOKHddKt4ajR3r+UmPjCkK1Tcq7CHrc4GA5RWimuVwrtRurJGc4xG5aOZFMm70eB2120kDBIgA+xHwmhy9S37o1DbVPI817HEJgsNS8YfxPlWyXFemZNJnp3DB/5oRu8lDY5wsdGzKxULkRjtl2ysvI+5/SDqvaJcL/2IRypswurTssBxs3IeWhxB4Bfge8gRilp1KHfZBcpOe1Cd3iJG+4wZBgGhwTDuMDP0A9FEeKZbJuROlvBaJSqtPyI5v7RJ5Lksmj8FksfNnS2Njs7R0YJY4LU3OS9eQA6xPKH3NyMY/CEj4XEb9zMX9fYy/t+S+O++Ue++9V5oa+ex5uC8XG1VyCxCTQeLXzGX6sQJnUvwNDa4tZyLejeY16xhPVsLAQ4DnT/nQAkHXDuERhefPkaV7j+yW/YcOSg3+Vzi1UIrGFknbCJHabAyHaoP1aqVzIECrXnGJq90VP3NYlCs48s8+M0FIaB/vFeKaRTml0l7TLic2H5e8nbkyYfw4uXDmTC0+bGhpxu92ZF2D5yDklC1U+XvjwfIZyJaBLM14/P0gtDT6Srzif+mll2TBggXq9ZeUlEhTU5OGhPry+JUs7T8eUe0AzJ8L9IkoUxtUQAlK/U42QWZveUlOZp2QwonFUjgFeqQsW6qzq6Sl0/XEj71YkeK0QRyEHx5E79w7k3Yc1QkczpK8UskBm7VjHHvtnjqRvSITisfJjAumoncFwg5wDvPQwyKvIB8GDhLUvb6z7P1Y+zkaMT65zwDrtPT4TyHZLYIGJGdUXFzrmNXlYxqqNuEtYIGICDDGyQ55hN4j2ODaznrZf+yI7Dq6Q0YsGSvl74pI+cp8KRs/Ulv9Hmo/KlUtVT4s6bx+lyvpqEb1J346EIvBqABYV1GcOyIlhUUyFptYhNrp9sOt0vx4lhz+0XE5seqkzB49R0ZPGYlWqgVSjcz9fHg7KigJ13h60ZiMWm6+LIOXxo+2HfblS0bYDuJx0/lo7ZaXl8vvf/97zeoPoX7r8Oea/nTlMaQRz7/mbjUWp25DAk9unjz11FNy8803yxVXXKECLpaA6tGfXveVHoDXze63tx65ooQC+TmIS/NTQHdVJ07Jnr170TCvWfKmIpY4P0sKyxH/bAV2hmZSbUhzpvFrsU56STFnJ/B8lB99omAOqgaiwFCjqEFurUGXwMMwQfajKV9Vs5xfer5cMG265GMeBY1rwrUaS1WNTh72HkwcBfDUNPHtMp4de4T6n376abnxxhvlxz/+sa5dlI5Ahg/SjqdMB5BG8kBP27Ztk/nz56viLy8tl/rGen2/L8VvmtkVrUA3eM9YkWOlKxgAgNHJFDmYd3Gi+pjsP7BPKutOSckYIAtzWyR3bER5pqmxUemfALz6gs7v7Ap5GWrGE9NLh0GcA37mhDWiE/k0bnG9lkNIOH8VMzaONMmEonEyYfL5MGYqpKUJyoX9asAbLlmXsXxVQl7nUTfgfeoQJvR5xW9s3pPHX1hYLPsxpIfGkvbqH+rkPiovKvlPfvKT8tWvflUFXXV1tVpx9uopxu+MN4M4YkVNTsjxfQ2AePifEgWbmoO2jVKcLTUt9bJz/245UXVICkcXSHRhVEZePVomLpwokUk5chxIQKUcR8CAXc5dAIbnxVwwFTL5UPDFUiqj2kdLQV2B5J7MlaNrjsr+hw9KM9opNhxtlkkjx8mkqRMg/Iokuz6CbExM2qMxgo13TRZ8G2HmGPhkwVDRn9YzgtUMhDsDj58CraKiQljO98k7Pymfvu/TgIYa1ePPRbwo4/Gnl5yz/WIZWy4ykGjQ3XLLLXLllVcCKYJLovZi3/HM7krfextdtU16nhYkN2lTHNBfJMoSpg45duSo9sJoyGqWnGKgBOOypHRsiWSXIhyVD69EGpB/RKHkhZxawghTsaYYBkQ+eDavNSoFLZiPjfyW6iM10n4EMFgleKepXSacN1EmT5wsxfklsADYiRMNhxhug1TTBCcfp+Q5Vf0rGOY8KsfXTgAamOBEYVeMn/+2zn3PPvus3HDDDar4uXb5+fkZxZ9e7KB3a6FdNiuj8bZ161ZV/MuWLdNBM3V1dTEn8UzIZpezH1RKqQ7xaKp3GJuaGnG+qOSXRKQZzeGqT56SV3btlIbmRskuh+welSNlY4sxFh60hkE/rWgP35THUZeOLWIvdd6g6JHAGm1DGXdrofJGw8kGqd8L5/IkcsCg4MeUj5Cpk6fKiPIK/BtGBSftMWuf6B5lPhu2xQjeG/Q8N6+nKBjr+GkEOAf1dI+fOYPtUlxUKvv27tG8iFDxUx8l8sJ1ugURE/nOGY8xS+6+++6TL37xi3LTTTdJZWWlbrINHuhtQ7spfy6E94TUe1DF7zx22xDWcNIoyM2PSjZi8DlSILuO7JXd+7YgxoKRnkUt0joarR0XA/mfmScjRo0EcZXCCHEWJcsBGxBGqD+Bsg8ItOPbsIG7cZndgO1rECdqzMFAkdkyYcw4QPdNEKBImmpg9nKRg6M81OMCFG7j+J7rwNYl0FSeeotU3+dtK+LQ5b1TUHLt6PFT8X/m05+Rj338Y4oCUGlkPP6zJs1BP4EJOSr+nNwcWbVqlSqvyy+/HD25T4f6e/dgPRymoSMngKzuTxNZWeYHBU5PnkqX1yMKVVAAOsXx9VXVsuMgSmBhWPKz5goINrY1HYlYZHEBjFcoacL6FDT4aUYhfmcLiJTyrwo/qBSMdAANg+EdRcz+/HETZeSoERA+xVJXW48GJFDEiPW70lrnBVGSafk06RxeTFctskP2XOWOT8h17KGvmOL3eQCm+J988kl1IkKP3zY0E/oadNLu9wXjPf6XX35ZFi5cqD+UffX1iXr84S24UC1pTenI/8e63rW2tyAci9wBKOACwOzRaL7UHm+WAwcOSmXNUUD+LTAKoKVL8d1y8gWQe0DyruzcUaaG5eBwNlWjpKsSb3BiPBzAaDt+gFBMHDVexo0fj9wWtKNubsIPutDi6zl5nMpKmmdOi6tYo1K30C95wXXoNXM48PiV18MYv6sS43S+QvDegf371Fh6+KGHpKS4ZGjH8rahNIGM/3//93/y7ne/W1auXCk1NUhw6MUSiRd2XZacIS1O6FFROmXqFkg9bG4GQR1kDbPVaROa/nQiCSAbCr0TXg43tep4tXTUozIAQrEVDRIYM6e1yXPRQ4rmRxSCoTEQLSpEZ8AO/C6W0WVjMHAHiUnY7FZ43ZCqKpSc4ub1HZyv1QPWR5r36GP83qFxllxoBPjNtEqm0O7iGhHmooL4za9/I5ddflnMy4/Fg3wGaDKzl/vNpZkvntUK2N6aAXvkyBH0eZgsy5cvV6+GvBJ6/OolQ+Hxd6IvMz61M1ngSRN1IuLEeZE5FDq5MAgor5rqpaYRXgoEbHMVELAOGAwwGjrRclqNYdJ4nlPe4ArJRxVLMYRLxYgRUgAvO4f10rAIWpAHQ2ODRi1FWh4GBWnHMSbmqjPv+MOVsTpj2IAF+803NOwfE69dqF/IF4Qzf/WrX8lHPvIRRRFpDJNP+rNeia5r5riBXwHjA5NlvALDwFdffbXu5XgoztraWt1bU7Z93UWMlvyBhNIpszuQ/0KeAHU7Y9S3Rs9BE51chKQgaXFN6A4Y5NVIQq2sPSn1DciFaWiRNsTfyRft/NHSAWesEjlgDhjR12ygahUVo5FwXoFKL1I7eAIhY4aNO1yfYNet1eequUQWR+mh4WuKXw0C8oLyjrWkd4yhCepqLLvv0thniPnFrS/K6268Wf7tO9/p06mOX8cB9/hNcJ1AR6J58+bJTCT70Nu3Mo1kBJsjFJZteMWPVYjAM8mDom1m7SYUdxbi8pE2ePs4phkDGtoZrIeS56ZF8rIBhaA9Yksbro/QAPqGs95Y74UCDsItAhidxMJu+llsJcrsTPy0NjVrbShLp/IQy4lCeOag/S5Xvl0NEbdLFGdaloH7pFfjUf7T6bXLaVMPSDFOj2SQ6KkEiCLQSHrhhReESmJExQi9tzAWzGO1ZDFJBdEXA2U+PzcrEIZnCGPOmTNHCgsLZcaMGbrXYSJTf2LWKui8xx8qfkebTApkXgwH94KXYBDnRmkEOA+mGV49RaIiUjyaQo5zMFRJw9AFnUayEQjLjmpcvRW9NWjXxgoFVHG7tqLsWeGElGuQwpNS/rEqB5IQvOEgzpiAo8SmYWI5LypdnTHfHuY04G8aSWvXrpXvfe978sY3vlH5t7fQ4bnZxcxZB3IFDPk1A+5DH/qQ/OxnP1ODmIqfe9sXOtzb/cQS83BAG0r3WrIxDAo0lQseoNLnTx5zUdQLxw9oMycPZgF/qFNgzDK5OwcIFsPJTXASNV8L8joCZavfwT8jWfnSDmi/sR4l3OCVHDqbMAiU7qkPLKilHr23bpXGvRInq/m/rc+LlfA5E90bytQ31IEeJXC5PKhSgDH+q1/8Uj772c8CHf50jCcSdRoGXPEbLM8bYNzmwIEDCuPQw7AyDbPmQii/d7jOrQ49GC5FFBZVFBvSDM++mZYX4vM56MfM5I52ttPDeFJ2cmIYQJ1vQp9qtCHZg74J7kvj8hRtVPAwEGhhqerHhmcxYQPfyYXUYvOETvw7G+dTzwmJTR1AFvR07KrmFT+7BipB6HZ1QZnxxGmfqyykLegkrr7IBIRtNm/eLBMnThTGNLk+5hWaZ8hjE4kLDySjZs7VvxUI6dvOwBDY17/+dU3wo5ALkbD+7Kspe9JvDCxUhUy+ITFSyOGHwgT80QYgv42N9PFZbjZa/gK+d7znoFJX7cIzgRdI3zC0O1lR4E+XTeEGTykLfUizySOq3F2ogUZDrMkKjQeVd/xiYh6/coMd641ievuUIZQfW7ZscbxL46If6Ej/djHzrYFagRDFoVyjMcn9/eY3vykf/vCHNZRDOdiuPXadUdmfl86BAM22o1l/C9PscZ48OG3Z0BNqAADJ0nshJAb6bCHqBTSYjbHoDNJRdZFlf30iYeCNdt8Km5/R8yeKQA8/h2V44CMm5+lxVNTKS1Tujq98nms3/RAq/pjy0G+5lEV9dfP4qVuIaLu8so3rN8j//vzncuUVKzWEZ7yRyJoNuOLX22Z8DovGeNztt98ub3jDGzRpgxtqXo1tbN9eDhZBS5lc8hAFiTU10NpgKGK1r3SBzM7yXgs3QL9DzEV9c13QGATrdkY/d7JPJaWz1rjxHovUc+h5nKevUBLP5r0d2xzbvFgI1jR9/E4o/OkIy9bKPJjf/va38pvf/EaTwEzpxzNA32uWyNZnjhmMFTDlT9onY65fv14uu+wyufTSS9WzYdiJx1CRJVLGdBopdfkWXR/FLFBV5xoXdBLEhQM0XkWBROHi8008qWuslG86IwB8gWO1HbYj2SDB1PGU9uFTT94JKp26yQZcBk+6LzmE7PSb92hD93PzX+QLrsvIkSPlsccek3e84x3yjW98Q3nCHIj+GEqDseeZa/S8AqHi59+G3Bw6dEiuv/56hfinTp2qRl54bDIGQOjxU4grEuunubIklgaB4wmrNiF5UjkHtK2S3/1POciUr/5LBbf+NttaUS1FgvUj5Uin4d2xDDkwYc9l0JzuGJ7OGZ7ZyAdeNhg/8Pt0ENetW6dJkQ8++GBsHU2OJEJ/A674w7gmrTd6/VT6F110EUbtHlWY06z1+OQ2E5Ldb9yvekwpd33aJWzsvWAJ/drZ+jsFfwYLsmutYxewt8yLtw+4fZbQp3RgexwSiBoOXSiA/aXk5DeTyoDETuHPxJbVq1fLtGnTkKzxMKCc0thxGWg/EVJO3WMMBbPYJnNffvnLX6qwO4lulGb8GUwXGseJPlU32u5GeCFhd3kRsfP24VSp56N07GD4rtCF6nP36qb4zQjvEowqKGMHB0+kwtafIjg337ER1QcPojkX5Aazvynw9HLeiEhGISS6jpnjzt0K9BTjp45ghcaXvvQl7VvCkk0iAVrCHYQzQ0Ogrzs0xa7GrFfyquh1TJ4X2HYS75HHPGzSug859XodT7RdeVrKADHt4njGwf3OHnbaQgEGNQw8T7mv+WOCqwWGu71LWqehRISEVXLUFY888ohcc801WraoLYkD3uhzjfCQPai8vr7W++d2Oio1ejDPPPOMXHvttQr3j0CCEI0AgzdN8Zvg6/uq8VIqXqgN6KOcdjsxI6KHG9W9MsXvN9T+fSbZyvUqQOyICoA1rfT4GesKPZuMx983ZaTyESbAyLjcS+Zv0OPn3nOvufcGX/cpdHp50AFm49Np3yvmMN/E5QK4cqoQ2nQTMpPfETMs+Cx0ELhe5Ifvfve7cscdd8TyYGw9+7tWyd9Z5hsDsQKxLq0ezYnpXh/WWbFihezZs0erXqjcbH8HxMAzZToQD5LQOTxeoIgakF3oZU7a4ysM+fd1KuNrrh31KecZEBFmXgRDhjSSaDglm/M14B6/PpjfSCp/ejGE6D72sY/JVVddFctm1qlJeFlcYkA2t69VHKDPz2QA6CV6OcA8d4thMWmJG8lEyOeff14zlj/4wQ/qZtIYsPOk09oM0BIPq9OEStkM4mefeVZed8vrZNSoUdq8hNnN1gODxxg6kMjep4ICNMTBibvkXuYA0Njls5SWlqoX8+BDD8onPvEJ9QZZu29Ne+zsiaxNcneSOfpcrkA81G/XIq1TD+zevVsRYqKgNAKYA0PYn4pNy5ptyFNfHvm5fIh+njsZu8P42fQo14Z6lD/M/aLTQMTQqh9YpmhwQ6I8MeCKPxRC/JvMzBv88pe/LExsYjnTrFmzdCMtkSPM4EwFIdbPvU3oa3w+CjD+cF127NihBP+5z31OjSOuFwU/jQIzojKxzISWNmUPCiFOY2YKMcaub7vtNt1zxv2571RwBnMm+kAWOkrH3A9bG64Hf2jwEt5nFn+o9Cnc2JgoWc8m0TXMHDc4KxCiNaEhYJA/Uc/Xv/71ioItXbo0Fl4i+mOI2eDc6dBexXiayBd5oqqqSpU+of0f/vCHMnr06FjOHO802WTXAVf8pqzCZTOLjlbKPffcI+zPzJj/2LFj1eM1T3hol/rcX902sxmlgocOH9IsZSZo/N3f/Z0m85H4DdI5m5KWc/8kmSskswKhsKNitxp0WvKbMD+cXS4JadMgPv/88xXmNqGYiAUfQqLpZDiHgp/rQg9v48aN6vEz3vvRj35U0S+uExW/a6jiXomsSzJ7lDn23K+AGb22dyH0z/eY12GGH7P82Qtm0qRJMmHCBM2Bouf/WnnZehw7dkyrWhgeZOne3XffHUPNbR3DEr5E+eKcKP545c8Nt0Q2ZnDe/9P75Z++9k+yf/9+ZXLLZg6F3bmOWQ4GAYUeWJigR2uWzSro0bz1rW+VMWPGqNLnK4SzMgJuMHbp3F8j9PjDRD56MER2qNxYAfNP/3pbJ8QAACAASURBVPRPWs5Jnggb1Jz7OxyaK5ghzN9U+uSRv/qrv5I3v/nN2u/Asr67JxX2kY04NI+SuWqCKxDyQpjTocUmSFCzUBhPx1g2w8SPPvqo8oShoKHxF54jUaWX4K0O6mEhvM8LU5lTLjDU8b73vU9zXJgPFJ/0aDoiWbTvnCl+W7VQgbdiWEkELQz5YkyTsA6T/9ipjpm7lvSXTl5LItRhhg+VPeErZq7SkmWpEl+0dG2IUZg8lYH4E1nd9DkmPgzGvbbGTXwKKr+9GK7Dnv7M+di3b183OK+nJ40XGOmyGkbnzFJmo6/rrrtOLpxzoUw4f4I+guU78G99Rl8iNdxkQ7rs10DfZ6gXwr+NJyyuzdbW9HipI6grGBq10b1mRPP7+neACA30/Z7z8/nUGD43UQ82vqOeWLx4sYwbO06NIu046xu4cZ1C/ZBSir8noWT1iGHnrXO+qClwAe2KRqs2aMdqyUzxBk88UpACt5+5hbNYgXiFb1a6CTzyRJjXcRaXSvuvch24LoYChmuVzh5d2m/MAD1AyAvxWf7h/vI4M4oTHTwzQLeYcqdhGIxrY8l8xhPxeiIZo3hQPP7QizXIO0xgYiZwOG8+5Va+nzdkG0PCpUCzKgeezqoZeorPJmu99fP2Ml8b5BWIN4TDfaaQCyFt82ISbcEZ84z72e1soJeiLyQilAnWkMcm95lXY6GAgb63zPmGfgXiQ7nxSiveQAhDBCF9xJ4kbLoy9I+X/B0E988hPJ3aDdAPvMJn2prbT/LsSfGnRHJfT0/dk9AzYRUePxyVnhF5KNjj12g4Pnfy1P/a/EbIG/FGcrquyJkUfzwf9OSpZPghXXd+YO87Xnb2ZiCkO710tdt2FkCyuQvJPv859/hDMugN8uzpmHiLcGDJaXDPlogwjxf+ycA2g/s0masN5Ar0tO8h4w/ktQbzXMkKosG8t8y1UmMF+kKFjA/CWP5wVfyGdiWiKwZi9wZV8dsNJ7LhA/Fw6XSOjKBMp906N/ea4Yuudc3ww7mhsXQ8a8gXw1Xxny3vJ8svQ6L405H4MvecWYHMCmRWILMCmRUYDiuQUfzDYRczz5BZgcwKZFZgmK5AIt5wsh7vMF2qhB8ro/gTXqrMgZkVyKxAZgUyK5BZgfRfgZRQ/L2VOYXLG1p08Yl/PWXLh+/19HeiGfY9ZeTHW5dnOobPYAkb6U8umScYrBVIxMvp6V56o/uQDkP+ieer3niJ3+/pe3be3pIUe7vHwVrHzHWG1wr0xRdnkuu2En3xyJkSy8+kh8600r3poKHanZRQ/CZUwozG+AoA/Uz/72aCJ5L1z++ECx4q6HDB+zpXeF99be5gZWUOFcFkrjs0K2A03xN9haU/fd2d8YTxXMgT8fzXF63HGwO9KfmM4dvXrmQ+T2YFekv2i6flZPXE2fIEv2+19n0ZD/EGczLPPxDHpozit0W3gT49PRwb4CTbxak3ZT8Qi9fTOXo0WM7VxTLnHbYrENLtmSbSWVOoZJTrmQzgZM6T6OLHI2Ln4hqJ3kvmuPReAZOv4UTX+Cc602e9PX1fTmGiNJsu0yNTQvHbopvS53ACjqrlRCIKNk5nmjp1qk5n4rHV1dU6pjAvN09RAOtaZIvOTWLLT846NyuM5+LQD7Y9HDFihP7muY4fPx7r/cxuSTbX2AwMXp/9xIsKi+TgoYN6Pms3bBP0+B77R/N67LnP+7D2irxGMt3X0pstM3c/UCtgAs46+pEODx8+rCNryR8cy8nplvxNeiNt8zP2+ea/zaMIW2STDisqKpQ22fe7vq5empqb9Hiex+bdk7dqamqUlsNuk9Z9kt/nZ2VlZco/vNfQICf/8ZzkCZ6TMymMZzL8MFAU8to8j+kK4w/SPH84+4X8QF2hI2vb0CkVHfBIn6Rb0iF/28uGxvE8HADEiZh8cSjOiRMn9G/yCmU/W61X11QL5wbEukyCxg1RII/aBMnzzjtPOFGvpa1FcnNyY2Fe8gSP44vXIu8M5SyWIVf84UZyIV5++WX5m7/5G1m/fr3OZOaCciMXLFggH//4x2XhwoXyr//6r/L3f//3utE2tpOCxRABGgacePe73/5OBRQ38i1vfYv+pjD6z//8T510xL//4i/+QkeikmDq6upUQPE7vBd+TqL60Ic+JO9973vlyiuvVOXO4/gZN9CMDRLMpz/9aXnLW94SG7pjRBYf33ltsmzmqZNZgRDaJx98/vOfl8cff1wFGQUI6ZsjfD/2sY/J9ddfL88995xOeiRPmLInHVNJU2DRqCVNf/d739WR2Dzmtttu0xHZpF2Ohv7TP/1TFVR/+7d/K9/73vdk/Ljx0tLaEhsUZCOjSf8XXHCB/Ou3/lXe+7736mCh4uLibgYH+ZbDVThal/dIfjHlb95TfK5MMuuTOfa1swIhtG9PTbn/7W9/W2fTU67TUKVDx+Fn73jHO+T222+Xk5Un5Ybrb4jJdPKNoQGmgCnfv/jFL8of/MEfqPH8D//wD/Jf//Vfqnfe+MY3qp7h66GHHlIdMG3aNGHvfNI7z0cDmseSvslrq1evVprnZEHyJ3nPHFOeh/d61VVX6b2b89kbmpAoytAfShhyxc+bts2gQPmTP/kT2bp1q24glT0XlKNKadFROf/85z+Xn/3sZyqcxo0bp1YXrTmeg8RAj4eKn8bCA795QKIFUfnv//5v+cLnvyCTJ0+WnTt3ygc+8AH5yEc+ot/h35yGRoHJjaQyJwFwQ7kx21/eLh/+iw/L+9//ft0wKn7ek206hSs3iMKTI0Wp+G2y2GCHGfpDAJnvpOYKmPImLX7qU59Smp84caJceOGF6i1weh8NAtL+D37wA/VK3vimNyqNUzAZ4sTvkz75m+f86U9/KjNmzJDt27crr9GAIG+R1yiMqJxpZHznO9/R0dGmnE24cbV4/MUXXyz/9p1/iyl+ek2cLsgXv0NhR6FKIUiD3QSjfZ6aq565q1RfAUNt//mf/1nHWFNec4TzlClTVE/Q2yZ9/su//Itccskl6qyRpsknlNmU1yGKRl3xhS98QW699Vb97tve9jalYx7HH+ob0vaDDz6ouoLIM79vQ7Vs5oyNld60aZMaur/+9a9VP1EnmY4jTxK14z39+7//+2kTWQdz7Ydc8ZtnQ0Hx7LPPqqVGAcfNWLJkiS7cL3/5S7W8Dh06pO/TU6GXQRiGC0lvhf+m0n3729+uQo4bTWXOxf7whz8sTz31lCptWmDcyB/96EcKQfL73DQev2XLFrnvvvuUUHidWbNm6fE0Iii4OCecv++99169NyMgE448Hy1BGyLBjQyhzTD+P5ibnLlW+q2AoVdEwEjTNCy/9KUvybXXXqsPQ1ql8UqPnfO6/+Hv/0F27d6lSpf0+9nPfla9Dxqrd999t/IElTeFEY1jejY0GKj4eS3yAI0LejSVlZVqVDC0RgOB/MXP3/Wud8nrX/965QHSOXmGaNi6devkne98p95nGG7jceSJ8vLymPALeWMooc70o4jX5h2HSXKqK4BcUSe88453ajj4j/7oj+T//b//p2Hfnbt2KupKR+7SSy+Vn/zkJ+phWyjqW9/6luqS2bNnqwwnQkDap3ynTiDySwSYDibfpyN63733yZtvfbOehyEwGxfMa+7Zs0d1wnve8x69J9Izx+l+4hOf0OuQ96hPqCeM1nneoqIi5TsNAfvhPPxbh/MEYbNh7fGH8ciHH35Y7rrrLlXQFDaE9Sl8+KLXTuW+YsUKXVBdMMT3aQy8+93vll27dqkgpCCyFxdx27ZtCtFwwQmJ0rjgeXg+WoTh4m7YsEG9IBoU5hnZuWgg0CqkUCS8tGzZsh45kc9D2ImC9+jRo0oUnDVucaBzuZmvTdEwPJ/a6IUhrz//8z9XhfrXf/3XqvgtHknhws85s/tNb3pTt4Ug3T3xxBMqGAllhi+em3ROpX7DDTdo+IAIAj1zXis0UMk/NCzoRVGIMZxgL3pIPH7jxo1yzz336HE9vXg+CtGvf/3raiT84R/+oYYVbPRuBvofnjQ8UE9lxqTFyGmEEs5n3hZp6YMf/KAqUyplGsS/+fVvZOy4sfLWt7xV8guc/uCLziOVP2U30S0q/vBFhU25/8d//Mdq+JJ/6EzSCeQrzNWiwicyTZq/8847u+kc8hGRAh5DVKKnl+XOfPe731UjgQgaQ9wh751LXZFSHj8X8uabb1bFz40khEPPml4I45L0VvhqaW7RBcqL5KnVRWVP649QDL17Lio9HApIejUUSoRo6NFwk+j901igdWgJSxRCa9asUc+F1/7+97+v1zTPi0KO3g6Ji7CooQEkBhIkE0FoBfLF2CaJi4RJyJSGB++H18gk+g2UOBje5zHBQOORypb0R8+ZHsXcuXPVa+FvQvt8GeRoSUtU/KRzGgRf/vKXlWeysrMUXuT7ZiDTK+LPf/zHf6gRQHrlOehZRfOjQuiSdE1IlLxDr95CWWbYkt5ppM+bN09DZORNCmeiAuSnSRMnSVV1lQrU3/3ud3ptQrV8ZVCw4U3HZ/t0ocdvMXrK0dvffrus37BexoweowjxwkULVSaTH+bPn6+XZYJfZxY8RPyfcpchLOZ3LVq0SI1QC+/yMxq2pE86haRN0i9DbNOnT9ecsunTpmsiLI8likwnkGjcHXfcoc4qeYKKmijYX/7lX2pOAMNyS5cujYXZeN90HMkTdo/UWTw/4X8iFWEOwrBX/CYA+NAUQF/72tdiMXt+RgFCY4BGAeMnOVk50tbh4jX09Ll4VPy0/BhTpJDLzcvVWCehGwobCkBuNoUghRvhnF/96leq5E1Yrlq1Si1JXo8JHhSsJDZuGD3+173udQoJUdBxA0048zokEMKufI/Cj9YliYmezeWXX57x+M9WArzGvh+GwBgvpDdAr5m0xs/orRCZomChoGEiEWlVDWIIJsLyTz75pHodX/nKV1RosQcGBRPRNPIZvQx6JqR1Qv/MHeCxhEl5fH40XxU/FTVhTgo4huJM8R88cFDe92fvUxiU12b+DK9PvuR90kh+9NFHFVnjvdO7obC85pprlB8tQ5pba/0FMobAa4zQ+3hc8/YVGQbCS2VO5btl8xb56F9+VFFVwuykG4awKJ/pKNKpo+KlPLacE6N7ImTf+MY3hBn4VnlCHuDnzGuh4icN0+Ambf/jP/6jJv8x7Eve4g8T/0jL5DMaCJT5vA6/Rx302GOPKX/u2LFDn5D3TPR6//79qnfoRPJ4/v3II4+oM0ljnUYKDXTjiXNFDUPu8Ycba94wPWXCLBQ6XDgqWm6QCR8qem4CF9IUPz1/vk/DoKGxQQryC+TFF19URc7NJ0xJWIiZ0YRMqbgJ4XADbfOZGR0qfnowlkzCkAKPJYG94Q1vUKOAcVcKLwo9EhytQHsefs9K+0Io81xtZOa8w2sF4hNDGT6iMCG0/8orr6iSpcAjDZLuaGhSIBnd0RMxxf/Vr37V8QtgzxPHT2iiKo1Ueh6M/xPypzf/6quvqvAh5Mlzk79eeOEF9fhpxN59191y+ztuVyFHA4I8QWOb37v66qs1pEUe5feo+CmIaSzTuDZDxpR9mKndE9SfyfgfXvTc36cJPX5V/lCMObk5ejrSGPmBnjJ5grqAnjp/iNYyJFtSXKLyn47g5z73uZjHT8VPBNlomSErImGXXXaZOp509gjjUydQ3pO/crJzNA5PPqPhyjAYFT8RZfKLefxU/A888IAa5dQ5ZjBQvzGsRj1ClMJ0BZ/RcnDs+eyz/q5bX98bcsUfejZU8MwEZhnRxEkTY9nzNADoiXBzCXESvqf3QgLYt3effOCDH9BNpxBinN9gdVpuzO6kN0QiMa+CCpkCip44YzDcGAqptWvXqkdjHr9ZjBRWNEZo9VEA0ltirkGY3Ke1y+3OKrXrmNUWEu+5hG/62uzM5+mzAsb4pFN6FiMqRsjMWTOVtknL5BNmBlNYMaRFb5qeTnMLlHIkqkrdFD9pnIYDjVOiB/TcrezPDFuru6fHQ0SMiAIFFXmPBrVB/TxvcxOugTAAww9E1JgfwGQphrQs98ZW2lCI+FI+4x0rdTKvLOPxpw+NDtadmvy036RFynvSFMPB/E3nje9TNjNJjwgtE7gJ6xuN9+Tx8xnoIFLxG40aAszPeE3yzv3336+orhkKoeI3j5/H0yCm8/m///u/irYZeh2GeE3nGRLA39pjgN4+u82+Fjz+UCnSImMiEmM1hF64qfaix87FZ/09N5ff42Lu27dPPRhCKPxN2JNCjIKFnhAVNiEXCktaZVTq3GD+TQOARgQNA6vBZOzfSqRiHj8yRo8cPaJWHgUxrUXGQy0MYPdIa9BaCvN+eA3CSYz/W+wmo/gHS1yk93UsuY9ePhPxqLRZW6+Jrf7F2DzRK9IXc1JYW2+CiXRMT4jeBRU/6Z90TwVN5U+6NIiUtGk1/1TmjDleccUVehUm7tHjJ0JGAUdErKkRaADQA3ovDANQ8dOYoOEdzxOW0cxzURgToWCugjXXsmcxvjDFn/H405t+B+ruQ+TLaItJ2Ey6o0Kmkg2T62jsMrmOzhw9fuaeqMcP2qd+obFMqJ9OIXmAOoT8wffNGLZGPfyMfEGHlHxDp9DCu+Qromb0+BlWsKx+Hk8dxIQ94z3LEwvXxJLamURInULHkw5vR2eH3uuw9/htAbjIFDKERigYqPyZhc+/mfRHIUbYn94HoRUTcIT4aa3RAKCA4ucUGvRUuCn8m++tXLlSv0PYkYKK8X5u1ic/8Ul529vfpoYEYR0aDzQUmP3JBAz1oGDFHTt6TDOkeT4mCpJIrLsZ3yOxrLh0hdzxrjvUEyLUyvjTZz7zGSUAEq3VVg8UU2TOM3xXwIQF6ZsCh/AlE5duvPFGVZqkMcYHyROE2EnPYa0yYcqnn35a+YmeDl80gskTNEppFPO8hk5RsZOvSLP8LnmJPMnaaAoyxjrvuvMuue1tt3Xz+MlbVOjsu8Ef8pjFM3mPrK/meemR8Ty8pz/7sz/TJFxT7ry3eMVvSEAmGXb40ngyT2Zesjp17W3y3ve8VxFaOm0MMzHplTTMyjBC8KQ7JnNTlhsvMbmPjh7lOsNfhPppEJMuiZwxkZxKvK0VshqJ4zRS6YhSl1yy/BL5j/+Ew+m7uzJ3ixUErPunUUD65ouKnwYy74P8wJCDfUYdYJUJ7ENDg505Z3RyGWIgOh0q/HPpJKYM1G/MT8iSm0JInUxvAoBWEJU3BZyV+FlyHyF4xjxZQsf4JF/0RLjJFJZECkL0gIlG9NhpsV19zdXyg+//QJEA5hVQSVOwEqqhZchEQV6H7Xp5fQpXg1stk5r3RsuN/QWYNUoLkZ4ZY6Df/OY3VdhaA5NzuZnJMFLm2NReAWvgQ/qnEKG3QsVtSUQUhKRFNuMhAsXfofBh8hDzWZigRISML9ImQ2GsISZaQEEXvmgI8FqE+9l5jHFI9gKgl0/vnoKTit7i/6RvGsNU/DRqLeeF/EF+ojHOazDBjy/yKf+ml8aYqdU2G++Hdf0Zjz+16XMw785QIIPDGeKlcqfCZlK3dW/lPZGGiI59619Qtrd8WSy5j+Fa6gY6dKRJKlsqZvII5TNplwm0RK3CF2meia8V5RXyox//SBNf+SIixvwXGskMQ5Mv+SJPMhzGcAOTZU2P8TM+B5+Byp/GBPmL/EidRn1B/TNYYeEhV/y2yHxgCjtuEDeVnZLoMXBBqYiZgcwkCwoEiw/yWHrd9Hy4wNwUKmu+fvGLX6hAokV4yy23xPbSujdRAJFoGB+lsieywLgRIRpLSuLGmLVYW1MrP73/p2oEUNHz2rGEDJyd90lCovVJQuT16aWtvHylzJ4zOwb1ZzyYwRQZaXwtrUJy3T1I8/S4mTDERDoameQJejksQTJP35QlaZOGKz175qnQyOWL1S3kLcbvaRjQGwoRN1a1EEbl+RifpIHA65IXaSxfffU1MKBnx+B8eku8JxoFRNLIG7y28YzNFGAWP+meQpb5CoRfmV9jwtCeMVT2GcWfxrQ7wLceJoLy1Iaekv4or5n7RaOYMpyePhNKWbVl4TILCxPRZR8JfnbTTTep7Ce98z3SG2meDafMgCYfUEcw654v6hfSLs/Lahjm2TAbn0rbPHnqBvIEHVE2BgqRLPKaVRnwWuQ/9pUhcsH8gTe8/g2xWTHGEwO8lLHTDbnij89e7iu5J5HPe1o03+8nJmziPe+ezmtelyUeJbIJPZ2npwzmRM6VOea1uwJU+povQuXvk356W40w+UkVJv6XnYWuYP7FuCFf4Xv8N9/nNUwBxxul/Dz+OybgjCcSQbDieTxU+PHPlInxv3ZpPpEnN/roKwbel55I5lrhsb3pCdM5ZmQkcv74Y3qqcOvPeRL5zpAr/t6EgCldW1CLRcbHBQ0psONMeIVK274bE0Aq9CAe8aMCEd6InTf0gHraGHuvp/swYWjxKCOCjPeSCClmjokXMLF/+7aeqsA9EmAKO5sZwFD2IGZHz/wbr852IGhoXgLKhvKGMYC3jeZ5RI43DPi+vTR+yfPgPf3cnRZxzQ59T/lIy1a6fwefdr3l78WMFv2Gz1I2vjB+7GnHTbBmYvwZfojRJYgwlKGhIxXKWjNCe0JV+VlPOiHUM6EeCBW56YR4+R4aH6FBYDop1DvxBrJdK/764a4nYlT3l0pSQvH39+bjBWVvytjLzZhwCr3/c3nt3s6dMQQGYtWH+TnopNNp5+/eCJbvZ1PBQ7lDaev/qJxZVYrPOlDuzN/8dyfbgnuFbe+pgUDl7sGB2LGBbrdL8zeP4zGh4uf96fsOVHAGgme42Ptd4MPpmxY7n/uSs13wDDRWvMAf5judebwkViAe9revnnt6CTnB07q3s9U4jqPVVEeuhkzxd1/GUDXb33HUEHxBvQnfirGbEOrlKyY7XduH3uVo7Oun77ETdglZDHZg95sxDy0JGs8c+ppagYDoQhZQbe3gfn2F5EWlzbe8Z64f298USlT2qrHd99TJ9//W9z1YENK9Kl4e5q9jfztPn6iCv4euX+7rZLIACdDrhAo//jP9d/imv4sAtfj/7X0HeFVV1vZ7e256hxACCSmEDlJEkbFLEyvq+KEOqAMooAg21N+KAoIDAtbRbxwdv7GgIGN3QMTQAoQi0jtJSO+5N7f/797nnMslBAgCQTDhCbnlnH32OXvtVd+1ViM33B+KSppvtpFPwE+ox5AnjRym4cMa5vGBx/p3s+YBkyG4oym+viJz5hUYlY3wwmfiyRz3sQbGL5Wtr3EwweAaYAaBo8lDlfin/DnO7LUH7VHXqVGC/8Rreux7k+dqauDhwySvFfFU1Q2rfdNUi3xKNN588hl/Ag3pmUKQKoKbtM49IcP0DSmfqhXu38XaMargl5MXVrn4PEDw+7mQ+DzgnKO4k19pUHbdEd8HTlybX+BY4noNzVl7otqk/ftGHK9oKwpWQZzeKG37jK9R8wXOoScgw1VKsEmjoMbM/visP5DY1dd+99bRMstP9qo8kPtYiqvD82q8MdmY2Z/cMWfH4lflu2a0SwCT+qTY6ZiuSzZXILcS/7QfA7mWAWxy42XFPh0LHOhcYBgTHmGFqMeJhVbhUHLBmQxIpkkEPpkJ8ZTyHxMqjuBGWixSxEIN/OXVJYcUS6vELpURtfNkxUD5qUHVOZRvxewMJAQdr6VcRRTzEaPwr098Z/S7g5rjlydHpH+MowM0WCnlxXuqqorWSJJkX2+dkivMbGF+Jn4VaS5Fso7pRNw3xDz7j/H5LIz1C1CfGEr0BRfnC2lsJHGLv/zVi2tp44qLifPV78RfXsfnNUmBrNO7+J0YJ3APictpcQkeJ+fG73ViHPEbKLjlROSvl3EAPecnq7AKhZj7WfwR+0iOprkr6inLfwxaaL7LU34C0v+u8G7Jh1V8jGIvCgVWFTiCxFl4jUCvAGNSfK/KHg0kKwW4qk1r34m2ugIX43d3HY6ZSUOP1OxllguF7BGKbIDZesq3+VsHOCuCX0lTUh68It5FPE+wAz3qyADWu7LxY/mP2FWxk8UanAi2mPGnlpfgsqABSNK3hs9FYWpyYqtjBxaVLYE3VAerwQIruYiOzM/utCHGFId+1isRb0iBiQzI7i3D/Ir5qDLVwERGZiI3DDKzprgos6tn/WWHDhmeZHSI7oKskjXY7zsIQ6iVtZmpbPBabjI8nyACpnLEeyNxdfBQlDjKkVW5FC6en2JMwaCogaQX3gPfF7jzsKz0a7iCajAw9Hok6dIlEUqyU5lZs8X/W8n2/DpP2Q1CzSSjkAxKdAETf9lSlPSn09lhd61AUekKfu9CRFB3Fv/ox5PE90HSSK6xbUBZySrmMNfxtRMR0d25b9gcysk0O4sLVeWLUGfbQoEaSrnfCpExnWHUx6Ho0GqOsVMyx6AIE6m8RAploy4aVlMCgoP6cnapjOGzD7pzC0qrFvIzbgO60XwGKrj8lSEAF9mZuzVaxFzOPVOK4qJVCNYXw+FzwmCNVO5LZ4LXbUWoNQOhwZ3gdUXzuhxMMFQDGwwJxYWKvU7Pe5aKtQYaPIEX8Pwih+a7OdUnoAFdBWnW2uH65kv4Du6DPjaOeiu76EnwiRGeUNJe1xSYMzOIUzGT5sxwr82BOysLxvAI6rBUZIUOq4JgfF52nmTRHWO/SyivXKj+/gdY69zQGSiPqAT4PDzeaoEnNRGWzh2pM4fAbQqSKa5C3VWiD5rFr7z2e4hP9Z5P8vyzI/glE5CqlhT9guG5+H85avBt8dd4be087Kjbjmodi/iQ4XjJVFpYozCk5bV4pPNjyLBQiBr1+OjQvzH+p4fhDmFHMpuBwpvFEchojFYyDjKkzhHd8UyvKegd0QP5zr24ZtEVKAvnmJX0HVDQGzxGOMjAvHo3rLVG3NvhDky48hFM+u8TmF/wOcJbRKF8XxW8Zlo6ZioVPN7gdiDRFY/vR6zC7io26+pEfAAAIABJREFUBlp6D6p8VUjytMM7t7yHJF87mAxGrKtcjb8uGo5iby7+PWABrmkxRHYUlChnFbykIU2bc/tPkmrPs8M1H5MwHij3+J+TAppdyEAm4qbdYKzGxq3PorBiEauKOWD0dES/3k8gJLQbmU0o9AYnah3fYlnWdJgNBaRnA8IiWdOi83NkWm1Yd6IUOasnsONeNuy1QfSSZeCSy+7jsa3w808vUzlYwaZWIbCxIprdUEmeyD3hMsJsjEWHlJFom3QX5xKCgvzPsTbnQeY6W1FWTgud3fu8VKB9AmBIK9/nyMClF05GeFQd+wTMgNm5XToWbN5QxRMmFXPRmjoc7dOvQ3KbEby/GN6rEPIU/NyHSt4APRL8FTgexfd2PHTgeUYMzbdz6k+AdCb2ksh48bHy5Za7/gLr6mxUUYqXsSqfoC2LULXNelhjQ9Fp6kuwsMKlPtiKA9Nn4NDkZ9EiPhZ5bGjlo/BndRmYOZ7DWUehfxEuYulsd10tvmK32MzSKlQ77ajgJjZRibUEmeCz+pA6ZCBaPjMF3tT2VIgp43hZnUG6tJQfIQNUDM7ZcGqdFcGvrIpgcGrsW1jJJjcW1C7Ai8umodBVhojIMFwSfxFakDHsM+3Fkj207HU2DI24EbMveptsyIxPij/FuE3jWTzEis7WToijhWLSWbDLvgvbazaitrocg+Ouwbw+f0d5XTkG/Hw5CkNK0SakFbobu5IjmaFnFz8PvQxhNgsGxVyBK1KvwVOrnsPHtv9DRHgoLjB1gcEcDCeVlGBvMIV3LeK8sXixyzxsrWOt5rW30YtA5aDCghtT78Sj7ScjxheBVdVLcd9Po5Gry8cnfT7C0PhrlYISZMrNFv+p7+3zaYTD/i8hQLVIoBbbZwlc4yGs+/Ux2HxL5LapqYhEn27jEBU6nBZ0HAV/FZy6z7Fi1VSEBFXTCndREWiLSy/4O+ktjXS3HRs3PMLqetvgckTA5sxg57C/8n0o1m9k6WrbEkSGpsAazMZYehOc3mrU2gvoZSiDz9kBvTpOYOWy/igv+wJbf5nIwiOhCLamwuUJ5t6hckIG66aXwutORsf0O1lZsxgrV7/M/bUVkRGt+Z5zEB4C1HJeBaip282x4/Gnfq+xoRALbnnCpQNQeOtk6EF42Wj1S5NAulibBf/5RO9n/F6kxS+MS9Jc7h4U3jka4Ws3wnlBF1R2ZDG1OnZOpRHmW7oMJraWzmfhn7RPP0D4lf1Q8OpceCY/j9CYSNT2ugDeYAvc5NmCb8NWA31GJhIfuB+usnJsGDAEyYWlcPTpBSfLAFtqPTDv3I6SVctgJSlH3T4MEf/7T3rG6AkgPQsdVtndiuufMWglVKCmu57x5xJwgbMi+P1IRrrsPayFb7AEo8JQjltX3IysqmwkhLTFU10fxrDIm6U3oBRFeH3tbHy061+wVlkx8/K5uD79Jnxa8n+4Z+XdSG+RgacveB5djN2pc1mRiz2YtvkZLMtfhoz4Tpje+U3E+xJx9U8X4WDtAUzqNR7jE8dwbCsXIkJ6HRjJRBDVMh/zkp5ey2YOeW+iW0wH/PsS0QkwjPaISYYiBFpAxPhbIAkrapfh/o13o9JUicoKB8MLqXip+0u4PnIQfqz+GvcsG4USYxkW9l6I66MHyxrTInbZLPibksR//9dSBL9gVorDX7AGvYhPijihwc7qlD8ie/NkmEJ20QoPRiWt7dQ2g5GeNIWMI52MoxK1ro+wavUMhFltcPlqUFYdh4t7zUNseG9WsPyGlcReoct/Lxx2xtB1PdCn1xhW2ovDxs2zUV76DdJa3YK2mSN4bbo4aRlV165D9paprD4ZhJ6Zk5CUcAvH+Qzb9jwBi6k1+vQYB6OZ7kwfQwdSg3cQcxPO8EEk90oOK6LNhqdmPdqm3I5WSaOpFDB8QZxBSfFa/HLgLSoMHqS3fgxtW97ESmlsnEXmqKPQV9z7GsZAMEhpHv3+F7F5hr+fJ6C6+gXSSn9gB4qGj4F9xSq0ZUleTBxPzZk4FX0QnIuX8rtbUUQXfvLM6Yh+aBJKZr+G8knjYW3fAa2/nA/ERdNBYCF9C7c/9yZDzz4L/VMcd+OQoQjbW4aWb72GiFEs9cvqgaiqQPG8WXC8909UhwSj5RvvIvLqQdIjpud7CQkQuC+Rgis8XRL03fSK7VkR/LJTndBy6ALxOOg+YenE7fx33XeDsAP7MDxtJGamPY9wVwg9AUI8mxh5PIS1jnWwk6l10ndER3NnzC+ej+Hf34uOiZl4vd/b6GXqDQetijo6dabmPY1/Zv8L3eL74W8X/gMhZEoDfuqHg7Q2JnaZgDsT/odaXwSZZJDEeZD1INEUQVenHU+ufwZvH3gDFyf2wqwuLyPSG0etj0gBuikNbh+iDMGIMsciy/Yj7l3NBioeG8Jj4rGXJYKHJlyPKV2fxDb7Lxj18/2o1NVgQZ+FuCGGrn5a/FrhBsXb05yr/PvhFmdvJn5YHxmWBusT8l9YuzrDPmzdPQd7cj9GYkIQ4iLTsGXnagrxlriw61xYzVcIHwBxLZ8hawVpNdiNoDAj8kpMSG57H9on9Wcp6gXIy13EbmQ1KC47RAW0G/r2nsgQQBzW58xAdc0PyGj7Z7RIuoHXF255IwV+NjbtnE2hHMXrPEPL/SrkF3yGDdsfgdEXj4t6TaQlLwR/sCKcqTTrdaLbGTuM6RezT/o0uKp+Qbv0UUho/YCcI52lVCg2IWfXTJSWV6Bj28eRmTKcIQgLw2NUpwXASlhqAjSlKkOKK+DsrU3zlc/BJyAFv5g3Q7T7tqDojvtQu3Id2s2cCjw4lvREQU5r27N2K8qvuQz7qkuQwg59MfeNQ/GLc1H2NMNZXXoi6p150EdH0AFFkCxBrmxBAUuyoHEXXLs249eh18K0qxhR772L+LtG0iNQS+HO0NvWjdh3040o274PlkceYShhGjw2toUPpYdMhLe5VwykcQFWVwLdTU/gZ0Xwy2pLIn5H0ISL8UydQY+l5UsxNvtuFOtKMTFzMkYl3Q0rkfA7bTtwqKIM5vAQVHnKCUB2MnafjtZBSfisahH+umI8oiNbYXjinUg1JREl7MFB/X58sPtN2CvtGNNuAh7NfBp5jnxclXUJCsIKEWGOQlxtHGOQFtTQUnHq6pBel4qF1yyQBDFh00T8q/RfDCEY0bIuBkFOeiboqnHxPBy0Y9xFf8HdyePwU82PmLRhLOoqPLjjinvwwfYPUbW1HC8MfhbxwbEY891YCn7Wk+67AENjmy3+c5CFNMmUNUy8+KvE+YWbn4YGJaq9bjFyfn2SbvYdyEztg4TYfsjZTGvCUYpM0nZKG3agZOCrzrmQDXVmUhGwIaFNEvbmEwtg6oZ+3Qbi1+1foSRvLzq0D8O2/T+S8XTDhT0focUfRct8DhuUfAuTxUoLPgY2l8hKsdFqL4WBYa12CX9FaspjZE+RKCyZj22/PgMaLmRYvCYxL27JvGite1xIjL4WmZmP8vylFPwvwVt7EPEtyUDjLua+pGfPUIYDBVkoqdjNO+1ADMIcRIT2ZZyfvID7TqQtysJDIhQqcE/8T4AKz4YrtEkWvvkiZ+YJaIKfWTC6A1uRd8coGLPWIOLPN8POGv2yshUb/RgWLED1goUoyEhF6kcfIbJHL+S9OAt46nHEBIfDGxlOcCqFPA930jovKKtG66mM/48fB9cvm7CTgj9o/0GEsaVvPNtg+xz0GFOW6agA7PkT6/dvWg/dg/ch/W+v0FHgkyFjkbEmsl0In1UArGKv/1EEv1htRdPhI6D2I27864Ivcd+aEUTIuzH9grm4MWEoXExRen37W3jnu3cQlRSBWosXrkM1eLL/BNyScQs+L1mEh7Ifp7kejOrcapgdfIh8rkFRFtjiatAjqgvmdHkbHXwdcdB9EFf8fCmKo0oRagtFQnkUDHR7emKCUEflI60uHR8P/hhmWvYTcybi/bJ/sDWjDilEKvtoqTsJCrHoIuEssOHBq8ZjdJvxWF69An/ZcAc8RcCcm1/HioKVePXrmeh7cW8Mb3MHXlj2AvLrCvCfS77AkFjG+Jtd/Wdmo5/jowZa/OK1SFEVpr9JV42yig8lsM9HdH6fXqMpdDPZpvoN5FdmMS5/GXp3f4o7qRMbQy1C9prpZCdV6NC5NzbvzIPbYcWV/a/Fmg0/oq4qDN27teXrd2lZp9Fif4iCvhXWr5tHQ+UHmIJCyYQiUVUrzBoHlfEaWPW1iA7uj/S08QiyUmkunY+dvz5EsDNbo3qj4CRC3+Wl9UTB7/O6EM+slh49JtKLRsG/9iUYXXmocepRaacXgal7RlMJomNsxBQ40aPbWGJonqIVFU3rRwCd1DRE4VJVixj4c/ib3iA6xynqDz59DdVPYaDbvxMHBLjv57UoZpi9WIDs+His/E0guC+amTFBr0yFfvQ9NPrMKJz+N9gnP4Go8Fj4KPiLCab1EijupmJa6fYgdtIEZDAk4Mhei23X3YCgwkOIfPN1xI8aQ++1i0NQqlXVYH//AXBvzoZv1EikvfYq2/+6iKGJondMBLO4v0Taq8ANHFGwqunW7axZ/FK1p8XPDsUiOx8/Eww3csWfUVBTgmndZmNk2nA+Hgfe3fchFm76N5Doxqba/SAvxOTMcbg/7X78p/QrjF08AdaW4bis/eWMTgYRG+TF1sJtyKlcg0h3LCa0egJjO9yHnUz9G7RmEC3/PNyZfDtGxt4CvcMAm0VP4J6e7vxIdI3ojCCmBT6e/Rhez5+LtPi2eKbLUwj1xci0zlAuVh2BIa3Ckwkm7IJV9tUYnjMctlw75t7wGhJ8rfDEmknILl+FG3sOw4bCDdh9iCmHfb/A4NihzYK/6ej6nLuSZvXLBFdavi4GrMzYi+27p7PL3vuIi+iGpNZDKKxb0PL+BhW1q+BwRaFnl2cRbL4NNscCdhmjK9NTSuE7BFt3FqCO++Xifhdg9bot1I2vRHpqGyxf9QJMxiS6+icQ3NcWG3NeQ3XFYqS0G4iYFv0YjhJAJCrDrk3Ys+sDjlGLtsk3Ibnd0ygsW4pdW0fRqxCD1HZ3UQFoR9elCA0Iwc8wmLENO54x9U+3BDkbXmJW4lYER7aHObQXkc0EAXpy2clvOTyuGkSGX4ku3QmkciVK9DXoGROufgZQFTe/DB+IzzXo4zm3pM0TPltPQAP3CTravxsH2VZan7UakZddCvRkK2pnLQxlJSj/jmDZ8mo4/uc2JMx8Hqb4RJSxBW/N40/D3L4LYqe+ADe7YIrMFOGerzMwEJbaDuaoFnBt24HtAwbCyvBu+JvzEH/vGCqxdnq1GMvPPYT8QXeiansOPJPGotPMV2THVouZeBjh6hfZXQLspwl+ofg28bM6K4JfNAsRe11gJZy0gs1GE3Z592DY94Ox27QbN7QZhlfSpyHGG44KVym8jPOv82zGyKwHmEZUgme6PYH7Uifgi8IvMWbpaKS1bItZF81AT3N3qgpO5DKF7p4Vd2An0+1ujLwTsy9+lbH9fRiaNQhFRBVP6TkdE1sSwCFyiPnI3WoBErdH0e4mZz+JuQfnom/CBfjk4o8Qh3hp1YhjBbzPJCF+LiypXYxR2aNQVViFV6+biyHM7V9QMB8TVo2Hhymj3hAeV+TD/B6f4tq45hh/E9P2OXU5WfhOFvpgqrHIZacg9Dp/wPLVVDyt+2ldO4mEZ4qbIYheSieCmAVjY9AxOWEsMtpMQbV9Adavn0YQnWgVOpZ59CbkFbxPYJ0bew/UolP68wyJRePnleMYT0+j4H+cOIFExvhnobZiCfEAw5GcQasHBDNJWt+O1atHobL6AOJaXI2uVDAKKnOwYd29VDTaoX/fKcQIMDMGROQL60WeEyYtGI/3K6xb/xxc1ZuQnDoWiW0e5bzo3jTmYfuOecjP/5qvU9Gr55uspdGVYQC6QY1KsR89MTciHVFB82vC/5xayubJnu0noAl+QUL7dyHvznsI7luOtBkzgLGjQYKXArjunfdR9eRL2E3jL+P7+Yi5ZCAqXp2GmoeeQA1R+qmLl8AUwf0gkvBVyayln7u37MSOgQNgPbgXYf94F7Ej6Oqn9BGJqS6Om/fQ0yh329DinWloNXwkFVxKDr1QakW2AQW/BPSJtFUxyaYW+5LX+It9NtlyiW5fAsAj8npd/BUFDqqZqjdmxd34smghQqJDMSbxftyQOgRRZChFtiLMXf82vnFlMX/SiycEBqDtBHxWsRCjl96NTkwtev3iOegX1pe1eEywGe0YtOxKuuJXYljCSLzSYxZKHYW4aml/lFiKMKL9vRgSNQSRLvYjZziBOE0Z94k3RCIpNAnP5UzFW7lvonNiBzzZfhJaeKNlURMvVQUXF431fNA7ujfW2XMwguEJW4Udfx/0FgaYr0YNXRIP/DyOc/0WtREu6EvNWNRrAQZGDeD9UhtsRvU3GZ2dKxdSXP10AVIACsAnvYIU7uW06udgw/q3KGgJcA1JgzW0DQV8DcNRdtRU70Ydw1fREUNwQadnGOPPxpp1rzJ2dgCdOtL970nCpm2PISg8D+VVevTv+T4VbCuWraTgtnREz+4P0/Uei42b5sBW+RXatLkesQlDKIQFM6J7vmoTDuT9L+rsPiS0HMY0vUeRX/Ejft0wHjERrdAm6SZ6H5I5a5GKx3gp3aoedzSCQ1KoEKxBzvoZ8Ng3o1Xiw0hKfpGvfQTx5uHAwb9jby4zZfTR6JgxlfPvL1P9jEZx72IfiiqBasqr39hvesZ4rtBO8zwbeAKaq18I2b3bUHzXaFSuzEbrv72MoPGj4WNani4sBnVffoei625mOrYPrRZ8gJjBN6DipefhenIKTOntETH1ZeiiaPRRPknhz+qZzqAwGFvT01VchK2D6CUTgv/5ZxF+x5+BsjzYdu/FgRmzELppK0pTk9Htv/+Bt2UbniwyA4TZKEQNQxASyCLyw84OvO80Cv7D2ciHl0LJWqwPy1XS+dTsCHEEXXoOxvhyPNl44Kux2O3ZycIJRqL1OyBBH4odhZuQV12E0BYxqMl1YVK3SRjPFKMPCz/G46sfRnuk4d1L30Hn8EwqUwa4aD0M+2kovstfjFvT78Kc3vNQYS/B1csuQW54LmOXREf7WrCIj4FCX+QOk9lU6HBxcFc8d+VzeCF7Gj4p+wzWMBMi7EYEMc9fz7K7Pubnu4xUVMqMmD/0SxYFKsKonL+ipkQI/jcw2HoF1RQzllcsx6gfRqAwoQTVhQT39fsC17L4kMvNGFBzHn8zr6r3BPzgPgl65ZcUhAbDIWzcMgEFxYsRZkmhhf48+UQfxWLAfuzY/jaKyn+gsI1Dty5jZMW+VaveI8YlD+1SJyIurjcW/zQSoVEHqEiE46Ju/2CcsRrZLMATZMnEhb0ep6s/Ght/Ydqd/Vt4LTGodQtrm9Y3AU0+dzX3KOkVXdGtw4NE9Q+gF+Fb7N46mUVKahgKYEYOvQ+sbsFzWAmTqXqVlWFIb3cj0lNaYPnK1+hP24v4xLFonfQ858mxjJXIzfsE2/e/wQypUHTNZLZASH8qG1ZZqVAUzBbIHz2zChROqyhEzQV8mrfMST0BWvNeWQmLXqbdm3Ho3vtRlsU08ZenIXrCOHrS+LmFBau+XYI9t93GrKwatP/yc0RffiXKWMzH+9QLlBEmeOJbU0izwh8FNau9wUHg3sGwKKQ+PQXRHTKw6vIrkFbGbBUWenPHh8FpY/hgfy5od0oQQfyU5xA/4SkJOPeJjDCVlpWkVSEVlfqUsrvmSd3gqR98GgV/4yej6ThK/XyRAywq93mZ8FOL9ba1mLN8FrZVbkK1sQo1tXWItptxy1XDEBWRjA8/+IjV9cbh7k4j8Om+z/D/sl5EWlAHzLx6NjL5vY8leN0Uzg8uG4Mf9nyHtuY0zB44C/ERUbj20ytQElQKC0MIIiYpXC4eWvx6CmtXlQ79Ynpi9tA5mLJkBhYdXAh9GKsB0r2qZ2U+n55+AcYfRYnS0NowfHjjZ6jy1mHisolwFLsw8/bp6GfpC18NUZ0RPtYCeBSL9i2Ao9qFfw78AJe1vIoxTiV/s7lyX+Np5Y9wpGbxC24g+z7Q8nXU7sTSrAmkmXwK02uQlnEvPUa0NPidSVeB6pJltKpfJ8jOgoy0G5CU1hKrl30Ee/kBdLnwIbrne+CnJQ/yeKKOIzII7HuEgvsAwwEvIiwkE336PkCLPYgV/d6BnYqqm7nJdQQweVluOpQ59UYK45CwDqyuN0iWB/a5CXw69F9s/nUG0/gYEqNV7iYtu0WpUhH6cpDb+RKIIxiKtJRErPz5PdSWbUJap7FITmd1TebxG411rAWwBOu3ijx+J1Jb34qOabcTOMt0PhMzA6T1I4wC8VoIf7VeepOzxT8C1Z3H9ygEv/Sgkz4P7MfmMfejYNlydHhpKtqOH0NsjAMWZrFUZC3BkluHyeI6nR54AJkPPYy9r83CgWefQ3gwU7tFCwtq4ibG5IViaqMykBsSjctmz0FC5xR8PvhqJJRWco/6QIQKK14yvyU8HPGZndByxEhEDbqWkBVa+qwyK6tzCOmuzkszidWPzuUY/8lY/ErRAh+LGrDILl8La1qUNfAxbcKFUm8htjjWIt+Qx0piRrR3p1C4s/oX7ekyewVSza2pkZlZYtSO3XR3WhiXTLC0ZYSRsUFqenWMgea59jJVr0IuSpo5BSEGKzbUrZGpUiFEL4sSwSJOL5qOeGVqBS17jhnPOua1LicqPCXMMBDFelhrWS4rC5TIdVNy77uaevBMN7Y5dzGxiVkCzKuOdEUKxZDWkweF+lzkO3JF6x4ksY5/vK6lqucpBCl+mvP4z2Pmc9K3JqW+ZBBS/PtKKSyzZX68wdSGoi+BPCia34imU2Rs7gLS9lYeS0Ara+6L4mBuZxm8rClhNAuAXRi/38LTy8jX4vmbRsuDuAHvdm60YKKPW5MAxTg8h/tN5CaLlBhF8aAg94bQO9WOXoZEKtPcnxTcPkM+GeoOXlPsG4WG/e2xJRAvki78GJmT73YXci5MCeQY4F6RvTgYzvN5i1jxbw+VGPa/oActPIg1+71hqjIs7lsIfulXDXiCza7+kyanP/IJlPqKAkkZY3PATQCeV5S6DomALp41WRjTF3sItaVw5eVKQKkhNBym2Bh4ygrhqa5gSXgWd6PnTbjkdcSnSHQ3X3tNwTCyZovO5IKziGDzOjbHYi8KnZMyjTgcXxilUHg0+wIw/19sKRG+kvWohFqr7G+Dv6V8QKe+Jl6v02jxH5GNrG5ctS7vURr7YSVBLpAI7anoXY8saqw8ItG+R6njpXYpk89PgIiUVEAxigDmCYeJqHQmhxDMky88DB2IEWTXPFVYixxKpTKayrTk6IowF0UUxK8CPJQtFaQiIgW0anloTXYUgJ/IX1aUFTEXebYWw+E3HnoTlPZDYl6iO59QdJQYrtadT7P8mx5moTFS5f7OzI+m056Z0Q+Per7ci4Jgl6xA0okAuwkBKyhM0LzS1U6W+5DlSEX3R/G9+BGdH4UyLV6LNeV7OZL4Xl1jkSYnv1c79JEmFeJWqFixrtUNJA8Ue06Mw78ClyK3jRhPmkHiTb2FFe8F/FmxbnT+cekyFUh9EdIUXfvEnpD3Jq4n5i08YOJaWpdBIfw1NNXhXId6F1PfNhWNNXz143/aVHSprflvmWNjzznX7kURqJIOJUmrdC0BdcKrJcFtfEV61NrAy2JqKs5O0KlUZAU9i/MDPE+ywIQYUjTmEa+lwNFOVLeGmoiqHSu9vEpRIXEoo2n+HXRqHPi3r8tpFPyBFr+2YY8R41fZhhDMQmAKESsWQmEmgQxFvD7BWOpiaWurtUNUWihqixJI4MqcBHOVrT/lW23F/RNr7I448jiZoymGVIjj8I+mMtQ7vLly3297zuflWYH7R2FC2s8RIlZLb1OZh/8YlQcFniOHCBxWvA+UlYFbTpP5DWxD2UTseM888BrafgzY+loHVEX4B4wlj1WsM6E0KMxRrWN+xPXqKxnnJQE039QZeAKBdKtyflWJVYTz0ZKhcZNonMp5uDiPtkXqb8mzRdkNCv76vKL+o2hInCs1tjU96/jCWuuS7NfK5NY/1lUVpnCYYx35qPxZP9oT1VbzmIJfuRuNwWhzPiOZlAEPKnB8f6+Cpk+oUJfyt2uKjdsW9SVM4886+SPPp3tpwudWnyMG7p/6+vfJTEvdxvX1aW1dtdR8zdBSNqOwmFQl3U8AJ+JCJzOpALI/Fgc+ecI7wRlNRZfawp32GwgY8Hy7l+OqsWfwQTZOXWj8BH77upwhi1+besMW/+Eba8zmPv5YmrF+WIaezJiHFYDGP+xz9Ej5WFTm6ndvCZNL/ex0qJ71ryGtU43pnsHrSBlwPtyLKsyOdy/aM9YEpnzEquA81loeb13U5dF2jSiRK0rlSlms6e8BJN+wRX78PeFXdNVlOipKcEToIFAyNzDuqdBYfdZwIvZ0Mlv9qHVRN9SZpsszSft+GjvP7iWQL2l6k8b/jscPNa/0SfBKmaIr49LCbXaCfXoiejuNNKZjw5wTqj+B+6Ux93ysrXuCLX2i2z5t3wda3L+FkZ22iZxgIA38J4O3p+odaBb8J7dspyJgTuZKR1xHBh/VaJcs6XP0SEdsftUTJmhDnEpJ7fMXug/Y1g3eSyB47vAOV5D1gkE1fBN+mjzGPdZnJtJ5oIa05CmnSsvqvUj/ouhgKHER2s/xOcxRhQA1XfSEHLARC3oamfJxr9aU+/i8Fvwa/StZZX6AmCr4/baRkNnqgkg6lgH+Y26Po5ZOepSFBi325e9J8DdUwCdQ0IvX9QV/QykIgcccg2X5xzlbKQx+9qDGEWWzoAZjig3wW+0c6kmyu+AJqi1poQ8tpqpF+Y8XUlDOEZiSw0BAv1FyqtWdmpJhBGq32qM8k56FM2n1NOG9KN4rpR2vV4D1jiV9VVbkI8NS6FBQsc6pAAAAsElEQVQxz8VLf+gqkF4C1l4B06lAI8HD1Joah8vjHr17/bQbEOz303c9/iD4m8TraNfnX4P2XhX6J9o7xxJ82m0IILBEBwUIfuUpBM5K5VuqcBfnSp0oUDfga+0z+bm4l2PrPMeX/s2CvxHaUb1DmpInqYur0b+oIXck71cknQI2p/qrymnN4JLlpOUYorueRKT44TL1dWQ/CFyeoxCc3NeyIqfYG5rGeZKP7DTS2P8HAikxAo1liNwAAAAASUVORK5CYII=;" parent="1" vertex="1">
                    <mxGeometry x="363.67" y="130" width="352.65" height="260" as="geometry"/>
                </mxCell>
                <mxCell id="9" value="1" style="text;html=1;strokeColor=none;fillColor=none;align=center;verticalAlign=middle;whiteSpace=wrap;rounded=0;" vertex="1" parent="1">
                    <mxGeometry x="310" y="430" width="60" height="30" as="geometry"/>
                </mxCell>
                <mxCell id="10" value="0" style="text;html=1;strokeColor=none;fillColor=none;align=center;verticalAlign=middle;whiteSpace=wrap;rounded=0;" vertex="1" parent="1">
                    <mxGeometry x="310" y="410" width="60" height="30" as="geometry"/>
                </mxCell>
                <mxCell id="11" value="&lt;p&gt;&lt;font style=&quot;font-size: 18px;&quot;&gt;🧮 A state machine is a mathematical abstraction used to design &lt;br&gt;algorithms.&lt;/font&gt;&lt;/p&gt;&lt;p&gt;&lt;font style=&quot;font-size: 18px;&quot;&gt;&lt;br&gt;&lt;/font&gt;&lt;/p&gt;&lt;p&gt;&lt;font style=&quot;font-size: 18px;&quot;&gt;&amp;nbsp;A state machine[🤖] reads a set of [🕛] inputs and changes to a &lt;br&gt;different state[🚦] based on those inputs.&lt;/font&gt;&lt;/p&gt;" style="text;html=1;strokeColor=none;fillColor=none;align=left;verticalAlign=middle;whiteSpace=wrap;rounded=0;" vertex="1" parent="1">
                    <mxGeometry x="50" y="180" width="320" height="190" as="geometry"/>
                </mxCell>
                <UserObject label="&lt;font style=&quot;font-size: 12px;&quot;&gt;https://stately.ai/registry/editor/f7a50bc1-d70b-4133-823c-4f7370e0ea70?mode=Design&amp;amp;machineId=8757d2cb-9c54-48be-a3f9-651bcd921054&lt;/font&gt;" link="https://stately.ai/registry/editor/f7a50bc1-d70b-4133-823c-4f7370e0ea70?mode=Design&amp;machineId=8757d2cb-9c54-48be-a3f9-651bcd921054" id="13">
                    <mxCell style="text;whiteSpace=wrap;html=1;fontSize=18;" vertex="1" parent="1">
                        <mxGeometry x="350" y="450" width="520" height="60" as="geometry"/>
                    </mxCell>
                </UserObject>
                <mxCell id="14" value="2" style="text;html=1;strokeColor=none;fillColor=none;align=center;verticalAlign=middle;whiteSpace=wrap;rounded=0;" vertex="1" parent="1">
                    <mxGeometry x="310" y="470" width="60" height="30" as="geometry"/>
                </mxCell>
                <mxCell id="16" value="Text" style="text;html=1;strokeColor=none;fillColor=none;align=center;verticalAlign=middle;whiteSpace=wrap;rounded=0;fontSize=12;" vertex="1" parent="1">
                    <mxGeometry x="360" y="280" width="60" height="30" as="geometry"/>
                </mxCell>
                <mxCell id="19" style="edgeStyle=none;html=1;fontSize=18;" edge="1" parent="1" source="18" target="14">
                    <mxGeometry relative="1" as="geometry"/>
                </mxCell>
                <mxCell id="18" value="&lt;span style=&quot;&quot;&gt;Let's look at a simulation of a traffic light finite state machine! 2&lt;/span&gt;" style="text;html=1;strokeColor=none;fillColor=none;align=left;verticalAlign=middle;whiteSpace=wrap;rounded=0;fontSize=18;" vertex="1" parent="1">
                    <mxGeometry x="50" y="415" width="220" height="85" as="geometry"/>
                </mxCell>
            </root>
        </mxGraphModel>
    </diagram>
</mxfile>